Hightower-Text_Italic.ufo
<glyph name="exclam" format="1">
  <advance width="267"/>
  <unicode hex="0021"/>
  <outline>
    <contour>
      <point x="217" y="626" type="curve" smooth="yes"/>
      <point x="217" y="616"/>
      <point x="215" y="600"/>
      <point x="209" y="580" type="curve" smooth="yes"/>
      <point x="190" y="511"/>
      <point x="158" y="347"/>
      <point x="147" y="261" type="curve" smooth="yes"/>
      <point x="142" y="217"/>
      <point x="130" y="203"/>
      <point x="110" y="193" type="curve" smooth="yes"/>
      <point x="98" y="187"/>
      <point x="92" y="191"/>
      <point x="94" y="205" type="curve" smooth="yes"/>
      <point x="110" y="333"/>
      <point x="114" y="469"/>
      <point x="114" y="583" type="curve" smooth="yes"/>
      <point x="114" y="620"/>
      <point x="118" y="633"/>
      <point x="175" y="646" type="curve" smooth="yes"/>
      <point x="204" y="652"/>
      <point x="217" y="649"/>
    </contour>
    <contour>
      <point x="147" y="53" type="curve" smooth="yes"/>
      <point x="147" y="16"/>
      <point x="121" y="-13"/>
      <point x="90" y="-13" type="curve" smooth="yes"/>
      <point x="54" y="-13"/>
      <point x="39" y="6"/>
      <point x="39" y="44" type="curve" smooth="yes"/>
      <point x="39" y="80"/>
      <point x="67" y="107"/>
      <point x="99" y="107" type="curve" smooth="yes"/>
      <point x="133" y="107"/>
      <point x="147" y="91"/>
    </contour>
  </outline>
</glyph>
<glyph name="quotedbl" format="1">
  <advance width="381"/>
  <unicode hex="0022"/>
  <outline>
    <contour>
      <point x="346" y="613" type="curve" smooth="yes"/>
      <point x="340" y="567"/>
      <point x="315" y="482"/>
      <point x="290" y="419" type="curve" smooth="yes"/>
      <point x="286" y="410"/>
      <point x="281" y="407"/>
      <point x="267" y="404" type="curve" smooth="yes"/>
      <point x="253" y="401"/>
      <point x="250" y="407"/>
      <point x="253" y="424" type="curve" smooth="yes"/>
      <point x="262" y="470"/>
      <point x="263" y="555"/>
      <point x="256" y="609" type="curve" smooth="yes"/>
      <point x="252" y="639"/>
      <point x="262" y="646"/>
      <point x="305" y="651" type="curve" smooth="yes"/>
      <point x="344" y="656"/>
      <point x="351" y="651"/>
    </contour>
    <contour>
      <point x="168" y="613" type="curve" smooth="yes"/>
      <point x="162" y="567"/>
      <point x="137" y="482"/>
      <point x="112" y="419" type="curve" smooth="yes"/>
      <point x="108" y="410"/>
      <point x="103" y="407"/>
      <point x="89" y="404" type="curve" smooth="yes"/>
      <point x="75" y="401"/>
      <point x="72" y="407"/>
      <point x="75" y="424" type="curve" smooth="yes"/>
      <point x="83" y="470"/>
      <point x="85" y="555"/>
      <point x="78" y="609" type="curve" smooth="yes"/>
      <point x="74" y="639"/>
      <point x="83" y="646"/>
      <point x="127" y="651" type="curve" smooth="yes"/>
      <point x="166" y="656"/>
      <point x="173" y="651"/>
    </contour>
  </outline>
</glyph>
<glyph name="numbersign" format="1">
  <advance width="524"/>
  <unicode hex="0023"/>
  <outline>
    <contour>
      <point x="480" y="275" type="curve"/>
      <point x="472" y="252"/>
      <point x="460" y="235"/>
      <point x="445" y="237" type="curve" smooth="yes"/>
      <point x="415" y="240"/>
      <point x="388" y="243"/>
      <point x="363" y="245" type="curve"/>
      <point x="355" y="208"/>
      <point x="347" y="172"/>
      <point x="339" y="137" type="curve"/>
      <point x="374" y="133"/>
      <point x="407" y="130"/>
      <point x="444" y="125" type="curve" smooth="yes"/>
      <point x="451" y="124"/>
      <point x="451" y="118"/>
      <point x="446" y="103" type="curve" smooth="yes"/>
      <point x="439" y="79"/>
      <point x="427" y="63"/>
      <point x="412" y="64" type="curve" smooth="yes"/>
      <point x="378" y="67"/>
      <point x="351" y="70"/>
      <point x="324" y="73" type="curve"/>
      <point x="315" y="36"/>
      <point x="307" y="-1"/>
      <point x="299" y="-36" type="curve"/>
      <point x="297" y="-42"/>
      <point x="294" y="-42"/>
      <point x="285" y="-39" type="curve"/>
      <point x="276" y="-33"/>
      <point x="267" y="-23"/>
      <point x="270" y="-8" type="curve" smooth="yes"/>
      <point x="276" y="23"/>
      <point x="282" y="50"/>
      <point x="289" y="78" type="curve"/>
      <point x="244" y="82"/>
      <point x="203" y="87"/>
      <point x="150" y="93" type="curve"/>
      <point x="140" y="48"/>
      <point x="130" y="5"/>
      <point x="121" y="-36" type="curve"/>
      <point x="119" y="-42"/>
      <point x="116" y="-42"/>
      <point x="107" y="-39" type="curve"/>
      <point x="98" y="-33"/>
      <point x="89" y="-23"/>
      <point x="92" y="-8" type="curve" smooth="yes"/>
      <point x="100" y="29"/>
      <point x="107" y="64"/>
      <point x="115" y="97" type="curve"/>
      <point x="89" y="100"/>
      <point x="61" y="103"/>
      <point x="28" y="106" type="curve" smooth="yes"/>
      <point x="20" y="107"/>
      <point x="20" y="125"/>
      <point x="24" y="137" type="curve" smooth="yes"/>
      <point x="33" y="168"/>
      <point x="44" y="174"/>
      <point x="56" y="172" type="curve" smooth="yes"/>
      <point x="82" y="169"/>
      <point x="107" y="165"/>
      <point x="130" y="163" type="curve"/>
      <point x="137" y="198"/>
      <point x="145" y="232"/>
      <point x="153" y="270" type="curve"/>
      <point x="127" y="273"/>
      <point x="96" y="275"/>
      <point x="62" y="279" type="curve" smooth="yes"/>
      <point x="53" y="280"/>
      <point x="54" y="298"/>
      <point x="58" y="310" type="curve" smooth="yes"/>
      <point x="67" y="341"/>
      <point x="77" y="347"/>
      <point x="90" y="345" type="curve" smooth="yes"/>
      <point x="118" y="342"/>
      <point x="144" y="338"/>
      <point x="169" y="335" type="curve"/>
      <point x="174" y="363"/>
      <point x="181" y="391"/>
      <point x="187" y="422" type="curve"/>
      <point x="190" y="430"/>
      <point x="199" y="431"/>
      <point x="206" y="429" type="curve"/>
      <point x="222" y="421"/>
      <point x="223" y="411"/>
      <point x="220" y="399" type="curve" smooth="yes"/>
      <point x="214" y="375"/>
      <point x="210" y="352"/>
      <point x="203" y="330" type="curve"/>
      <point x="255" y="324"/>
      <point x="299" y="319"/>
      <point x="342" y="313" type="curve"/>
      <point x="349" y="347"/>
      <point x="358" y="382"/>
      <point x="365" y="422" type="curve"/>
      <point x="369" y="430"/>
      <point x="377" y="431"/>
      <point x="384" y="429" type="curve"/>
      <point x="400" y="421"/>
      <point x="401" y="411"/>
      <point x="398" y="399" type="curve" smooth="yes"/>
      <point x="391" y="367"/>
      <point x="385" y="338"/>
      <point x="377" y="309" type="curve"/>
      <point x="411" y="306"/>
      <point x="443" y="302"/>
      <point x="478" y="298" type="curve" smooth="yes"/>
      <point x="484" y="297"/>
      <point x="484" y="291"/>
    </contour>
    <contour>
      <point x="328" y="249" type="curve"/>
      <point x="283" y="255"/>
      <point x="242" y="260"/>
      <point x="189" y="266" type="curve"/>
      <point x="182" y="229"/>
      <point x="174" y="193"/>
      <point x="166" y="159" type="curve"/>
      <point x="216" y="152"/>
      <point x="261" y="147"/>
      <point x="304" y="141" type="curve"/>
      <point x="311" y="176"/>
      <point x="320" y="212"/>
    </contour>
  </outline>
</glyph>
<glyph name="dollar" format="1">
  <advance width="401"/>
  <unicode hex="0024"/>
  <outline>
    <contour>
      <point x="354" y="319" type="curve" smooth="yes"/>
      <point x="354" y="291"/>
      <point x="341" y="280"/>
      <point x="318" y="280" type="curve" smooth="yes"/>
      <point x="298" y="280"/>
      <point x="285" y="291"/>
      <point x="278" y="316" type="curve" smooth="yes"/>
      <point x="271" y="341"/>
      <point x="258" y="356"/>
      <point x="232" y="363" type="curve"/>
      <point x="223" y="320"/>
      <point x="214" y="275"/>
      <point x="205" y="229" type="curve"/>
      <point x="304" y="181"/>
      <point x="330" y="157"/>
      <point x="330" y="109" type="curve" smooth="yes"/>
      <point x="330" y="40"/>
      <point x="279" y="-8"/>
      <point x="176" y="-8" type="curve" smooth="yes"/>
      <point x="169" y="-8"/>
      <point x="163" y="-8"/>
      <point x="156" y="-8" type="curve"/>
      <point x="149" y="-45"/>
      <point x="142" y="-78"/>
      <point x="137" y="-104" type="curve"/>
      <point x="135" y="-111"/>
      <point x="132" y="-111"/>
      <point x="124" y="-106" type="curve"/>
      <point x="113" y="-101"/>
      <point x="104" y="-89"/>
      <point x="107" y="-74" type="curve" smooth="yes"/>
      <point x="111" y="-52"/>
      <point x="116" y="-29"/>
      <point x="121" y="-4" type="curve"/>
      <point x="43" y="7"/>
      <point x="-2" y="44"/>
      <point x="-2" y="80" type="curve" smooth="yes"/>
      <point x="-2" y="105"/>
      <point x="11" y="119"/>
      <point x="32" y="119" type="curve" smooth="yes"/>
      <point x="55" y="119"/>
      <point x="67" y="111"/>
      <point x="74" y="80" type="curve" smooth="yes"/>
      <point x="80" y="53"/>
      <point x="95" y="36"/>
      <point x="128" y="29" type="curve"/>
      <point x="137" y="74"/>
      <point x="147" y="122"/>
      <point x="157" y="172" type="curve"/>
      <point x="68" y="217"/>
      <point x="44" y="239"/>
      <point x="44" y="286" type="curve" smooth="yes"/>
      <point x="44" y="358"/>
      <point x="103" y="401"/>
      <point x="194" y="401" type="curve" smooth="yes"/>
      <point x="197" y="401"/>
      <point x="200" y="401"/>
      <point x="202" y="401" type="curve"/>
      <point x="207" y="425"/>
      <point x="212" y="450"/>
      <point x="217" y="474" type="curve" smooth="yes"/>
      <point x="219" y="482"/>
      <point x="228" y="483"/>
      <point x="234" y="480" type="curve" smooth="yes"/>
      <point x="252" y="471"/>
      <point x="253" y="461"/>
      <point x="250" y="449" type="curve" smooth="yes"/>
      <point x="247" y="433"/>
      <point x="243" y="415"/>
      <point x="239" y="398" type="curve"/>
      <point x="305" y="388"/>
      <point x="354" y="356"/>
    </contour>
    <contour>
      <point x="196" y="368" type="curve"/>
      <point x="193" y="368"/>
      <point x="191" y="368"/>
      <point x="188" y="368" type="curve" smooth="yes"/>
      <point x="132" y="368"/>
      <point x="106" y="343"/>
      <point x="106" y="310" type="curve" smooth="yes"/>
      <point x="106" y="287"/>
      <point x="114" y="275"/>
      <point x="171" y="245" type="curve"/>
      <point x="180" y="286"/>
      <point x="188" y="327"/>
    </contour>
    <contour>
      <point x="263" y="85" type="curve" smooth="yes"/>
      <point x="263" y="108"/>
      <point x="252" y="125"/>
      <point x="190" y="157" type="curve"/>
      <point x="181" y="111"/>
      <point x="171" y="66"/>
      <point x="163" y="25" type="curve"/>
      <point x="167" y="25"/>
      <point x="172" y="25"/>
      <point x="177" y="25" type="curve" smooth="yes"/>
      <point x="236" y="25"/>
      <point x="263" y="49"/>
    </contour>
  </outline>
</glyph>
<glyph name="percent" format="1">
  <advance width="758"/>
  <unicode hex="0025"/>
  <outline>
    <contour>
      <point x="301" y="299" type="curve" smooth="yes"/>
      <point x="301" y="197"/>
      <point x="228" y="123"/>
      <point x="145" y="123" type="curve" smooth="yes"/>
      <point x="78" y="123"/>
      <point x="32" y="164"/>
      <point x="32" y="238" type="curve" smooth="yes"/>
      <point x="32" y="340"/>
      <point x="107" y="408"/>
      <point x="190" y="408" type="curve" smooth="yes"/>
      <point x="260" y="408"/>
      <point x="301" y="363"/>
    </contour>
    <contour>
      <point x="510" y="398" type="curve" smooth="yes"/>
      <point x="401" y="219"/>
      <point x="321" y="88"/>
      <point x="245" y="-41" type="curve" smooth="yes"/>
      <point x="241" y="-48"/>
      <point x="234" y="-46"/>
      <point x="223" y="-37" type="curve"/>
      <point x="210" y="-29"/>
      <point x="206" y="-25"/>
      <point x="211" y="-17" type="curve" smooth="yes"/>
      <point x="307" y="140"/>
      <point x="358" y="225"/>
      <point x="476" y="420" type="curve" smooth="yes"/>
      <point x="481" y="428"/>
      <point x="486" y="427"/>
      <point x="497" y="418" type="curve" smooth="yes"/>
      <point x="510" y="409"/>
      <point x="514" y="404"/>
    </contour>
    <contour>
      <point x="701" y="159" type="curve" smooth="yes"/>
      <point x="701" y="57"/>
      <point x="628" y="-17"/>
      <point x="545" y="-17" type="curve" smooth="yes"/>
      <point x="478" y="-17"/>
      <point x="432" y="24"/>
      <point x="432" y="98" type="curve" smooth="yes"/>
      <point x="432" y="200"/>
      <point x="507" y="268"/>
      <point x="590" y="268" type="curve" smooth="yes"/>
      <point x="660" y="268"/>
      <point x="701" y="223"/>
    </contour>
    <contour>
      <point x="223" y="291" type="curve" smooth="yes"/>
      <point x="223" y="341"/>
      <point x="212" y="375"/>
      <point x="176" y="375" type="curve" smooth="yes"/>
      <point x="134" y="375"/>
      <point x="108" y="325"/>
      <point x="108" y="240" type="curve" smooth="yes"/>
      <point x="108" y="191"/>
      <point x="119" y="157"/>
      <point x="157" y="157" type="curve" smooth="yes"/>
      <point x="203" y="157"/>
      <point x="223" y="217"/>
    </contour>
    <contour>
      <point x="623" y="151" type="curve" smooth="yes"/>
      <point x="623" y="201"/>
      <point x="612" y="235"/>
      <point x="576" y="235" type="curve" smooth="yes"/>
      <point x="534" y="235"/>
      <point x="508" y="185"/>
      <point x="508" y="100" type="curve" smooth="yes"/>
      <point x="508" y="51"/>
      <point x="519" y="17"/>
      <point x="557" y="17" type="curve" smooth="yes"/>
      <point x="603" y="17"/>
      <point x="623" y="77"/>
    </contour>
  </outline>
</glyph>
<glyph name="ampersand" format="1">
  <advance width="737"/>
  <unicode hex="0026"/>
  <outline>
    <contour>
      <point x="738" y="431" type="curve" smooth="yes"/>
      <point x="720" y="410"/>
      <point x="693" y="384"/>
      <point x="671" y="369" type="curve" smooth="yes"/>
      <point x="652" y="355"/>
      <point x="639" y="357"/>
      <point x="625" y="373" type="curve" smooth="yes"/>
      <point x="606" y="393"/>
      <point x="572" y="423"/>
      <point x="552" y="438" type="curve"/>
      <point x="562" y="416"/>
      <point x="567" y="393"/>
      <point x="567" y="354" type="curve" smooth="yes"/>
      <point x="567" y="271"/>
      <point x="549" y="192"/>
      <point x="499" y="122" type="curve" smooth="yes"/>
      <point x="440" y="38"/>
      <point x="356" y="-8"/>
      <point x="254" y="-8" type="curve" smooth="yes"/>
      <point x="122" y="-8"/>
      <point x="37" y="68"/>
      <point x="37" y="197" type="curve" smooth="yes"/>
      <point x="37" y="347"/>
      <point x="140" y="416"/>
      <point x="237" y="416" type="curve" smooth="yes"/>
      <point x="283" y="416"/>
      <point x="295" y="414"/>
      <point x="302" y="414" type="curve" smooth="yes"/>
      <point x="309" y="414"/>
      <point x="314" y="422"/>
      <point x="314" y="460" type="curve" smooth="yes"/>
      <point x="314" y="542"/>
      <point x="280" y="580"/>
      <point x="227" y="580" type="curve" smooth="yes"/>
      <point x="214" y="580"/>
      <point x="207" y="580"/>
      <point x="193" y="579" type="curve" smooth="yes"/>
      <point x="185" y="579"/>
      <point x="183" y="581"/>
      <point x="181" y="596" type="curve" smooth="yes"/>
      <point x="180" y="609"/>
      <point x="181" y="616"/>
      <point x="185" y="619" type="curve"/>
      <point x="218" y="638"/>
      <point x="244" y="654"/>
      <point x="272" y="654" type="curve" smooth="yes"/>
      <point x="321" y="654"/>
      <point x="352" y="586"/>
      <point x="352" y="486" type="curve" smooth="yes"/>
      <point x="352" y="333"/>
      <point x="270" y="195"/>
      <point x="156" y="107" type="curve"/>
      <point x="186" y="71"/>
      <point x="229" y="56"/>
      <point x="276" y="56" type="curve" smooth="yes"/>
      <point x="355" y="56"/>
      <point x="423" y="82"/>
      <point x="474" y="160" type="curve" smooth="yes"/>
      <point x="507" y="211"/>
      <point x="531" y="279"/>
      <point x="531" y="346" type="curve" smooth="yes"/>
      <point x="531" y="418"/>
      <point x="509" y="471"/>
      <point x="487" y="471" type="curve" smooth="yes"/>
      <point x="473" y="471"/>
      <point x="465" y="462"/>
      <point x="444" y="448" type="curve" smooth="yes"/>
      <point x="437" y="443"/>
      <point x="425" y="455"/>
      <point x="429" y="460" type="curve" smooth="yes"/>
      <point x="447" y="481"/>
      <point x="471" y="503"/>
      <point x="493" y="518" type="curve"/>
      <point x="500" y="524"/>
      <point x="507" y="527"/>
      <point x="513" y="527" type="curve" smooth="yes"/>
      <point x="524" y="527"/>
      <point x="534" y="521"/>
      <point x="590" y="482" type="curve" smooth="yes"/>
      <point x="618" y="462"/>
      <point x="672" y="422"/>
      <point x="684" y="422" type="curve" smooth="yes"/>
      <point x="696" y="422"/>
      <point x="707" y="432"/>
      <point x="723" y="443" type="curve" smooth="yes"/>
      <point x="730" y="448"/>
      <point x="742" y="436"/>
    </contour>
    <contour>
      <point x="275" y="327" type="curve" smooth="yes"/>
      <point x="275" y="359"/>
      <point x="251" y="377"/>
      <point x="214" y="377" type="curve" smooth="yes"/>
      <point x="169" y="377"/>
      <point x="117" y="333"/>
      <point x="117" y="222" type="curve" smooth="yes"/>
      <point x="117" y="187"/>
      <point x="125" y="158"/>
      <point x="137" y="134" type="curve"/>
      <point x="223" y="197"/>
      <point x="275" y="284"/>
    </contour>
  </outline>
</glyph>
<glyph name="quotesingle" format="1">
  <advance width="203"/>
  <unicode hex="0027"/>
  <outline>
    <contour>
      <point x="168" y="613" type="curve" smooth="yes"/>
      <point x="162" y="567"/>
      <point x="137" y="482"/>
      <point x="112" y="419" type="curve" smooth="yes"/>
      <point x="108" y="410"/>
      <point x="103" y="407"/>
      <point x="89" y="404" type="curve" smooth="yes"/>
      <point x="75" y="401"/>
      <point x="72" y="407"/>
      <point x="75" y="424" type="curve" smooth="yes"/>
      <point x="83" y="470"/>
      <point x="85" y="555"/>
      <point x="78" y="609" type="curve" smooth="yes"/>
      <point x="74" y="639"/>
      <point x="83" y="646"/>
      <point x="127" y="651" type="curve" smooth="yes"/>
      <point x="166" y="656"/>
      <point x="173" y="651"/>
    </contour>
  </outline>
</glyph>
<glyph name="parenleft" format="1">
  <advance width="387"/>
  <unicode hex="0028"/>
  <outline>
    <contour>
      <point x="409" y="723" type="curve"/>
      <point x="413" y="711"/>
      <point x="412" y="702"/>
      <point x="405" y="697" type="curve" smooth="yes"/>
      <point x="234" y="567"/>
      <point x="143" y="432"/>
      <point x="143" y="210" type="curve" smooth="yes"/>
      <point x="143" y="82"/>
      <point x="187" y="-22"/>
      <point x="301" y="-145" type="curve"/>
      <point x="308" y="-151"/>
      <point x="307" y="-159"/>
      <point x="299" y="-171" type="curve" smooth="yes"/>
      <point x="291" y="-182"/>
      <point x="282" y="-180"/>
      <point x="269" y="-169" type="curve" smooth="yes"/>
      <point x="137" y="-54"/>
      <point x="60" y="91"/>
      <point x="60" y="241" type="curve" smooth="yes"/>
      <point x="60" y="430"/>
      <point x="187" y="605"/>
      <point x="379" y="725" type="curve" smooth="yes"/>
      <point x="393" y="734"/>
      <point x="403" y="736"/>
    </contour>
  </outline>
</glyph>
<glyph name="parenright" format="1">
  <advance width="387"/>
  <unicode hex="0029"/>
  <outline>
    <contour>
      <point x="325" y="313" type="curve" smooth="yes"/>
      <point x="325" y="124"/>
      <point x="198" y="-51"/>
      <point x="6" y="-171" type="curve" smooth="yes"/>
      <point x="-8" y="-180"/>
      <point x="-18" y="-182"/>
      <point x="-24" y="-169" type="curve"/>
      <point x="-28" y="-157"/>
      <point x="-27" y="-148"/>
      <point x="-20" y="-143" type="curve" smooth="yes"/>
      <point x="151" y="-13"/>
      <point x="242" y="122"/>
      <point x="242" y="344" type="curve" smooth="yes"/>
      <point x="242" y="472"/>
      <point x="198" y="576"/>
      <point x="84" y="699" type="curve"/>
      <point x="77" y="705"/>
      <point x="78" y="713"/>
      <point x="86" y="725" type="curve" smooth="yes"/>
      <point x="94" y="736"/>
      <point x="103" y="734"/>
      <point x="116" y="723" type="curve" smooth="yes"/>
      <point x="248" y="608"/>
      <point x="325" y="463"/>
    </contour>
  </outline>
</glyph>
<glyph name="asterisk" format="1">
  <advance width="510"/>
  <unicode hex="002A"/>
  <outline>
    <contour>
      <point x="469" y="461" type="curve" smooth="yes"/>
      <point x="471" y="411"/>
      <point x="455" y="409"/>
      <point x="442" y="411" type="curve" smooth="yes"/>
      <point x="326" y="433"/>
      <point x="287" y="431"/>
      <point x="281" y="428" type="curve"/>
      <point x="269" y="418"/>
      <point x="290" y="379"/>
      <point x="366" y="303" type="curve" smooth="yes"/>
      <point x="384" y="285"/>
      <point x="383" y="275"/>
      <point x="335" y="258" type="curve" smooth="yes"/>
      <point x="288" y="241"/>
      <point x="281" y="256"/>
      <point x="279" y="269" type="curve" smooth="yes"/>
      <point x="265" y="380"/>
      <point x="250" y="422"/>
      <point x="244" y="424" type="curve"/>
      <point x="233" y="431"/>
      <point x="199" y="395"/>
      <point x="155" y="306" type="curve" smooth="yes"/>
      <point x="143" y="283"/>
      <point x="132" y="284"/>
      <point x="102" y="322" type="curve" smooth="yes"/>
      <point x="71" y="362"/>
      <point x="83" y="373"/>
      <point x="95" y="377" type="curve"/>
      <point x="186" y="423"/>
      <point x="227" y="453"/>
      <point x="229" y="458" type="curve"/>
      <point x="230" y="472"/>
      <point x="198" y="486"/>
      <point x="88" y="508" type="curve" smooth="yes"/>
      <point x="74" y="511"/>
      <point x="62" y="523"/>
      <point x="88" y="564" type="curve" smooth="yes"/>
      <point x="114" y="605"/>
      <point x="131" y="596"/>
      <point x="140" y="586" type="curve" smooth="yes"/>
      <point x="217" y="504"/>
      <point x="253" y="480"/>
      <point x="257" y="481" type="curve"/>
      <point x="270" y="483"/>
      <point x="272" y="527"/>
      <point x="261" y="632" type="curve" smooth="yes"/>
      <point x="258" y="656"/>
      <point x="262" y="663"/>
      <point x="314" y="649" type="curve" smooth="yes"/>
      <point x="359" y="637"/>
      <point x="357" y="619"/>
      <point x="351" y="607" type="curve" smooth="yes"/>
      <point x="302" y="514"/>
      <point x="290" y="469"/>
      <point x="292" y="462" type="curve" smooth="yes"/>
      <point x="296" y="448"/>
      <point x="353" y="458"/>
      <point x="436" y="507" type="curve" smooth="yes"/>
      <point x="447" y="514"/>
      <point x="467" y="514"/>
    </contour>
  </outline>
</glyph>
<glyph name="plus" format="1">
  <advance width="529"/>
  <unicode hex="002B"/>
  <outline>
    <contour>
      <point x="461" y="204" type="curve" smooth="yes"/>
      <point x="461" y="192"/>
      <point x="449" y="177"/>
      <point x="432" y="177" type="curve" smooth="yes"/>
      <point x="370" y="177"/>
      <point x="277" y="177"/>
      <point x="277" y="177" type="curve"/>
      <point x="277" y="177"/>
      <point x="277" y="71"/>
      <point x="277" y="5" type="curve" smooth="yes"/>
      <point x="277" y="-10"/>
      <point x="267" y="-19"/>
      <point x="238" y="-19" type="curve" smooth="yes"/>
      <point x="227" y="-19"/>
      <point x="215" y="-17"/>
      <point x="215" y="-9" type="curve" smooth="yes"/>
      <point x="215" y="70"/>
      <point x="215" y="177"/>
      <point x="215" y="177" type="curve"/>
      <point x="215" y="177"/>
      <point x="115" y="177"/>
      <point x="40" y="177" type="curve" smooth="yes"/>
      <point x="33" y="177"/>
      <point x="32" y="184"/>
      <point x="32" y="190" type="curve" smooth="yes"/>
      <point x="32" y="207"/>
      <point x="45" y="212"/>
      <point x="60" y="212" type="curve" smooth="yes"/>
      <point x="119" y="212"/>
      <point x="215" y="212"/>
      <point x="215" y="212" type="curve"/>
      <point x="215" y="212"/>
      <point x="215" y="316"/>
      <point x="215" y="386" type="curve" smooth="yes"/>
      <point x="215" y="402"/>
      <point x="240" y="410"/>
      <point x="263" y="410" type="curve" smooth="yes"/>
      <point x="275" y="410"/>
      <point x="277" y="409"/>
      <point x="277" y="403" type="curve" smooth="yes"/>
      <point x="277" y="337"/>
      <point x="277" y="212"/>
      <point x="277" y="212" type="curve"/>
      <point x="277" y="212"/>
      <point x="391" y="212"/>
      <point x="453" y="212" type="curve" smooth="yes"/>
      <point x="459" y="212"/>
      <point x="461" y="211"/>
    </contour>
  </outline>
</glyph>
<glyph name="comma" format="1">
  <advance width="246"/>
  <unicode hex="002C"/>
  <outline>
    <contour>
      <point x="159" y="36" type="curve" smooth="yes"/>
      <point x="159" y="-66"/>
      <point x="100" y="-129"/>
      <point x="27" y="-166" type="curve" smooth="yes"/>
      <point x="12" y="-174"/>
      <point x="6" y="-174"/>
      <point x="2" y="-155" type="curve" smooth="yes"/>
      <point x="-2" y="-140"/>
      <point x="3" y="-137"/>
      <point x="32" y="-120" type="curve" smooth="yes"/>
      <point x="58" y="-105"/>
      <point x="89" y="-72"/>
      <point x="89" y="-42" type="curve" smooth="yes"/>
      <point x="89" y="-27"/>
      <point x="82" y="-19"/>
      <point x="66" y="-7" type="curve" smooth="yes"/>
      <point x="45" y="9"/>
      <point x="33" y="22"/>
      <point x="33" y="45" type="curve" smooth="yes"/>
      <point x="33" y="76"/>
      <point x="54" y="108"/>
      <point x="96" y="108" type="curve" smooth="yes"/>
      <point x="140" y="108"/>
      <point x="159" y="74"/>
    </contour>
  </outline>
</glyph>
<glyph name="hyphen" format="1">
  <advance width="337"/>
  <unicode hex="002D"/>
  <unicode hex="2010"/>
  <unicode hex="2011"/>
  <outline>
    <contour>
      <point x="284" y="309" type="curve" smooth="yes"/>
      <point x="284" y="287"/>
      <point x="277" y="259"/>
      <point x="255" y="256" type="curve" smooth="yes"/>
      <point x="200" y="247"/>
      <point x="139" y="234"/>
      <point x="87" y="219" type="curve" smooth="yes"/>
      <point x="49" y="208"/>
      <point x="41" y="210"/>
      <point x="41" y="231" type="curve" smooth="yes"/>
      <point x="41" y="254"/>
      <point x="46" y="286"/>
      <point x="66" y="289" type="curve" smooth="yes"/>
      <point x="129" y="297"/>
      <point x="193" y="311"/>
      <point x="253" y="322" type="curve" smooth="yes"/>
      <point x="280" y="327"/>
      <point x="284" y="325"/>
    </contour>
  </outline>
</glyph>
<glyph name="period" format="1">
  <advance width="246"/>
  <unicode hex="002E"/>
  <outline>
    <contour>
      <point x="149" y="58" type="curve" smooth="yes"/>
      <point x="149" y="18"/>
      <point x="121" y="-14"/>
      <point x="87" y="-14" type="curve" smooth="yes"/>
      <point x="47" y="-14"/>
      <point x="31" y="8"/>
      <point x="31" y="50" type="curve" smooth="yes"/>
      <point x="31" y="89"/>
      <point x="62" y="118"/>
      <point x="95" y="118" type="curve" smooth="yes"/>
      <point x="134" y="118"/>
      <point x="149" y="100"/>
    </contour>
  </outline>
</glyph>
<glyph name="slash" format="1">
  <advance width="492"/>
  <unicode hex="002F"/>
  <outline>
    <contour>
      <point x="526" y="702" type="curve" smooth="yes"/>
      <point x="377" y="482"/>
      <point x="97" y="61"/>
      <point x="-54" y="-166" type="curve" smooth="yes"/>
      <point x="-60" y="-175"/>
      <point x="-68" y="-174"/>
      <point x="-83" y="-165" type="curve" smooth="yes"/>
      <point x="-96" y="-157"/>
      <point x="-101" y="-152"/>
      <point x="-95" y="-143" type="curve" smooth="yes"/>
      <point x="54" y="80"/>
      <point x="295" y="439"/>
      <point x="486" y="726" type="curve" smooth="yes"/>
      <point x="491" y="734"/>
      <point x="498" y="733"/>
      <point x="513" y="725" type="curve" smooth="yes"/>
      <point x="527" y="718"/>
      <point x="532" y="711"/>
    </contour>
  </outline>
</glyph>
<glyph name="zero" format="1">
  <advance width="453"/>
  <unicode hex="0030"/>
  <outline>
    <contour>
      <point x="402" y="242" type="curve" smooth="yes"/>
      <point x="402" y="104"/>
      <point x="300" y="-6"/>
      <point x="182" y="-6" type="curve" smooth="yes"/>
      <point x="74" y="-6"/>
      <point x="17" y="62"/>
      <point x="17" y="159" type="curve" smooth="yes"/>
      <point x="17" y="299"/>
      <point x="128" y="402"/>
      <point x="238" y="402" type="curve" smooth="yes"/>
      <point x="348" y="402"/>
      <point x="402" y="336"/>
    </contour>
    <contour>
      <point x="320" y="241" type="curve" smooth="yes"/>
      <point x="320" y="316"/>
      <point x="290" y="359"/>
      <point x="231" y="359" type="curve" smooth="yes"/>
      <point x="157" y="359"/>
      <point x="100" y="276"/>
      <point x="100" y="167" type="curve" smooth="yes"/>
      <point x="100" y="87"/>
      <point x="123" y="39"/>
      <point x="191" y="39" type="curve" smooth="yes"/>
      <point x="263" y="39"/>
      <point x="320" y="116"/>
    </contour>
  </outline>
</glyph>
<glyph name="one" format="1">
  <advance width="292"/>
  <unicode hex="0031"/>
  <outline>
    <contour>
      <point x="249" y="376" type="curve" smooth="yes"/>
      <point x="248" y="365"/>
      <point x="245" y="362"/>
      <point x="222" y="356" type="curve" smooth="yes"/>
      <point x="205" y="352"/>
      <point x="190" y="342"/>
      <point x="183" y="302" type="curve" smooth="yes"/>
      <point x="183" y="302"/>
      <point x="169" y="221"/>
      <point x="149" y="105" type="curve" smooth="yes"/>
      <point x="142" y="63"/>
      <point x="149" y="47"/>
      <point x="181" y="38" type="curve" smooth="yes"/>
      <point x="203" y="32"/>
      <point x="206" y="28"/>
      <point x="202" y="15" type="curve" smooth="yes"/>
      <point x="198" y="-1"/>
      <point x="194" y="-2"/>
      <point x="167" y="0" type="curve" smooth="yes"/>
      <point x="128" y="3"/>
      <point x="73" y="2"/>
      <point x="32" y="-2" type="curve" smooth="yes"/>
      <point x="9" y="-4"/>
      <point x="5" y="-3"/>
      <point x="8" y="15" type="curve" smooth="yes"/>
      <point x="10" y="24"/>
      <point x="12" y="27"/>
      <point x="36" y="35" type="curve" smooth="yes"/>
      <point x="54" y="41"/>
      <point x="67" y="49"/>
      <point x="74" y="89" type="curve" smooth="yes"/>
      <point x="74" y="89"/>
      <point x="94" y="193"/>
      <point x="110" y="286" type="curve" smooth="yes"/>
      <point x="117" y="328"/>
      <point x="111" y="344"/>
      <point x="77" y="353" type="curve" smooth="yes"/>
      <point x="54" y="359"/>
      <point x="52" y="361"/>
      <point x="56" y="376" type="curve" smooth="yes"/>
      <point x="60" y="392"/>
      <point x="63" y="393"/>
      <point x="90" y="391" type="curve" smooth="yes"/>
      <point x="129" y="388"/>
      <point x="184" y="390"/>
      <point x="224" y="393" type="curve" smooth="yes"/>
      <point x="249" y="395"/>
      <point x="251" y="393"/>
    </contour>
  </outline>
</glyph>
<glyph name="two" format="1">
  <advance width="392"/>
  <unicode hex="0032"/>
  <outline>
    <contour>
      <point x="343" y="66" type="curve"/>
      <point x="325" y="46"/>
      <point x="297" y="-13"/>
      <point x="282" y="-43" type="curve" smooth="yes"/>
      <point x="277" y="-54"/>
      <point x="273" y="-55"/>
      <point x="260" y="-52" type="curve" smooth="yes"/>
      <point x="250" y="-49"/>
      <point x="250" y="-44"/>
      <point x="254" y="-31" type="curve" smooth="yes"/>
      <point x="260" y="-14"/>
      <point x="258" y="-8"/>
      <point x="240" y="-4" type="curve"/>
      <point x="191" y="2"/>
      <point x="92" y="3"/>
      <point x="0" y="3" type="curve" smooth="yes"/>
      <point x="-8" y="3"/>
      <point x="-7" y="20"/>
      <point x="-1" y="24" type="curve" smooth="yes"/>
      <point x="181" y="156"/>
      <point x="238" y="216"/>
      <point x="238" y="282" type="curve" smooth="yes"/>
      <point x="238" y="326"/>
      <point x="208" y="350"/>
      <point x="161" y="350" type="curve" smooth="yes"/>
      <point x="128" y="350"/>
      <point x="95" y="338"/>
      <point x="55" y="306" type="curve" smooth="yes"/>
      <point x="47" y="300"/>
      <point x="41" y="300"/>
      <point x="28" y="316" type="curve" smooth="yes"/>
      <point x="22" y="324"/>
      <point x="25" y="334"/>
      <point x="38" y="345" type="curve" smooth="yes"/>
      <point x="82" y="384"/>
      <point x="136" y="407"/>
      <point x="191" y="407" type="curve" smooth="yes"/>
      <point x="274" y="407"/>
      <point x="324" y="368"/>
      <point x="324" y="306" type="curve" smooth="yes"/>
      <point x="324" y="238"/>
      <point x="265" y="180"/>
      <point x="131" y="78" type="curve" smooth="yes"/>
      <point x="119" y="69"/>
      <point x="117" y="63"/>
      <point x="136" y="63" type="curve" smooth="yes"/>
      <point x="177" y="63"/>
      <point x="196" y="62"/>
      <point x="249" y="64" type="curve" smooth="yes"/>
      <point x="326" y="67"/>
      <point x="320" y="91"/>
      <point x="340" y="81" type="curve"/>
      <point x="349" y="78"/>
      <point x="349" y="71"/>
    </contour>
  </outline>
</glyph>
<glyph name="three" format="1">
  <advance width="359"/>
  <unicode hex="0033"/>
  <outline>
    <contour>
      <point x="311" y="317" type="curve" smooth="yes"/>
      <point x="311" y="258"/>
      <point x="264" y="205"/>
      <point x="163" y="167" type="curve"/>
      <point x="240" y="166"/>
      <point x="281" y="116"/>
      <point x="281" y="60" type="curve" smooth="yes"/>
      <point x="281" y="-64"/>
      <point x="152" y="-149"/>
      <point x="-32" y="-167" type="curve" smooth="yes"/>
      <point x="-43" y="-168"/>
      <point x="-46" y="-166"/>
      <point x="-46" y="-152" type="curve" smooth="yes"/>
      <point x="-46" y="-137"/>
      <point x="-43" y="-132"/>
      <point x="-20" y="-129" type="curve" smooth="yes"/>
      <point x="124" y="-108"/>
      <point x="194" y="-49"/>
      <point x="194" y="44" type="curve" smooth="yes"/>
      <point x="194" y="96"/>
      <point x="153" y="126"/>
      <point x="101" y="126" type="curve" smooth="yes"/>
      <point x="87" y="126"/>
      <point x="78" y="125"/>
      <point x="69" y="124" type="curve" smooth="yes"/>
      <point x="59" y="123"/>
      <point x="54" y="124"/>
      <point x="50" y="139" type="curve" smooth="yes"/>
      <point x="47" y="150"/>
      <point x="51" y="156"/>
      <point x="63" y="161" type="curve" smooth="yes"/>
      <point x="190" y="209"/>
      <point x="223" y="255"/>
      <point x="223" y="304" type="curve" smooth="yes"/>
      <point x="223" y="338"/>
      <point x="197" y="358"/>
      <point x="155" y="358" type="curve" smooth="yes"/>
      <point x="111" y="358"/>
      <point x="88" y="349"/>
      <point x="59" y="333" type="curve" smooth="yes"/>
      <point x="50" y="328"/>
      <point x="45" y="329"/>
      <point x="34" y="343" type="curve" smooth="yes"/>
      <point x="27" y="353"/>
      <point x="27" y="357"/>
      <point x="46" y="369" type="curve" smooth="yes"/>
      <point x="87" y="394"/>
      <point x="135" y="409"/>
      <point x="183" y="409" type="curve" smooth="yes"/>
      <point x="260" y="409"/>
      <point x="311" y="380"/>
    </contour>
  </outline>
</glyph>
<glyph name="four" format="1">
  <advance width="454"/>
  <unicode hex="0034"/>
  <outline>
    <contour>
      <point x="396" y="84" type="curve" smooth="yes"/>
      <point x="405" y="82"/>
      <point x="406" y="74"/>
      <point x="390" y="26" type="curve" smooth="yes"/>
      <point x="385" y="10"/>
      <point x="376" y="-2"/>
      <point x="363" y="-1" type="curve" smooth="yes"/>
      <point x="347" y="1"/>
      <point x="314" y="2"/>
      <point x="299" y="3" type="curve"/>
      <point x="297" y="-12"/>
      <point x="294" y="-54"/>
      <point x="284" y="-138" type="curve" smooth="yes"/>
      <point x="283" y="-150"/>
      <point x="278" y="-152"/>
      <point x="243" y="-162" type="curve" smooth="yes"/>
      <point x="214" y="-170"/>
      <point x="204" y="-168"/>
      <point x="206" y="-156" type="curve" smooth="yes"/>
      <point x="213" y="-103"/>
      <point x="227" y="-24"/>
      <point x="230" y="4" type="curve"/>
      <point x="175" y="8"/>
      <point x="61" y="10"/>
      <point x="-12" y="13" type="curve" smooth="yes"/>
      <point x="-15" y="13"/>
      <point x="-16" y="40"/>
      <point x="-11" y="45" type="curve" smooth="yes"/>
      <point x="198" y="262"/>
      <point x="281" y="367"/>
      <point x="306" y="407" type="curve" smooth="yes"/>
      <point x="313" y="419"/>
      <point x="339" y="409"/>
      <point x="348" y="406" type="curve" smooth="yes"/>
      <point x="359" y="402"/>
      <point x="355" y="391"/>
      <point x="351" y="377" type="curve" smooth="yes"/>
      <point x="345" y="356"/>
      <point x="339" y="316"/>
      <point x="337" y="307" type="curve"/>
      <point x="324" y="195"/>
      <point x="307" y="56"/>
      <point x="307" y="56" type="curve"/>
      <point x="332" y="56"/>
      <point x="340" y="56"/>
      <point x="358" y="60" type="curve" smooth="yes"/>
      <point x="365" y="62"/>
      <point x="373" y="68"/>
      <point x="380" y="78" type="curve" smooth="yes"/>
      <point x="385" y="85"/>
      <point x="388" y="86"/>
    </contour>
    <contour>
      <point x="262" y="288" type="curve"/>
      <point x="232" y="248"/>
      <point x="106" y="102"/>
      <point x="70" y="63" type="curve"/>
      <point x="235" y="59" type="line"/>
      <point x="245" y="133"/>
      <point x="258" y="253"/>
    </contour>
  </outline>
</glyph>
<glyph name="five" format="1">
  <advance width="369"/>
  <unicode hex="0035"/>
  <outline>
    <contour>
      <point x="351" y="407" type="curve"/>
      <point x="345" y="395"/>
      <point x="328" y="362"/>
      <point x="323" y="348" type="curve" smooth="yes"/>
      <point x="317" y="329"/>
      <point x="303" y="322"/>
      <point x="284" y="330" type="curve" smooth="yes"/>
      <point x="262" y="339"/>
      <point x="214" y="349"/>
      <point x="158" y="349" type="curve" smooth="yes"/>
      <point x="148" y="349"/>
      <point x="144" y="347"/>
      <point x="141" y="336" type="curve" smooth="yes"/>
      <point x="136" y="320"/>
      <point x="116" y="249"/>
      <point x="112" y="231" type="curve"/>
      <point x="217" y="212"/>
      <point x="291" y="171"/>
      <point x="291" y="85" type="curve" smooth="yes"/>
      <point x="291" y="-73"/>
      <point x="138" y="-145"/>
      <point x="21" y="-178" type="curve" smooth="yes"/>
      <point x="11" y="-181"/>
      <point x="8" y="-178"/>
      <point x="4" y="-164" type="curve" smooth="yes"/>
      <point x="1" y="-151"/>
      <point x="8" y="-147"/>
      <point x="21" y="-143" type="curve" smooth="yes"/>
      <point x="108" y="-117"/>
      <point x="206" y="-36"/>
      <point x="206" y="74" type="curve" smooth="yes"/>
      <point x="206" y="143"/>
      <point x="156" y="182"/>
      <point x="35" y="201" type="curve" smooth="yes"/>
      <point x="27" y="202"/>
      <point x="26" y="208"/>
      <point x="28" y="215" type="curve" smooth="yes"/>
      <point x="38" y="256"/>
      <point x="57" y="336"/>
      <point x="65" y="369" type="curve" smooth="yes"/>
      <point x="69" y="386"/>
      <point x="83" y="390"/>
      <point x="97" y="390" type="curve" smooth="yes"/>
      <point x="159" y="391"/>
      <point x="205" y="393"/>
      <point x="267" y="396" type="curve" smooth="yes"/>
      <point x="292" y="397"/>
      <point x="303" y="403"/>
      <point x="316" y="415" type="curve" smooth="yes"/>
      <point x="324" y="423"/>
      <point x="332" y="427"/>
      <point x="345" y="427" type="curve" smooth="yes"/>
      <point x="359" y="427"/>
      <point x="359" y="420"/>
    </contour>
  </outline>
</glyph>
<glyph name="six" format="1">
  <advance width="457"/>
  <unicode hex="0036"/>
  <outline>
    <contour>
      <point x="405" y="620" type="curve" smooth="yes"/>
      <point x="408" y="610"/>
      <point x="404" y="604"/>
      <point x="388" y="597" type="curve" smooth="yes"/>
      <point x="235" y="530"/>
      <point x="167" y="430"/>
      <point x="133" y="332" type="curve"/>
      <point x="164" y="362"/>
      <point x="199" y="379"/>
      <point x="250" y="379" type="curve" smooth="yes"/>
      <point x="341" y="379"/>
      <point x="403" y="319"/>
      <point x="403" y="223" type="curve" smooth="yes"/>
      <point x="403" y="83"/>
      <point x="306" y="-10"/>
      <point x="196" y="-10" type="curve" smooth="yes"/>
      <point x="92" y="-10"/>
      <point x="23" y="52"/>
      <point x="23" y="185" type="curve" smooth="yes"/>
      <point x="23" y="415"/>
      <point x="193" y="577"/>
      <point x="388" y="631" type="curve" smooth="yes"/>
      <point x="399" y="634"/>
      <point x="402" y="630"/>
    </contour>
    <contour>
      <point x="319" y="217" type="curve" smooth="yes"/>
      <point x="319" y="288"/>
      <point x="290" y="336"/>
      <point x="226" y="336" type="curve" smooth="yes"/>
      <point x="157" y="336"/>
      <point x="99" y="265"/>
      <point x="99" y="164" type="curve" smooth="yes"/>
      <point x="99" y="79"/>
      <point x="136" y="35"/>
      <point x="204" y="35" type="curve" smooth="yes"/>
      <point x="274" y="35"/>
      <point x="319" y="105"/>
    </contour>
  </outline>
</glyph>
<glyph name="seven" format="1">
  <advance width="416"/>
  <unicode hex="0037"/>
  <outline>
    <contour>
      <point x="379" y="369" type="curve" smooth="yes"/>
      <point x="343" y="327"/>
      <point x="186" y="11"/>
      <point x="109" y="-153" type="curve"/>
      <point x="107" y="-162"/>
      <point x="23" y="-177"/>
      <point x="11" y="-177" type="curve" smooth="yes"/>
      <point x="3" y="-177"/>
      <point x="2" y="-172"/>
      <point x="9" y="-163" type="curve" smooth="yes"/>
      <point x="77" y="-72"/>
      <point x="174" y="83"/>
      <point x="292" y="320" type="curve" smooth="yes"/>
      <point x="294" y="325"/>
      <point x="299" y="333"/>
      <point x="289" y="333" type="curve" smooth="yes"/>
      <point x="259" y="333"/>
      <point x="98" y="321"/>
      <point x="42" y="312" type="curve" smooth="yes"/>
      <point x="30" y="310"/>
      <point x="23" y="314"/>
      <point x="24" y="323" type="curve"/>
      <point x="24" y="329"/>
      <point x="35" y="350"/>
      <point x="47" y="370" type="curve" smooth="yes"/>
      <point x="52" y="379"/>
      <point x="64" y="399"/>
      <point x="68" y="407" type="curve"/>
      <point x="74" y="415"/>
      <point x="76" y="419"/>
      <point x="83" y="419" type="curve" smooth="yes"/>
      <point x="94" y="419"/>
      <point x="98" y="417"/>
      <point x="104" y="408" type="curve" smooth="yes"/>
      <point x="109" y="399"/>
      <point x="119" y="395"/>
      <point x="145" y="394" type="curve" smooth="yes"/>
      <point x="226" y="390"/>
      <point x="301" y="391"/>
      <point x="370" y="390" type="curve" smooth="yes"/>
      <point x="384" y="390"/>
      <point x="386" y="378"/>
    </contour>
  </outline>
</glyph>
<glyph name="eight" format="1">
  <advance width="469"/>
  <unicode hex="0038"/>
  <outline>
    <contour>
      <point x="423" y="489" type="curve" smooth="yes"/>
      <point x="423" y="410"/>
      <point x="374" y="361"/>
      <point x="300" y="330" type="curve"/>
      <point x="365" y="294"/>
      <point x="406" y="247"/>
      <point x="406" y="177" type="curve" smooth="yes"/>
      <point x="406" y="71"/>
      <point x="311" y="-7"/>
      <point x="202" y="-7" type="curve" smooth="yes"/>
      <point x="96" y="-7"/>
      <point x="21" y="50"/>
      <point x="21" y="136" type="curve" smooth="yes"/>
      <point x="21" y="224"/>
      <point x="81" y="283"/>
      <point x="172" y="322" type="curve"/>
      <point x="122" y="352"/>
      <point x="89" y="388"/>
      <point x="89" y="447" type="curve" smooth="yes"/>
      <point x="89" y="550"/>
      <point x="181" y="608"/>
      <point x="270" y="608" type="curve" smooth="yes"/>
      <point x="358" y="608"/>
      <point x="423" y="565"/>
    </contour>
    <contour>
      <point x="355" y="480" type="curve" smooth="yes"/>
      <point x="355" y="529"/>
      <point x="322" y="564"/>
      <point x="267" y="564" type="curve" smooth="yes"/>
      <point x="208" y="564"/>
      <point x="161" y="523"/>
      <point x="161" y="466" type="curve" smooth="yes"/>
      <point x="161" y="419"/>
      <point x="182" y="390"/>
      <point x="255" y="352" type="curve"/>
      <point x="314" y="376"/>
      <point x="355" y="415"/>
    </contour>
    <contour>
      <point x="326" y="163" type="curve" smooth="yes"/>
      <point x="326" y="216"/>
      <point x="302" y="252"/>
      <point x="215" y="299" type="curve"/>
      <point x="130" y="262"/>
      <point x="99" y="210"/>
      <point x="99" y="141" type="curve" smooth="yes"/>
      <point x="99" y="79"/>
      <point x="141" y="38"/>
      <point x="206" y="38" type="curve" smooth="yes"/>
      <point x="268" y="38"/>
      <point x="326" y="83"/>
    </contour>
  </outline>
</glyph>
<glyph name="nine" format="1">
  <advance width="442"/>
  <unicode hex="0039"/>
  <outline>
    <contour>
      <point x="385" y="231" type="curve" smooth="yes"/>
      <point x="385" y="44"/>
      <point x="228" y="-128"/>
      <point x="47" y="-192" type="curve"/>
      <point x="39" y="-194"/>
      <point x="37" y="-180"/>
      <point x="36" y="-173" type="curve" smooth="yes"/>
      <point x="34" y="-164"/>
      <point x="40" y="-158"/>
      <point x="66" y="-145" type="curve" smooth="yes"/>
      <point x="152" y="-103"/>
      <point x="233" y="-15"/>
      <point x="270" y="62" type="curve"/>
      <point x="238" y="39"/>
      <point x="204" y="28"/>
      <point x="166" y="28" type="curve" smooth="yes"/>
      <point x="85" y="28"/>
      <point x="24" y="82"/>
      <point x="24" y="184" type="curve" smooth="yes"/>
      <point x="24" y="305"/>
      <point x="112" y="401"/>
      <point x="226" y="401" type="curve" smooth="yes"/>
      <point x="316" y="401"/>
      <point x="385" y="339"/>
    </contour>
    <contour>
      <point x="314" y="246" type="curve" smooth="yes"/>
      <point x="314" y="313"/>
      <point x="279" y="354"/>
      <point x="217" y="354" type="curve" smooth="yes"/>
      <point x="145" y="354"/>
      <point x="106" y="284"/>
      <point x="106" y="191" type="curve" smooth="yes"/>
      <point x="106" y="111"/>
      <point x="132" y="71"/>
      <point x="187" y="71" type="curve" smooth="yes"/>
      <point x="250" y="71"/>
      <point x="314" y="133"/>
    </contour>
  </outline>
</glyph>
<glyph name="colon" format="1">
  <advance width="246"/>
  <unicode hex="003A"/>
  <outline>
    <contour>
      <point x="193" y="324" type="curve" smooth="yes"/>
      <point x="193" y="284"/>
      <point x="164" y="252"/>
      <point x="130" y="252" type="curve" smooth="yes"/>
      <point x="90" y="252"/>
      <point x="74" y="273"/>
      <point x="74" y="315" type="curve" smooth="yes"/>
      <point x="74" y="354"/>
      <point x="105" y="383"/>
      <point x="139" y="383" type="curve" smooth="yes"/>
      <point x="177" y="383"/>
      <point x="193" y="366"/>
    </contour>
    <contour>
      <point x="153" y="58" type="curve" smooth="yes"/>
      <point x="153" y="18"/>
      <point x="125" y="-14"/>
      <point x="90" y="-14" type="curve" smooth="yes"/>
      <point x="50" y="-14"/>
      <point x="34" y="8"/>
      <point x="34" y="50" type="curve" smooth="yes"/>
      <point x="34" y="89"/>
      <point x="65" y="118"/>
      <point x="99" y="118" type="curve" smooth="yes"/>
      <point x="137" y="118"/>
      <point x="153" y="100"/>
    </contour>
  </outline>
</glyph>
<glyph name="semicolon" format="1">
  <advance width="246"/>
  <unicode hex="003B"/>
  <outline>
    <contour>
      <point x="187" y="324" type="curve" smooth="yes"/>
      <point x="187" y="284"/>
      <point x="159" y="252"/>
      <point x="125" y="252" type="curve" smooth="yes"/>
      <point x="85" y="252"/>
      <point x="68" y="273"/>
      <point x="68" y="315" type="curve" smooth="yes"/>
      <point x="68" y="354"/>
      <point x="100" y="383"/>
      <point x="133" y="383" type="curve" smooth="yes"/>
      <point x="172" y="383"/>
      <point x="187" y="366"/>
    </contour>
    <contour>
      <point x="159" y="36" type="curve" smooth="yes"/>
      <point x="159" y="-66"/>
      <point x="100" y="-129"/>
      <point x="27" y="-166" type="curve" smooth="yes"/>
      <point x="12" y="-174"/>
      <point x="6" y="-174"/>
      <point x="2" y="-155" type="curve" smooth="yes"/>
      <point x="-2" y="-140"/>
      <point x="3" y="-137"/>
      <point x="32" y="-120" type="curve" smooth="yes"/>
      <point x="58" y="-105"/>
      <point x="89" y="-72"/>
      <point x="89" y="-42" type="curve" smooth="yes"/>
      <point x="89" y="-27"/>
      <point x="82" y="-19"/>
      <point x="66" y="-7" type="curve" smooth="yes"/>
      <point x="45" y="9"/>
      <point x="33" y="22"/>
      <point x="33" y="45" type="curve" smooth="yes"/>
      <point x="33" y="76"/>
      <point x="54" y="108"/>
      <point x="96" y="108" type="curve" smooth="yes"/>
      <point x="140" y="108"/>
      <point x="159" y="74"/>
    </contour>
  </outline>
</glyph>
<glyph name="less" format="1">
  <advance width="392"/>
  <unicode hex="003C"/>
  <outline>
    <contour>
      <point x="310" y="-6" type="curve" smooth="yes"/>
      <point x="305" y="-13"/>
      <point x="299" y="-13"/>
      <point x="287" y="-4" type="curve" smooth="yes"/>
      <point x="34" y="170" type="line" smooth="yes"/>
      <point x="15" y="183"/>
      <point x="17" y="190"/>
      <point x="34" y="202" type="curve" smooth="yes"/>
      <point x="284" y="374" type="line" smooth="yes"/>
      <point x="299" y="384"/>
      <point x="304" y="386"/>
      <point x="309" y="379" type="curve" smooth="yes"/>
      <point x="316" y="369"/>
      <point x="312" y="365"/>
      <point x="296" y="350" type="curve" smooth="yes"/>
      <point x="113" y="186" type="line"/>
      <point x="299" y="19" type="line" smooth="yes"/>
      <point x="313" y="6"/>
      <point x="315" y="2"/>
    </contour>
  </outline>
</glyph>
<glyph name="equal" format="1">
  <advance width="529"/>
  <unicode hex="003D"/>
  <outline>
    <contour>
      <point x="416" y="294" type="curve" smooth="yes"/>
      <point x="416" y="278"/>
      <point x="403" y="258"/>
      <point x="387" y="258" type="curve" smooth="yes"/>
      <point x="291" y="258"/>
      <point x="156" y="258"/>
      <point x="81" y="258" type="curve" smooth="yes"/>
      <point x="74" y="258"/>
      <point x="73" y="267"/>
      <point x="73" y="275" type="curve" smooth="yes"/>
      <point x="73" y="298"/>
      <point x="86" y="303"/>
      <point x="101" y="303" type="curve" smooth="yes"/>
      <point x="182" y="303"/>
      <point x="316" y="303"/>
      <point x="407" y="303" type="curve" smooth="yes"/>
      <point x="414" y="303"/>
      <point x="416" y="301"/>
    </contour>
    <contour>
      <point x="416" y="121" type="curve" smooth="yes"/>
      <point x="416" y="105"/>
      <point x="403" y="85"/>
      <point x="387" y="85" type="curve" smooth="yes"/>
      <point x="291" y="85"/>
      <point x="156" y="85"/>
      <point x="81" y="85" type="curve" smooth="yes"/>
      <point x="74" y="85"/>
      <point x="73" y="94"/>
      <point x="73" y="103" type="curve" smooth="yes"/>
      <point x="73" y="125"/>
      <point x="86" y="131"/>
      <point x="101" y="131" type="curve" smooth="yes"/>
      <point x="182" y="131"/>
      <point x="316" y="131"/>
      <point x="407" y="131" type="curve" smooth="yes"/>
      <point x="414" y="131"/>
      <point x="416" y="129"/>
    </contour>
  </outline>
</glyph>
<glyph name="greater" format="1">
  <advance width="392"/>
  <unicode hex="003E"/>
  <outline>
    <contour>
      <point x="319" y="170" type="curve" smooth="yes"/>
      <point x="69" y="-2" type="line" smooth="yes"/>
      <point x="54" y="-12"/>
      <point x="49" y="-14"/>
      <point x="44" y="-7" type="curve" smooth="yes"/>
      <point x="37" y="3"/>
      <point x="41" y="7"/>
      <point x="57" y="22" type="curve" smooth="yes"/>
      <point x="240" y="186" type="line"/>
      <point x="54" y="353" type="line" smooth="yes"/>
      <point x="40" y="366"/>
      <point x="38" y="370"/>
      <point x="43" y="378" type="curve" smooth="yes"/>
      <point x="48" y="385"/>
      <point x="54" y="385"/>
      <point x="66" y="376" type="curve" smooth="yes"/>
      <point x="319" y="202" type="line" smooth="yes"/>
      <point x="338" y="189"/>
      <point x="336" y="182"/>
    </contour>
  </outline>
</glyph>
<glyph name="question" format="1">
  <advance width="369"/>
  <unicode hex="003F"/>
  <outline>
    <contour>
      <point x="352" y="512" type="curve" smooth="yes"/>
      <point x="352" y="422"/>
      <point x="315" y="387"/>
      <point x="229" y="350" type="curve" smooth="yes"/>
      <point x="163" y="322" type="line" smooth="yes"/>
      <point x="139" y="312"/>
      <point x="127" y="302"/>
      <point x="127" y="284" type="curve" smooth="yes"/>
      <point x="127" y="262"/>
      <point x="140" y="254"/>
      <point x="193" y="221" type="curve" smooth="yes"/>
      <point x="196" y="219"/>
      <point x="199" y="215"/>
      <point x="193" y="201" type="curve" smooth="yes"/>
      <point x="185" y="184"/>
      <point x="180" y="180"/>
      <point x="175" y="183" type="curve"/>
      <point x="102" y="218"/>
      <point x="66" y="247"/>
      <point x="66" y="298" type="curve" smooth="yes"/>
      <point x="66" y="351"/>
      <point x="95" y="374"/>
      <point x="158" y="400" type="curve" smooth="yes"/>
      <point x="231" y="430" type="line" smooth="yes"/>
      <point x="285" y="452"/>
      <point x="305" y="475"/>
      <point x="305" y="514" type="curve" smooth="yes"/>
      <point x="305" y="561"/>
      <point x="267" y="604"/>
      <point x="203" y="604" type="curve" smooth="yes"/>
      <point x="181" y="604"/>
      <point x="172" y="594"/>
      <point x="155" y="566" type="curve" smooth="yes"/>
      <point x="143" y="546"/>
      <point x="131" y="538"/>
      <point x="114" y="538" type="curve" smooth="yes"/>
      <point x="88" y="538"/>
      <point x="73" y="554"/>
      <point x="73" y="591" type="curve" smooth="yes"/>
      <point x="73" y="626"/>
      <point x="115" y="654"/>
      <point x="177" y="654" type="curve" smooth="yes"/>
      <point x="291" y="654"/>
      <point x="352" y="580"/>
    </contour>
    <contour>
      <point x="142" y="53" type="curve" smooth="yes"/>
      <point x="142" y="16"/>
      <point x="116" y="-13"/>
      <point x="85" y="-13" type="curve" smooth="yes"/>
      <point x="49" y="-13"/>
      <point x="34" y="6"/>
      <point x="34" y="44" type="curve" smooth="yes"/>
      <point x="34" y="80"/>
      <point x="62" y="107"/>
      <point x="93" y="107" type="curve" smooth="yes"/>
      <point x="128" y="107"/>
      <point x="142" y="91"/>
    </contour>
  </outline>
</glyph>
<glyph name="at" format="1">
  <advance width="980"/>
  <unicode hex="0040"/>
  <outline>
    <contour>
      <point x="912" y="298" type="curve" smooth="yes"/>
      <point x="912" y="115"/>
      <point x="812" y="28"/>
      <point x="708" y="28" type="curve" smooth="yes"/>
      <point x="628" y="28"/>
      <point x="576" y="71"/>
      <point x="574" y="150" type="curve" smooth="yes"/>
      <point x="574" y="160"/>
      <point x="562" y="164"/>
      <point x="555" y="153" type="curve" smooth="yes"/>
      <point x="522" y="100"/>
      <point x="464" y="28"/>
      <point x="401" y="28" type="curve" smooth="yes"/>
      <point x="338" y="28"/>
      <point x="299" y="76"/>
      <point x="299" y="160" type="curve" smooth="yes"/>
      <point x="299" y="246"/>
      <point x="332" y="317"/>
      <point x="373" y="365" type="curve" smooth="yes"/>
      <point x="431" y="432"/>
      <point x="479" y="454"/>
      <point x="523" y="454" type="curve" smooth="yes"/>
      <point x="556" y="454"/>
      <point x="587" y="447"/>
      <point x="605" y="441" type="curve" smooth="yes"/>
      <point x="632" y="431"/>
      <point x="639" y="433"/>
      <point x="646" y="441" type="curve"/>
      <point x="669" y="463"/>
      <point x="672" y="466"/>
      <point x="682" y="459" type="curve"/>
      <point x="691" y="455"/>
      <point x="690" y="449"/>
      <point x="679" y="417" type="curve" smooth="yes"/>
      <point x="654" y="341"/>
      <point x="637" y="228"/>
      <point x="637" y="185" type="curve" smooth="yes"/>
      <point x="637" y="112"/>
      <point x="670" y="70"/>
      <point x="730" y="70" type="curve" smooth="yes"/>
      <point x="796" y="70"/>
      <point x="871" y="138"/>
      <point x="871" y="287" type="curve" smooth="yes"/>
      <point x="871" y="518"/>
      <point x="736" y="625"/>
      <point x="511" y="625" type="curve" smooth="yes"/>
      <point x="294" y="625"/>
      <point x="135" y="454"/>
      <point x="135" y="223" type="curve" smooth="yes"/>
      <point x="135" y="-13"/>
      <point x="282" y="-166"/>
      <point x="521" y="-166" type="curve" smooth="yes"/>
      <point x="613" y="-166"/>
      <point x="717" y="-131"/>
      <point x="804" y="-84" type="curve" smooth="yes"/>
      <point x="815" y="-78"/>
      <point x="837" y="-126"/>
      <point x="829" y="-129" type="curve" smooth="yes"/>
      <point x="716" y="-175"/>
      <point x="616" y="-196"/>
      <point x="512" y="-196" type="curve" smooth="yes"/>
      <point x="238" y="-196"/>
      <point x="58" y="-50"/>
      <point x="58" y="215" type="curve" smooth="yes"/>
      <point x="58" y="468"/>
      <point x="260" y="656"/>
      <point x="519" y="656" type="curve" smooth="yes"/>
      <point x="751" y="656"/>
      <point x="912" y="535"/>
    </contour>
    <contour>
      <point x="590" y="346" type="curve" smooth="yes"/>
      <point x="590" y="391"/>
      <point x="545" y="406"/>
      <point x="500" y="406" type="curve" smooth="yes"/>
      <point x="434" y="406"/>
      <point x="375" y="324"/>
      <point x="375" y="180" type="curve" smooth="yes"/>
      <point x="375" y="118"/>
      <point x="397" y="89"/>
      <point x="437" y="89" type="curve" smooth="yes"/>
      <point x="509" y="89"/>
      <point x="590" y="261"/>
    </contour>
  </outline>
</glyph>
<glyph name="B" format="1">
  <advance width="609"/>
  <unicode hex="0042"/>
  <outline>
    <contour>
      <point x="525" y="201" type="curve" smooth="yes"/>
      <point x="525" y="53"/>
      <point x="410" y="-4"/>
      <point x="261" y="-4" type="curve" smooth="yes"/>
      <point x="231" y="-4"/>
      <point x="168" y="2"/>
      <point x="121" y="2" type="curve" smooth="yes"/>
      <point x="95" y="2"/>
      <point x="69" y="0"/>
      <point x="46" y="-4" type="curve" smooth="yes"/>
      <point x="28" y="-8"/>
      <point x="27" y="-6"/>
      <point x="26" y="6" type="curve" smooth="yes"/>
      <point x="26" y="16"/>
      <point x="27" y="19"/>
      <point x="49" y="28" type="curve" smooth="yes"/>
      <point x="81" y="41"/>
      <point x="97" y="49"/>
      <point x="102" y="90" type="curve" smooth="yes"/>
      <point x="158" y="548" type="line" smooth="yes"/>
      <point x="162" y="584"/>
      <point x="143" y="599"/>
      <point x="115" y="605" type="curve" smooth="yes"/>
      <point x="93" y="610"/>
      <point x="89" y="611"/>
      <point x="91" y="622" type="curve" smooth="yes"/>
      <point x="93" y="640"/>
      <point x="98" y="643"/>
      <point x="122" y="639" type="curve" smooth="yes"/>
      <point x="138" y="637"/>
      <point x="162" y="637"/>
      <point x="190" y="637" type="curve" smooth="yes"/>
      <point x="245" y="637"/>
      <point x="283" y="639"/>
      <point x="315" y="639" type="curve" smooth="yes"/>
      <point x="438" y="639"/>
      <point x="517" y="593"/>
      <point x="517" y="506" type="curve" smooth="yes"/>
      <point x="517" y="420"/>
      <point x="446" y="372"/>
      <point x="384" y="349" type="curve" smooth="yes"/>
      <point x="376" y="346"/>
      <point x="377" y="343"/>
      <point x="384" y="342" type="curve" smooth="yes"/>
      <point x="456" y="331"/>
      <point x="525" y="289"/>
    </contour>
    <contour>
      <point x="422" y="497" type="curve" smooth="yes"/>
      <point x="422" y="573"/>
      <point x="382" y="605"/>
      <point x="298" y="605" type="curve" smooth="yes"/>
      <point x="253" y="605"/>
      <point x="247" y="597"/>
      <point x="245" y="578" type="curve" smooth="yes"/>
      <point x="218" y="366" type="line"/>
      <point x="235" y="366"/>
      <point x="241" y="366"/>
      <point x="260" y="366" type="curve" smooth="yes"/>
      <point x="365" y="366"/>
      <point x="422" y="406"/>
    </contour>
    <contour>
      <point x="429" y="189" type="curve" smooth="yes"/>
      <point x="429" y="289"/>
      <point x="361" y="327"/>
      <point x="277" y="327" type="curve" smooth="yes"/>
      <point x="253" y="327"/>
      <point x="234" y="326"/>
      <point x="213" y="322" type="curve"/>
      <point x="183" y="80" type="line" smooth="yes"/>
      <point x="179" y="49"/>
      <point x="214" y="33"/>
      <point x="274" y="33" type="curve" smooth="yes"/>
      <point x="371" y="33"/>
      <point x="429" y="82"/>
    </contour>
  </outline>
</glyph>
<glyph name="C" format="1">
  <advance width="709"/>
  <unicode hex="0043"/>
  <outline>
    <contour>
      <point x="656" y="596" type="curve" smooth="yes"/>
      <point x="655" y="567"/>
      <point x="650" y="512"/>
      <point x="646" y="475" type="curve" smooth="yes"/>
      <point x="645" y="464"/>
      <point x="636" y="460"/>
      <point x="620" y="459" type="curve" smooth="yes"/>
      <point x="606" y="458"/>
      <point x="602" y="462"/>
      <point x="600" y="471" type="curve" smooth="yes"/>
      <point x="580" y="569"/>
      <point x="534" y="612"/>
      <point x="436" y="612" type="curve" smooth="yes"/>
      <point x="281" y="612"/>
      <point x="153" y="471"/>
      <point x="153" y="269" type="curve" smooth="yes"/>
      <point x="153" y="127"/>
      <point x="230" y="28"/>
      <point x="370" y="28" type="curve" smooth="yes"/>
      <point x="473" y="28"/>
      <point x="538" y="79"/>
      <point x="585" y="193" type="curve" smooth="yes"/>
      <point x="590" y="206"/>
      <point x="595" y="213"/>
      <point x="616" y="208" type="curve"/>
      <point x="633" y="206"/>
      <point x="635" y="203"/>
      <point x="632" y="188" type="curve" smooth="yes"/>
      <point x="623" y="150"/>
      <point x="608" y="92"/>
      <point x="593" y="60" type="curve" smooth="yes"/>
      <point x="578" y="28"/>
      <point x="498" y="-15"/>
      <point x="358" y="-15" type="curve" smooth="yes"/>
      <point x="163" y="-15"/>
      <point x="55" y="87"/>
      <point x="55" y="257" type="curve" smooth="yes"/>
      <point x="55" y="485"/>
      <point x="243" y="654"/>
      <point x="466" y="654" type="curve" smooth="yes"/>
      <point x="530" y="654"/>
      <point x="568" y="646"/>
      <point x="600" y="635" type="curve" smooth="yes"/>
      <point x="640" y="621"/>
      <point x="657" y="612"/>
    </contour>
  </outline>
</glyph>
<glyph name="D" format="1">
  <advance width="763"/>
  <unicode hex="0044"/>
  <outline>
    <contour>
      <point x="707" y="392" type="curve" smooth="yes"/>
      <point x="707" y="107"/>
      <point x="526" y="-6"/>
      <point x="279" y="-6" type="curve" smooth="yes"/>
      <point x="244" y="-6"/>
      <point x="190" y="0"/>
      <point x="133" y="0" type="curve" smooth="yes"/>
      <point x="106" y="0"/>
      <point x="77" y="-1"/>
      <point x="46" y="-4" type="curve" smooth="yes"/>
      <point x="29" y="-5"/>
      <point x="25" y="-3"/>
      <point x="27" y="13" type="curve" smooth="yes"/>
      <point x="28" y="23"/>
      <point x="33" y="25"/>
      <point x="50" y="29" type="curve" smooth="yes"/>
      <point x="93" y="39"/>
      <point x="97" y="45"/>
      <point x="103" y="97" type="curve" smooth="yes"/>
      <point x="159" y="548" type="line" smooth="yes"/>
      <point x="163" y="581"/>
      <point x="158" y="588"/>
      <point x="118" y="597" type="curve" smooth="yes"/>
      <point x="88" y="603"/>
      <point x="87" y="605"/>
      <point x="87" y="620" type="curve" smooth="yes"/>
      <point x="87" y="634"/>
      <point x="92" y="635"/>
      <point x="119" y="637" type="curve" smooth="yes"/>
      <point x="164" y="640"/>
      <point x="267" y="644"/>
      <point x="379" y="644" type="curve" smooth="yes"/>
      <point x="519" y="644"/>
      <point x="571" y="612"/>
      <point x="616" y="581" type="curve" smooth="yes"/>
      <point x="660" y="551"/>
      <point x="707" y="485"/>
    </contour>
    <contour>
      <point x="609" y="372" type="curve" smooth="yes"/>
      <point x="609" y="455"/>
      <point x="589" y="513"/>
      <point x="544" y="551" type="curve" smooth="yes"/>
      <point x="504" y="584"/>
      <point x="441" y="603"/>
      <point x="353" y="603" type="curve" smooth="yes"/>
      <point x="256" y="603"/>
      <point x="247" y="594"/>
      <point x="244" y="572" type="curve" smooth="yes"/>
      <point x="188" y="120" type="line" smooth="yes"/>
      <point x="180" y="57"/>
      <point x="202" y="40"/>
      <point x="298" y="40" type="curve" smooth="yes"/>
      <point x="498" y="40"/>
      <point x="609" y="148"/>
    </contour>
  </outline>
</glyph>
<glyph name="E" format="1">
  <advance width="588"/>
  <unicode hex="0045"/>
  <outline>
    <contour>
      <point x="536" y="635" type="curve" smooth="yes"/>
      <point x="526" y="607"/>
      <point x="519" y="562"/>
      <point x="514" y="525" type="curve" smooth="yes"/>
      <point x="513" y="514"/>
      <point x="509" y="510"/>
      <point x="498" y="510" type="curve" smooth="yes"/>
      <point x="493" y="510"/>
      <point x="485" y="512"/>
      <point x="482" y="523" type="curve" smooth="yes"/>
      <point x="473" y="561"/>
      <point x="467" y="586"/>
      <point x="426" y="593" type="curve" smooth="yes"/>
      <point x="401" y="598"/>
      <point x="308" y="597"/>
      <point x="268" y="597" type="curve" smooth="yes"/>
      <point x="245" y="597"/>
      <point x="246" y="590"/>
      <point x="244" y="577" type="curve" smooth="yes"/>
      <point x="244" y="577"/>
      <point x="226" y="430"/>
      <point x="218" y="373" type="curve" smooth="yes"/>
      <point x="217" y="362"/>
      <point x="218" y="361"/>
      <point x="231" y="361" type="curve" smooth="yes"/>
      <point x="268" y="362"/>
      <point x="317" y="362"/>
      <point x="355" y="367" type="curve" smooth="yes"/>
      <point x="375" y="369"/>
      <point x="381" y="384"/>
      <point x="393" y="422" type="curve" smooth="yes"/>
      <point x="397" y="436"/>
      <point x="404" y="441"/>
      <point x="417" y="437" type="curve" smooth="yes"/>
      <point x="426" y="435"/>
      <point x="431" y="432"/>
      <point x="428" y="422" type="curve" smooth="yes"/>
      <point x="416" y="384"/>
      <point x="400" y="285"/>
      <point x="398" y="249" type="curve" smooth="yes"/>
      <point x="397" y="241"/>
      <point x="393" y="237"/>
      <point x="382" y="235" type="curve" smooth="yes"/>
      <point x="372" y="234"/>
      <point x="366" y="240"/>
      <point x="366" y="251" type="curve" smooth="yes"/>
      <point x="366" y="301"/>
      <point x="361" y="312"/>
      <point x="336" y="315" type="curve" smooth="yes"/>
      <point x="318" y="318"/>
      <point x="244" y="320"/>
      <point x="221" y="320" type="curve" smooth="yes"/>
      <point x="214" y="320"/>
      <point x="212" y="318"/>
      <point x="212" y="313" type="curve"/>
      <point x="207" y="270"/>
      <point x="185" y="100"/>
      <point x="185" y="100" type="curve" smooth="yes"/>
      <point x="178" y="48"/>
      <point x="202" y="42"/>
      <point x="316" y="42" type="curve" smooth="yes"/>
      <point x="403" y="42"/>
      <point x="444" y="71"/>
      <point x="471" y="127" type="curve" smooth="yes"/>
      <point x="477" y="138"/>
      <point x="484" y="145"/>
      <point x="495" y="140" type="curve"/>
      <point x="508" y="137"/>
      <point x="508" y="131"/>
      <point x="505" y="122" type="curve" smooth="yes"/>
      <point x="493" y="89"/>
      <point x="481" y="40"/>
      <point x="474" y="5" type="curve" smooth="yes"/>
      <point x="473" y="-2"/>
      <point x="467" y="-4"/>
      <point x="444" y="-3" type="curve" smooth="yes"/>
      <point x="395" y="0"/>
      <point x="329" y="1"/>
      <point x="263" y="1" type="curve" smooth="yes"/>
      <point x="183" y="1"/>
      <point x="102" y="-1"/>
      <point x="46" y="-4" type="curve" smooth="yes"/>
      <point x="28" y="-5"/>
      <point x="25" y="-2"/>
      <point x="26" y="13" type="curve"/>
      <point x="28" y="23"/>
      <point x="33" y="26"/>
      <point x="49" y="28" type="curve" smooth="yes"/>
      <point x="86" y="32"/>
      <point x="96" y="36"/>
      <point x="101" y="80" type="curve" smooth="yes"/>
      <point x="156" y="530" type="line" smooth="yes"/>
      <point x="163" y="591"/>
      <point x="160" y="595"/>
      <point x="115" y="611" type="curve" smooth="yes"/>
      <point x="100" y="616"/>
      <point x="100" y="623"/>
      <point x="103" y="635" type="curve"/>
      <point x="108" y="647"/>
      <point x="112" y="647"/>
      <point x="137" y="643" type="curve" smooth="yes"/>
      <point x="157" y="639"/>
      <point x="218" y="638"/>
      <point x="287" y="638" type="curve" smooth="yes"/>
      <point x="365" y="638"/>
      <point x="454" y="640"/>
      <point x="508" y="644" type="curve" smooth="yes"/>
      <point x="531" y="645"/>
      <point x="541" y="648"/>
    </contour>
  </outline>
</glyph>
<glyph name="F" format="1">
  <advance width="536"/>
  <unicode hex="0046"/>
  <outline>
    <contour>
      <point x="526" y="635" type="curve"/>
      <point x="517" y="607"/>
      <point x="508" y="553"/>
      <point x="504" y="525" type="curve"/>
      <point x="501" y="514"/>
      <point x="498" y="510"/>
      <point x="488" y="510" type="curve" smooth="yes"/>
      <point x="482" y="510"/>
      <point x="476" y="512"/>
      <point x="472" y="523" type="curve"/>
      <point x="461" y="568"/>
      <point x="449" y="588"/>
      <point x="415" y="593" type="curve" smooth="yes"/>
      <point x="390" y="597"/>
      <point x="323" y="597"/>
      <point x="282" y="597" type="curve" smooth="yes"/>
      <point x="248" y="597"/>
      <point x="246" y="590"/>
      <point x="244" y="577" type="curve" smooth="yes"/>
      <point x="244" y="577"/>
      <point x="225" y="414"/>
      <point x="217" y="356" type="curve" smooth="yes"/>
      <point x="216" y="346"/>
      <point x="216" y="345"/>
      <point x="229" y="345" type="curve" smooth="yes"/>
      <point x="266" y="346"/>
      <point x="311" y="346"/>
      <point x="349" y="351" type="curve" smooth="yes"/>
      <point x="370" y="353"/>
      <point x="375" y="357"/>
      <point x="388" y="406" type="curve" smooth="yes"/>
      <point x="392" y="420"/>
      <point x="399" y="424"/>
      <point x="412" y="421" type="curve" smooth="yes"/>
      <point x="422" y="419"/>
      <point x="426" y="416"/>
      <point x="423" y="406" type="curve" smooth="yes"/>
      <point x="411" y="368"/>
      <point x="397" y="269"/>
      <point x="393" y="233" type="curve" smooth="yes"/>
      <point x="392" y="225"/>
      <point x="389" y="220"/>
      <point x="376" y="219" type="curve" smooth="yes"/>
      <point x="368" y="218"/>
      <point x="363" y="224"/>
      <point x="362" y="234" type="curve" smooth="yes"/>
      <point x="359" y="282"/>
      <point x="348" y="296"/>
      <point x="325" y="299" type="curve" smooth="yes"/>
      <point x="307" y="301"/>
      <point x="242" y="303"/>
      <point x="218" y="303" type="curve" smooth="yes"/>
      <point x="212" y="303"/>
      <point x="210" y="301"/>
      <point x="210" y="297" type="curve"/>
      <point x="204" y="254"/>
      <point x="191" y="152"/>
      <point x="183" y="77" type="curve" smooth="yes"/>
      <point x="179" y="43"/>
      <point x="198" y="38"/>
      <point x="253" y="31" type="curve" smooth="yes"/>
      <point x="270" y="29"/>
      <point x="274" y="25"/>
      <point x="269" y="10" type="curve"/>
      <point x="266" y="-4"/>
      <point x="250" y="-5"/>
      <point x="228" y="-3" type="curve" smooth="yes"/>
      <point x="132" y="5"/>
      <point x="93" y="3"/>
      <point x="46" y="-4" type="curve" smooth="yes"/>
      <point x="28" y="-6"/>
      <point x="25" y="-2"/>
      <point x="26" y="13" type="curve"/>
      <point x="28" y="23"/>
      <point x="33" y="26"/>
      <point x="49" y="28" type="curve" smooth="yes"/>
      <point x="78" y="31"/>
      <point x="98" y="55"/>
      <point x="105" y="112" type="curve" smooth="yes"/>
      <point x="156" y="530" type="line" smooth="yes"/>
      <point x="161" y="572"/>
      <point x="153" y="592"/>
      <point x="115" y="611" type="curve" smooth="yes"/>
      <point x="101" y="618"/>
      <point x="100" y="623"/>
      <point x="103" y="635" type="curve"/>
      <point x="108" y="647"/>
      <point x="112" y="647"/>
      <point x="137" y="643" type="curve" smooth="yes"/>
      <point x="157" y="639"/>
      <point x="217" y="638"/>
      <point x="284" y="638" type="curve" smooth="yes"/>
      <point x="359" y="638"/>
      <point x="444" y="641"/>
      <point x="497" y="644" type="curve" smooth="yes"/>
      <point x="520" y="646"/>
      <point x="532" y="648"/>
    </contour>
  </outline>
</glyph>
<glyph name="G" format="1">
  <advance width="761"/>
  <unicode hex="0047"/>
  <outline>
    <contour>
      <point x="721" y="292" type="curve"/>
      <point x="719" y="280"/>
      <point x="717" y="275"/>
      <point x="697" y="272" type="curve" smooth="yes"/>
      <point x="650" y="265"/>
      <point x="643" y="262"/>
      <point x="640" y="240" type="curve" smooth="yes"/>
      <point x="634" y="193"/>
      <point x="627" y="140"/>
      <point x="623" y="109" type="curve" smooth="yes"/>
      <point x="616" y="62"/>
      <point x="513" y="-14"/>
      <point x="361" y="-14" type="curve" smooth="yes"/>
      <point x="186" y="-14"/>
      <point x="55" y="94"/>
      <point x="55" y="262" type="curve" smooth="yes"/>
      <point x="55" y="487"/>
      <point x="229" y="656"/>
      <point x="454" y="656" type="curve" smooth="yes"/>
      <point x="536" y="656"/>
      <point x="574" y="649"/>
      <point x="615" y="635" type="curve" smooth="yes"/>
      <point x="647" y="624"/>
      <point x="666" y="615"/>
      <point x="666" y="598" type="curve" smooth="yes"/>
      <point x="667" y="569"/>
      <point x="662" y="525"/>
      <point x="658" y="488" type="curve" smooth="yes"/>
      <point x="656" y="475"/>
      <point x="653" y="472"/>
      <point x="636" y="471" type="curve" smooth="yes"/>
      <point x="617" y="469"/>
      <point x="615" y="471"/>
      <point x="612" y="483" type="curve" smooth="yes"/>
      <point x="586" y="577"/>
      <point x="544" y="613"/>
      <point x="430" y="613" type="curve" smooth="yes"/>
      <point x="265" y="613"/>
      <point x="154" y="487"/>
      <point x="154" y="278" type="curve" smooth="yes"/>
      <point x="154" y="137"/>
      <point x="235" y="32"/>
      <point x="383" y="32" type="curve" smooth="yes"/>
      <point x="467" y="32"/>
      <point x="534" y="63"/>
      <point x="542" y="110" type="curve" smooth="yes"/>
      <point x="546" y="136"/>
      <point x="551" y="172"/>
      <point x="554" y="198" type="curve" smooth="yes"/>
      <point x="560" y="241"/>
      <point x="552" y="259"/>
      <point x="503" y="274" type="curve" smooth="yes"/>
      <point x="479" y="281"/>
      <point x="478" y="285"/>
      <point x="480" y="293" type="curve" smooth="yes"/>
      <point x="484" y="309"/>
      <point x="486" y="313"/>
      <point x="511" y="310" type="curve" smooth="yes"/>
      <point x="594" y="302"/>
      <point x="661" y="304"/>
      <point x="701" y="309" type="curve" smooth="yes"/>
      <point x="720" y="312"/>
      <point x="722" y="310"/>
    </contour>
  </outline>
</glyph>
<glyph name="H" format="1">
  <advance width="818"/>
  <unicode hex="0048"/>
  <outline>
    <contour>
      <point x="779" y="627" type="curve"/>
      <point x="777" y="616"/>
      <point x="776" y="614"/>
      <point x="756" y="612" type="curve" smooth="yes"/>
      <point x="735" y="609"/>
      <point x="714" y="602"/>
      <point x="709" y="561" type="curve" smooth="yes"/>
      <point x="649" y="80" type="line" smooth="yes"/>
      <point x="645" y="46"/>
      <point x="669" y="38"/>
      <point x="709" y="28" type="curve" smooth="yes"/>
      <point x="727" y="24"/>
      <point x="728" y="19"/>
      <point x="727" y="13" type="curve" smooth="yes"/>
      <point x="725" y="-3"/>
      <point x="724" y="-6"/>
      <point x="704" y="-4" type="curve" smooth="yes"/>
      <point x="658" y="0"/>
      <point x="608" y="4"/>
      <point x="522" y="0" type="curve" smooth="yes"/>
      <point x="497" y="-1"/>
      <point x="496" y="2"/>
      <point x="497" y="17" type="curve"/>
      <point x="499" y="28"/>
      <point x="500" y="33"/>
      <point x="523" y="36" type="curve" smooth="yes"/>
      <point x="542" y="39"/>
      <point x="563" y="49"/>
      <point x="567" y="80" type="curve" smooth="yes"/>
      <point x="591" y="272" type="line" smooth="yes"/>
      <point x="594" y="299"/>
      <point x="593" y="307"/>
      <point x="569" y="307" type="curve" smooth="yes"/>
      <point x="241" y="307" type="line" smooth="yes"/>
      <point x="212" y="307"/>
      <point x="212" y="302"/>
      <point x="208" y="274" type="curve" smooth="yes"/>
      <point x="183" y="80" type="line" smooth="yes"/>
      <point x="179" y="49"/>
      <point x="220" y="40"/>
      <point x="235" y="36" type="curve" smooth="yes"/>
      <point x="257" y="29"/>
      <point x="259" y="27"/>
      <point x="258" y="17" type="curve" smooth="yes"/>
      <point x="255" y="0"/>
      <point x="253" y="-1"/>
      <point x="229" y="0" type="curve" smooth="yes"/>
      <point x="145" y="4"/>
      <point x="93" y="0"/>
      <point x="46" y="-4" type="curve" smooth="yes"/>
      <point x="26" y="-6"/>
      <point x="25" y="-3"/>
      <point x="27" y="13" type="curve" smooth="yes"/>
      <point x="28" y="24"/>
      <point x="33" y="26"/>
      <point x="50" y="28" type="curve" smooth="yes"/>
      <point x="71" y="30"/>
      <point x="96" y="36"/>
      <point x="101" y="80" type="curve" smooth="yes"/>
      <point x="159" y="549" type="line" smooth="yes"/>
      <point x="163" y="585"/>
      <point x="132" y="600"/>
      <point x="104" y="606" type="curve" smooth="yes"/>
      <point x="80" y="612"/>
      <point x="79" y="612"/>
      <point x="80" y="623" type="curve" smooth="yes"/>
      <point x="82" y="639"/>
      <point x="87" y="641"/>
      <point x="112" y="640" type="curve" smooth="yes"/>
      <point x="157" y="637"/>
      <point x="253" y="636"/>
      <point x="299" y="640" type="curve" smooth="yes"/>
      <point x="318" y="642"/>
      <point x="321" y="639"/>
      <point x="319" y="623" type="curve" smooth="yes"/>
      <point x="318" y="616"/>
      <point x="317" y="613"/>
      <point x="296" y="609" type="curve" smooth="yes"/>
      <point x="256" y="600"/>
      <point x="246" y="592"/>
      <point x="242" y="556" type="curve" smooth="yes"/>
      <point x="222" y="391" type="line" smooth="yes"/>
      <point x="219" y="364"/>
      <point x="225" y="357"/>
      <point x="249" y="357" type="curve" smooth="yes"/>
      <point x="572" y="357" type="line" smooth="yes"/>
      <point x="594" y="357"/>
      <point x="602" y="357"/>
      <point x="606" y="393" type="curve" smooth="yes"/>
      <point x="627" y="561" type="line" smooth="yes"/>
      <point x="631" y="592"/>
      <point x="619" y="598"/>
      <point x="571" y="608" type="curve" smooth="yes"/>
      <point x="545" y="614"/>
      <point x="546" y="617"/>
      <point x="546" y="625" type="curve"/>
      <point x="548" y="642"/>
      <point x="551" y="646"/>
      <point x="577" y="643" type="curve" smooth="yes"/>
      <point x="660" y="635"/>
      <point x="713" y="644"/>
      <point x="761" y="645" type="curve" smooth="yes"/>
      <point x="780" y="645"/>
      <point x="780" y="643"/>
    </contour>
  </outline>
</glyph>
<glyph name="I" format="1">
  <advance width="372"/>
  <unicode hex="0049"/>
  <outline>
    <contour>
      <point x="326" y="632" type="curve" smooth="yes"/>
      <point x="325" y="623"/>
      <point x="324" y="620"/>
      <point x="299" y="612" type="curve" smooth="yes"/>
      <point x="265" y="602"/>
      <point x="252" y="597"/>
      <point x="248" y="566" type="curve" smooth="yes"/>
      <point x="189" y="91" type="line" smooth="yes"/>
      <point x="184" y="54"/>
      <point x="215" y="42"/>
      <point x="250" y="35" type="curve" smooth="yes"/>
      <point x="272" y="31"/>
      <point x="275" y="28"/>
      <point x="273" y="16" type="curve" smooth="yes"/>
      <point x="271" y="-1"/>
      <point x="267" y="-2"/>
      <point x="242" y="-1" type="curve" smooth="yes"/>
      <point x="197" y="1"/>
      <point x="94" y="3"/>
      <point x="48" y="-1" type="curve" smooth="yes"/>
      <point x="29" y="-2"/>
      <point x="27" y="0"/>
      <point x="29" y="16" type="curve"/>
      <point x="31" y="24"/>
      <point x="34" y="27"/>
      <point x="52" y="31" type="curve" smooth="yes"/>
      <point x="91" y="41"/>
      <point x="102" y="45"/>
      <point x="107" y="84" type="curve" smooth="yes"/>
      <point x="166" y="563" type="line" smooth="yes"/>
      <point x="170" y="598"/>
      <point x="145" y="605"/>
      <point x="103" y="613" type="curve" smooth="yes"/>
      <point x="86" y="616"/>
      <point x="80" y="618"/>
      <point x="82" y="627" type="curve" smooth="yes"/>
      <point x="85" y="647"/>
      <point x="90" y="648"/>
      <point x="105" y="646" type="curve" smooth="yes"/>
      <point x="142" y="642"/>
      <point x="213" y="637"/>
      <point x="299" y="648" type="curve" smooth="yes"/>
      <point x="324" y="651"/>
      <point x="329" y="651"/>
    </contour>
  </outline>
</glyph>
<glyph name="J" format="1">
  <advance width="360"/>
  <unicode hex="004A"/>
  <outline>
    <contour>
      <point x="321" y="632" type="curve" smooth="yes"/>
      <point x="321" y="622"/>
      <point x="320" y="619"/>
      <point x="297" y="612" type="curve" smooth="yes"/>
      <point x="261" y="602"/>
      <point x="254" y="595"/>
      <point x="250" y="563" type="curve" smooth="yes"/>
      <point x="186" y="48" type="line" smooth="yes"/>
      <point x="167" y="-108"/>
      <point x="62" y="-178"/>
      <point x="-51" y="-178" type="curve" smooth="yes"/>
      <point x="-98" y="-178"/>
      <point x="-124" y="-169"/>
      <point x="-143" y="-157" type="curve" smooth="yes"/>
      <point x="-153" y="-150"/>
      <point x="-155" y="-142"/>
      <point x="-138" y="-113" type="curve" smooth="yes"/>
      <point x="-127" y="-95"/>
      <point x="-115" y="-84"/>
      <point x="-105" y="-84" type="curve" smooth="yes"/>
      <point x="-98" y="-84"/>
      <point x="-92" y="-87"/>
      <point x="-80" y="-96" type="curve" smooth="yes"/>
      <point x="-49" y="-118"/>
      <point x="-27" y="-124"/>
      <point x="-1" y="-124" type="curve" smooth="yes"/>
      <point x="55" y="-124"/>
      <point x="87" y="-99"/>
      <point x="102" y="19" type="curve" smooth="yes"/>
      <point x="170" y="568" type="line" smooth="yes"/>
      <point x="174" y="598"/>
      <point x="166" y="602"/>
      <point x="109" y="613" type="curve" smooth="yes"/>
      <point x="91" y="616"/>
      <point x="90" y="622"/>
      <point x="91" y="632" type="curve" smooth="yes"/>
      <point x="93" y="644"/>
      <point x="95" y="647"/>
      <point x="114" y="645" type="curve" smooth="yes"/>
      <point x="198" y="637"/>
      <point x="266" y="644"/>
      <point x="302" y="649" type="curve" smooth="yes"/>
      <point x="319" y="652"/>
      <point x="321" y="651"/>
    </contour>
  </outline>
</glyph>
<glyph name="K" format="1">
  <advance width="683"/>
  <unicode hex="004B"/>
  <outline>
    <contour>
      <point x="653" y="626" type="curve" smooth="yes"/>
      <point x="653" y="612"/>
      <point x="648" y="611"/>
      <point x="627" y="605" type="curve" smooth="yes"/>
      <point x="590" y="593"/>
      <point x="549" y="566"/>
      <point x="509" y="534" type="curve" smooth="yes"/>
      <point x="426" y="467"/>
      <point x="362" y="414"/>
      <point x="284" y="350" type="curve"/>
      <point x="353" y="271"/>
      <point x="436" y="169"/>
      <point x="514" y="86" type="curve" smooth="yes"/>
      <point x="534" y="64"/>
      <point x="568" y="41"/>
      <point x="594" y="33" type="curve" smooth="yes"/>
      <point x="612" y="28"/>
      <point x="615" y="27"/>
      <point x="614" y="17" type="curve" smooth="yes"/>
      <point x="612" y="2"/>
      <point x="609" y="-1"/>
      <point x="593" y="0" type="curve" smooth="yes"/>
      <point x="452" y="5"/>
      <point x="439" y="-1"/>
      <point x="405" y="-5" type="curve"/>
      <point x="391" y="-8"/>
      <point x="388" y="-5"/>
      <point x="387" y="3" type="curve" smooth="yes"/>
      <point x="386" y="14"/>
      <point x="389" y="16"/>
      <point x="409" y="25" type="curve" smooth="yes"/>
      <point x="425" y="32"/>
      <point x="432" y="58"/>
      <point x="413" y="81" type="curve" smooth="yes"/>
      <point x="376" y="128"/>
      <point x="301" y="216"/>
      <point x="215" y="314" type="curve"/>
      <point x="186" y="80" type="line" smooth="yes"/>
      <point x="182" y="49"/>
      <point x="220" y="41"/>
      <point x="235" y="36" type="curve" smooth="yes"/>
      <point x="255" y="30"/>
      <point x="258" y="27"/>
      <point x="257" y="17" type="curve" smooth="yes"/>
      <point x="255" y="0"/>
      <point x="252" y="-1"/>
      <point x="229" y="0" type="curve" smooth="yes"/>
      <point x="148" y="4"/>
      <point x="94" y="0"/>
      <point x="48" y="-4" type="curve" smooth="yes"/>
      <point x="31" y="-5"/>
      <point x="29" y="-2"/>
      <point x="31" y="13" type="curve" smooth="yes"/>
      <point x="32" y="23"/>
      <point x="37" y="26"/>
      <point x="52" y="28" type="curve" smooth="yes"/>
      <point x="72" y="30"/>
      <point x="97" y="36"/>
      <point x="102" y="80" type="curve" smooth="yes"/>
      <point x="159" y="549" type="line" smooth="yes"/>
      <point x="163" y="585"/>
      <point x="144" y="600"/>
      <point x="118" y="606" type="curve" smooth="yes"/>
      <point x="95" y="612"/>
      <point x="95" y="612"/>
      <point x="96" y="623" type="curve" smooth="yes"/>
      <point x="98" y="638"/>
      <point x="100" y="642"/>
      <point x="126" y="640" type="curve" smooth="yes"/>
      <point x="168" y="638"/>
      <point x="265" y="636"/>
      <point x="310" y="640" type="curve" smooth="yes"/>
      <point x="328" y="642"/>
      <point x="330" y="637"/>
      <point x="329" y="623" type="curve" smooth="yes"/>
      <point x="328" y="616"/>
      <point x="326" y="614"/>
      <point x="306" y="609" type="curve" smooth="yes"/>
      <point x="257" y="598"/>
      <point x="249" y="594"/>
      <point x="244" y="556" type="curve" smooth="yes"/>
      <point x="218" y="343" type="line"/>
      <point x="299" y="410"/>
      <point x="382" y="478"/>
      <point x="453" y="539" type="curve" smooth="yes"/>
      <point x="488" y="569"/>
      <point x="491" y="597"/>
      <point x="459" y="610" type="curve" smooth="yes"/>
      <point x="441" y="618"/>
      <point x="438" y="619"/>
      <point x="441" y="632" type="curve" smooth="yes"/>
      <point x="445" y="646"/>
      <point x="447" y="647"/>
      <point x="469" y="644" type="curve" smooth="yes"/>
      <point x="550" y="633"/>
      <point x="600" y="638"/>
      <point x="634" y="642" type="curve" smooth="yes"/>
      <point x="648" y="644"/>
      <point x="652" y="644"/>
    </contour>
  </outline>
</glyph>
<glyph name="L" format="1">
  <advance width="554"/>
  <unicode hex="004C"/>
  <outline>
    <contour>
      <point x="494" y="122" type="curve" smooth="yes"/>
      <point x="483" y="91"/>
      <point x="467" y="36"/>
      <point x="464" y="5" type="curve" smooth="yes"/>
      <point x="463" y="-2"/>
      <point x="456" y="-4"/>
      <point x="434" y="-3" type="curve" smooth="yes"/>
      <point x="386" y="0"/>
      <point x="323" y="1"/>
      <point x="260" y="1" type="curve" smooth="yes"/>
      <point x="182" y="1"/>
      <point x="102" y="-1"/>
      <point x="46" y="-4" type="curve" smooth="yes"/>
      <point x="26" y="-5"/>
      <point x="25" y="-2"/>
      <point x="26" y="13" type="curve"/>
      <point x="28" y="23"/>
      <point x="31" y="26"/>
      <point x="49" y="28" type="curve" smooth="yes"/>
      <point x="69" y="30"/>
      <point x="96" y="35"/>
      <point x="101" y="79" type="curve" smooth="yes"/>
      <point x="156" y="530" type="line" smooth="yes"/>
      <point x="161" y="572"/>
      <point x="159" y="595"/>
      <point x="117" y="611" type="curve" smooth="yes"/>
      <point x="100" y="617"/>
      <point x="101" y="621"/>
      <point x="103" y="633" type="curve"/>
      <point x="107" y="647"/>
      <point x="110" y="648"/>
      <point x="135" y="645" type="curve" smooth="yes"/>
      <point x="170" y="641"/>
      <point x="224" y="639"/>
      <point x="296" y="646" type="curve" smooth="yes"/>
      <point x="321" y="648"/>
      <point x="325" y="648"/>
      <point x="325" y="634" type="curve" smooth="yes"/>
      <point x="325" y="618"/>
      <point x="322" y="616"/>
      <point x="297" y="610" type="curve" smooth="yes"/>
      <point x="252" y="600"/>
      <point x="245" y="593"/>
      <point x="240" y="550" type="curve" smooth="yes"/>
      <point x="230" y="474"/>
      <point x="187" y="113"/>
      <point x="187" y="113" type="curve" smooth="yes"/>
      <point x="180" y="57"/>
      <point x="200" y="42"/>
      <point x="306" y="42" type="curve" smooth="yes"/>
      <point x="392" y="42"/>
      <point x="425" y="60"/>
      <point x="460" y="127" type="curve" smooth="yes"/>
      <point x="470" y="146"/>
      <point x="473" y="145"/>
      <point x="485" y="140" type="curve"/>
      <point x="497" y="137"/>
      <point x="499" y="135"/>
    </contour>
  </outline>
</glyph>
<glyph name="M" format="1">
  <advance width="918"/>
  <unicode hex="004D"/>
  <outline>
    <contour>
      <point x="873" y="632" type="curve" smooth="yes"/>
      <point x="873" y="623"/>
      <point x="869" y="618"/>
      <point x="847" y="612" type="curve" smooth="yes"/>
      <point x="809" y="603"/>
      <point x="797" y="597"/>
      <point x="794" y="566" type="curve" smooth="yes"/>
      <point x="753" y="91" type="line" smooth="yes"/>
      <point x="750" y="51"/>
      <point x="765" y="42"/>
      <point x="797" y="35" type="curve" smooth="yes"/>
      <point x="818" y="31"/>
      <point x="822" y="29"/>
      <point x="821" y="16" type="curve" smooth="yes"/>
      <point x="819" y="-1"/>
      <point x="815" y="-2"/>
      <point x="790" y="-1" type="curve" smooth="yes"/>
      <point x="743" y="1"/>
      <point x="650" y="3"/>
      <point x="603" y="-1" type="curve" smooth="yes"/>
      <point x="586" y="-2"/>
      <point x="582" y="2"/>
      <point x="584" y="16" type="curve"/>
      <point x="586" y="24"/>
      <point x="590" y="27"/>
      <point x="607" y="31" type="curve" smooth="yes"/>
      <point x="661" y="43"/>
      <point x="670" y="44"/>
      <point x="673" y="84" type="curve" smooth="yes"/>
      <point x="673" y="84"/>
      <point x="692" y="332"/>
      <point x="708" y="506" type="curve" smooth="yes"/>
      <point x="709" y="522"/>
      <point x="700" y="524"/>
      <point x="692" y="510" type="curve" smooth="yes"/>
      <point x="602" y="361"/>
      <point x="479" y="150"/>
      <point x="423" y="33" type="curve" smooth="yes"/>
      <point x="405" y="-4"/>
      <point x="404" y="-11"/>
      <point x="390" y="-15" type="curve" smooth="yes"/>
      <point x="376" y="-19"/>
      <point x="373" y="-16"/>
      <point x="369" y="12" type="curve" smooth="yes"/>
      <point x="359" y="89"/>
      <point x="290" y="311"/>
      <point x="227" y="502" type="curve" smooth="yes"/>
      <point x="222" y="518"/>
      <point x="212" y="517"/>
      <point x="209" y="498" type="curve" smooth="yes"/>
      <point x="183" y="342"/>
      <point x="146" y="112"/>
      <point x="146" y="112" type="curve" smooth="yes"/>
      <point x="139" y="68"/>
      <point x="145" y="45"/>
      <point x="197" y="35" type="curve" smooth="yes"/>
      <point x="221" y="31"/>
      <point x="223" y="27"/>
      <point x="221" y="16" type="curve" smooth="yes"/>
      <point x="219" y="-1"/>
      <point x="214" y="-2"/>
      <point x="189" y="-1" type="curve" smooth="yes"/>
      <point x="144" y="1"/>
      <point x="71" y="3"/>
      <point x="24" y="-1" type="curve" smooth="yes"/>
      <point x="6" y="-2"/>
      <point x="4" y="1"/>
      <point x="6" y="16" type="curve" smooth="yes"/>
      <point x="7" y="25"/>
      <point x="8" y="27"/>
      <point x="28" y="31" type="curve" smooth="yes"/>
      <point x="81" y="43"/>
      <point x="89" y="63"/>
      <point x="96" y="106" type="curve" smooth="yes"/>
      <point x="166" y="538" type="line" smooth="yes"/>
      <point x="172" y="577"/>
      <point x="160" y="590"/>
      <point x="110" y="610" type="curve" smooth="yes"/>
      <point x="89" y="618"/>
      <point x="90" y="623"/>
      <point x="92" y="633" type="curve" smooth="yes"/>
      <point x="94" y="644"/>
      <point x="98" y="645"/>
      <point x="114" y="643" type="curve" smooth="yes"/>
      <point x="145" y="638"/>
      <point x="211" y="635"/>
      <point x="243" y="639" type="curve" smooth="yes"/>
      <point x="271" y="642"/>
      <point x="277" y="639"/>
      <point x="282" y="621" type="curve" smooth="yes"/>
      <point x="343" y="413"/>
      <point x="389" y="253"/>
      <point x="420" y="148" type="curve" smooth="yes"/>
      <point x="423" y="137"/>
      <point x="427" y="137"/>
      <point x="435" y="151" type="curve" smooth="yes"/>
      <point x="506" y="277"/>
      <point x="592" y="424"/>
      <point x="701" y="610" type="curve" smooth="yes"/>
      <point x="715" y="633"/>
      <point x="721" y="635"/>
      <point x="735" y="635" type="curve" smooth="yes"/>
      <point x="769" y="635"/>
      <point x="801" y="638"/>
      <point x="847" y="648" type="curve" smooth="yes"/>
      <point x="872" y="653"/>
      <point x="873" y="651"/>
    </contour>
  </outline>
</glyph>
<glyph name="N" format="1">
  <advance width="797"/>
  <unicode hex="004E"/>
  <outline>
    <contour>
      <point x="789" y="633" type="curve" smooth="yes"/>
      <point x="788" y="626"/>
      <point x="783" y="619"/>
      <point x="762" y="613" type="curve" smooth="yes"/>
      <point x="736" y="605"/>
      <point x="701" y="589"/>
      <point x="696" y="545" type="curve" smooth="yes"/>
      <point x="696" y="545"/>
      <point x="675" y="373"/>
      <point x="653" y="194" type="curve" smooth="yes"/>
      <point x="646" y="135"/>
      <point x="638" y="62"/>
      <point x="634" y="15" type="curve" smooth="yes"/>
      <point x="632" y="-6"/>
      <point x="631" y="-11"/>
      <point x="619" y="-14" type="curve" smooth="yes"/>
      <point x="604" y="-18"/>
      <point x="597" y="-15"/>
      <point x="588" y="9" type="curve" smooth="yes"/>
      <point x="562" y="77"/>
      <point x="335" y="378"/>
      <point x="218" y="520" type="curve" smooth="yes"/>
      <point x="214" y="525"/>
      <point x="205" y="524"/>
      <point x="204" y="511" type="curve" smooth="yes"/>
      <point x="186" y="355"/>
      <point x="159" y="112"/>
      <point x="159" y="112" type="curve" smooth="yes"/>
      <point x="154" y="66"/>
      <point x="172" y="43"/>
      <point x="211" y="35" type="curve" smooth="yes"/>
      <point x="231" y="31"/>
      <point x="235" y="27"/>
      <point x="234" y="16" type="curve"/>
      <point x="231" y="3"/>
      <point x="228" y="-2"/>
      <point x="203" y="-1" type="curve" smooth="yes"/>
      <point x="157" y="1"/>
      <point x="79" y="3"/>
      <point x="32" y="-1" type="curve" smooth="yes"/>
      <point x="14" y="-2"/>
      <point x="11" y="2"/>
      <point x="13" y="16" type="curve" smooth="yes"/>
      <point x="14" y="24"/>
      <point x="19" y="27"/>
      <point x="36" y="31" type="curve" smooth="yes"/>
      <point x="90" y="43"/>
      <point x="99" y="63"/>
      <point x="104" y="106" type="curve" smooth="yes"/>
      <point x="157" y="538" type="line" smooth="yes"/>
      <point x="160" y="565"/>
      <point x="142" y="584"/>
      <point x="103" y="610" type="curve" smooth="yes"/>
      <point x="88" y="621"/>
      <point x="82" y="623"/>
      <point x="85" y="633" type="curve"/>
      <point x="87" y="644"/>
      <point x="90" y="645"/>
      <point x="106" y="643" type="curve" smooth="yes"/>
      <point x="136" y="638"/>
      <point x="179" y="636"/>
      <point x="210" y="639" type="curve" smooth="yes"/>
      <point x="233" y="642"/>
      <point x="238" y="635"/>
      <point x="249" y="621" type="curve" smooth="yes"/>
      <point x="362" y="474"/>
      <point x="530" y="250"/>
      <point x="584" y="172" type="curve" smooth="yes"/>
      <point x="590" y="163"/>
      <point x="596" y="161"/>
      <point x="598" y="177" type="curve" smooth="yes"/>
      <point x="617" y="328"/>
      <point x="643" y="542"/>
      <point x="643" y="542" type="curve" smooth="yes"/>
      <point x="648" y="583"/>
      <point x="626" y="608"/>
      <point x="589" y="615" type="curve" smooth="yes"/>
      <point x="572" y="618"/>
      <point x="566" y="619"/>
      <point x="568" y="629" type="curve" smooth="yes"/>
      <point x="570" y="645"/>
      <point x="576" y="649"/>
      <point x="592" y="647" type="curve" smooth="yes"/>
      <point x="627" y="643"/>
      <point x="698" y="642"/>
      <point x="762" y="649" type="curve" smooth="yes"/>
      <point x="787" y="652"/>
      <point x="791" y="649"/>
    </contour>
  </outline>
</glyph>
<glyph name="O" format="1">
  <advance width="785"/>
  <unicode hex="004F"/>
  <outline>
    <contour>
      <point x="729" y="378" type="curve" smooth="yes"/>
      <point x="729" y="151"/>
      <point x="552" y="-14"/>
      <point x="349" y="-14" type="curve" smooth="yes"/>
      <point x="179" y="-14"/>
      <point x="55" y="91"/>
      <point x="55" y="267" type="curve" smooth="yes"/>
      <point x="55" y="496"/>
      <point x="242" y="656"/>
      <point x="429" y="656" type="curve" smooth="yes"/>
      <point x="611" y="656"/>
      <point x="729" y="549"/>
    </contour>
    <contour>
      <point x="634" y="356" type="curve" smooth="yes"/>
      <point x="634" y="501"/>
      <point x="550" y="608"/>
      <point x="402" y="608" type="curve" smooth="yes"/>
      <point x="265" y="608"/>
      <point x="150" y="481"/>
      <point x="150" y="286" type="curve" smooth="yes"/>
      <point x="150" y="132"/>
      <point x="241" y="33"/>
      <point x="384" y="33" type="curve" smooth="yes"/>
      <point x="533" y="33"/>
      <point x="634" y="174"/>
    </contour>
  </outline>
</glyph>
<glyph name="P" format="1">
  <advance width="567"/>
  <unicode hex="0050"/>
  <outline>
    <contour>
      <point x="540" y="488" type="curve" smooth="yes"/>
      <point x="540" y="335"/>
      <point x="424" y="275"/>
      <point x="283" y="267" type="curve" smooth="yes"/>
      <point x="277" y="267"/>
      <point x="274" y="269"/>
      <point x="274" y="282" type="curve" smooth="yes"/>
      <point x="274" y="298"/>
      <point x="276" y="301"/>
      <point x="293" y="302" type="curve" smooth="yes"/>
      <point x="380" y="310"/>
      <point x="450" y="361"/>
      <point x="450" y="485" type="curve" smooth="yes"/>
      <point x="450" y="574"/>
      <point x="402" y="605"/>
      <point x="300" y="605" type="curve" smooth="yes"/>
      <point x="253" y="605"/>
      <point x="246" y="590"/>
      <point x="241" y="552" type="curve" smooth="yes"/>
      <point x="183" y="80" type="line" smooth="yes"/>
      <point x="179" y="49"/>
      <point x="183" y="46"/>
      <point x="235" y="36" type="curve" smooth="yes"/>
      <point x="257" y="32"/>
      <point x="260" y="29"/>
      <point x="258" y="17" type="curve" smooth="yes"/>
      <point x="256" y="0"/>
      <point x="253" y="-1"/>
      <point x="229" y="0" type="curve" smooth="yes"/>
      <point x="144" y="4"/>
      <point x="93" y="0"/>
      <point x="46" y="-4" type="curve" smooth="yes"/>
      <point x="28" y="-5"/>
      <point x="25" y="-2"/>
      <point x="26" y="13" type="curve"/>
      <point x="28" y="23"/>
      <point x="33" y="26"/>
      <point x="49" y="28" type="curve" smooth="yes"/>
      <point x="69" y="30"/>
      <point x="96" y="36"/>
      <point x="101" y="80" type="curve" smooth="yes"/>
      <point x="158" y="548" type="line" smooth="yes"/>
      <point x="162" y="584"/>
      <point x="143" y="599"/>
      <point x="115" y="605" type="curve" smooth="yes"/>
      <point x="93" y="610"/>
      <point x="89" y="611"/>
      <point x="91" y="622" type="curve" smooth="yes"/>
      <point x="93" y="640"/>
      <point x="98" y="644"/>
      <point x="122" y="639" type="curve" smooth="yes"/>
      <point x="140" y="636"/>
      <point x="161" y="635"/>
      <point x="185" y="635" type="curve" smooth="yes"/>
      <point x="231" y="635"/>
      <point x="287" y="639"/>
      <point x="348" y="639" type="curve" smooth="yes"/>
      <point x="463" y="639"/>
      <point x="540" y="579"/>
    </contour>
  </outline>
</glyph>
<glyph name="Q" format="1">
  <advance width="785"/>
  <unicode hex="0051"/>
  <outline>
    <contour>
      <point x="1034" y="-126" type="curve"/>
      <point x="1036" y="-139"/>
      <point x="1031" y="-147"/>
      <point x="1027" y="-148" type="curve" smooth="yes"/>
      <point x="950" y="-170"/>
      <point x="904" y="-178"/>
      <point x="804" y="-178" type="curve" smooth="yes"/>
      <point x="663" y="-178"/>
      <point x="503" y="-133"/>
      <point x="385" y="-12" type="curve"/>
      <point x="373" y="-13"/>
      <point x="361" y="-14"/>
      <point x="349" y="-14" type="curve" smooth="yes"/>
      <point x="179" y="-14"/>
      <point x="55" y="91"/>
      <point x="55" y="267" type="curve" smooth="yes"/>
      <point x="55" y="496"/>
      <point x="242" y="656"/>
      <point x="429" y="656" type="curve" smooth="yes"/>
      <point x="611" y="656"/>
      <point x="729" y="549"/>
      <point x="729" y="378" type="curve" smooth="yes"/>
      <point x="729" y="207"/>
      <point x="629" y="71"/>
      <point x="493" y="15" type="curve"/>
      <point x="572" y="-72"/>
      <point x="692" y="-134"/>
      <point x="829" y="-134" type="curve" smooth="yes"/>
      <point x="909" y="-134"/>
      <point x="938" y="-131"/>
      <point x="1019" y="-115" type="curve" smooth="yes"/>
      <point x="1024" y="-114"/>
      <point x="1030" y="-114"/>
    </contour>
    <contour>
      <point x="634" y="356" type="curve" smooth="yes"/>
      <point x="634" y="501"/>
      <point x="550" y="608"/>
      <point x="402" y="608" type="curve" smooth="yes"/>
      <point x="265" y="608"/>
      <point x="150" y="481"/>
      <point x="150" y="286" type="curve" smooth="yes"/>
      <point x="150" y="132"/>
      <point x="241" y="33"/>
      <point x="384" y="33" type="curve" smooth="yes"/>
      <point x="533" y="33"/>
      <point x="634" y="174"/>
    </contour>
  </outline>
</glyph>
<glyph name="R" format="1">
  <advance width="623"/>
  <unicode hex="0052"/>
  <outline>
    <contour>
      <point x="588" y="-1" type="curve" smooth="yes"/>
      <point x="587" y="-9"/>
      <point x="584" y="-12"/>
      <point x="564" y="-12" type="curve" smooth="yes"/>
      <point x="455" y="-12"/>
      <point x="341" y="119"/>
      <point x="270" y="290" type="curve"/>
      <point x="252" y="288"/>
      <point x="232" y="287"/>
      <point x="208" y="286" type="curve"/>
      <point x="183" y="80" type="line" smooth="yes"/>
      <point x="179" y="49"/>
      <point x="189" y="43"/>
      <point x="235" y="36" type="curve" smooth="yes"/>
      <point x="257" y="32"/>
      <point x="260" y="30"/>
      <point x="258" y="17" type="curve" smooth="yes"/>
      <point x="256" y="0"/>
      <point x="253" y="-1"/>
      <point x="229" y="0" type="curve" smooth="yes"/>
      <point x="144" y="4"/>
      <point x="93" y="0"/>
      <point x="46" y="-4" type="curve" smooth="yes"/>
      <point x="28" y="-5"/>
      <point x="25" y="-2"/>
      <point x="26" y="13" type="curve"/>
      <point x="28" y="23"/>
      <point x="33" y="26"/>
      <point x="49" y="28" type="curve" smooth="yes"/>
      <point x="81" y="32"/>
      <point x="96" y="36"/>
      <point x="101" y="80" type="curve" smooth="yes"/>
      <point x="158" y="548" type="line" smooth="yes"/>
      <point x="162" y="584"/>
      <point x="143" y="599"/>
      <point x="115" y="605" type="curve" smooth="yes"/>
      <point x="93" y="610"/>
      <point x="89" y="611"/>
      <point x="91" y="622" type="curve" smooth="yes"/>
      <point x="93" y="639"/>
      <point x="98" y="643"/>
      <point x="122" y="639" type="curve" smooth="yes"/>
      <point x="140" y="636"/>
      <point x="158" y="636"/>
      <point x="180" y="636" type="curve" smooth="yes"/>
      <point x="217" y="636"/>
      <point x="264" y="639"/>
      <point x="343" y="639" type="curve" smooth="yes"/>
      <point x="457" y="639"/>
      <point x="533" y="583"/>
      <point x="533" y="491" type="curve" smooth="yes"/>
      <point x="533" y="394"/>
      <point x="474" y="343"/>
      <point x="398" y="318" type="curve" smooth="yes"/>
      <point x="383" y="313"/>
      <point x="370" y="309"/>
      <point x="357" y="306" type="curve"/>
      <point x="414" y="158"/>
      <point x="501" y="32"/>
      <point x="576" y="17" type="curve" smooth="yes"/>
      <point x="587" y="15"/>
      <point x="589" y="9"/>
    </contour>
    <contour>
      <point x="441" y="487" type="curve" smooth="yes"/>
      <point x="441" y="568"/>
      <point x="406" y="605"/>
      <point x="301" y="605" type="curve" smooth="yes"/>
      <point x="249" y="605"/>
      <point x="246" y="590"/>
      <point x="241" y="552" type="curve" smooth="yes"/>
      <point x="212" y="325" type="line"/>
      <point x="278" y="327"/>
      <point x="321" y="333"/>
      <point x="360" y="350" type="curve" smooth="yes"/>
      <point x="410" y="372"/>
      <point x="441" y="415"/>
    </contour>
  </outline>
</glyph>
<glyph name="S" format="1">
  <advance width="551"/>
  <unicode hex="0053"/>
  <outline>
    <contour>
      <point x="479" y="509" type="curve" smooth="yes"/>
      <point x="477" y="493"/>
      <point x="474" y="491"/>
      <point x="460" y="488" type="curve"/>
      <point x="448" y="487"/>
      <point x="441" y="486"/>
      <point x="438" y="500" type="curve" smooth="yes"/>
      <point x="418" y="582"/>
      <point x="381" y="611"/>
      <point x="294" y="611" type="curve" smooth="yes"/>
      <point x="236" y="611"/>
      <point x="179" y="580"/>
      <point x="179" y="517" type="curve" smooth="yes"/>
      <point x="179" y="466"/>
      <point x="199" y="436"/>
      <point x="285" y="377" type="curve" smooth="yes"/>
      <point x="413" y="290"/>
      <point x="452" y="241"/>
      <point x="452" y="171" type="curve" smooth="yes"/>
      <point x="452" y="50"/>
      <point x="350" y="-14"/>
      <point x="231" y="-14" type="curve" smooth="yes"/>
      <point x="113" y="-14"/>
      <point x="55" y="9"/>
      <point x="45" y="41" type="curve" smooth="yes"/>
      <point x="37" y="68"/>
      <point x="33" y="98"/>
      <point x="31" y="123" type="curve" smooth="yes"/>
      <point x="29" y="142"/>
      <point x="33" y="149"/>
      <point x="47" y="154" type="curve" smooth="yes"/>
      <point x="62" y="160"/>
      <point x="67" y="161"/>
      <point x="74" y="144" type="curve" smooth="yes"/>
      <point x="106" y="69"/>
      <point x="150" y="30"/>
      <point x="234" y="30" type="curve" smooth="yes"/>
      <point x="315" y="30"/>
      <point x="374" y="66"/>
      <point x="374" y="139" type="curve" smooth="yes"/>
      <point x="374" y="188"/>
      <point x="356" y="219"/>
      <point x="251" y="292" type="curve" smooth="yes"/>
      <point x="139" y="371"/>
      <point x="101" y="409"/>
      <point x="101" y="480" type="curve" smooth="yes"/>
      <point x="101" y="587"/>
      <point x="192" y="655"/>
      <point x="317" y="655" type="curve" smooth="yes"/>
      <point x="365" y="655"/>
      <point x="417" y="648"/>
      <point x="440" y="639" type="curve" smooth="yes"/>
      <point x="468" y="629"/>
      <point x="477" y="620"/>
      <point x="479" y="608" type="curve" smooth="yes"/>
      <point x="483" y="578"/>
      <point x="482" y="541"/>
    </contour>
  </outline>
</glyph>
<glyph name="T" format="1">
  <advance width="686"/>
  <unicode hex="0054"/>
  <outline>
    <contour>
      <point x="656" y="637" type="curve" smooth="yes"/>
      <point x="659" y="603"/>
      <point x="654" y="525"/>
      <point x="648" y="487" type="curve" smooth="yes"/>
      <point x="646" y="478"/>
      <point x="648" y="473"/>
      <point x="635" y="470" type="curve" smooth="yes"/>
      <point x="620" y="467"/>
      <point x="617" y="472"/>
      <point x="615" y="484" type="curve" smooth="yes"/>
      <point x="601" y="559"/>
      <point x="586" y="600"/>
      <point x="449" y="600" type="curve" smooth="yes"/>
      <point x="411" y="600"/>
      <point x="404" y="597"/>
      <point x="402" y="583" type="curve" smooth="yes"/>
      <point x="402" y="583"/>
      <point x="353" y="172"/>
      <point x="343" y="96" type="curve" smooth="yes"/>
      <point x="338" y="53"/>
      <point x="352" y="43"/>
      <point x="403" y="30" type="curve" smooth="yes"/>
      <point x="428" y="24"/>
      <point x="430" y="23"/>
      <point x="426" y="6" type="curve" smooth="yes"/>
      <point x="422" y="-8"/>
      <point x="418" y="-7"/>
      <point x="395" y="-5" type="curve" smooth="yes"/>
      <point x="322" y="2"/>
      <point x="228" y="0"/>
      <point x="194" y="-4" type="curve" smooth="yes"/>
      <point x="166" y="-8"/>
      <point x="164" y="-4"/>
      <point x="163" y="8" type="curve" smooth="yes"/>
      <point x="162" y="19"/>
      <point x="166" y="25"/>
      <point x="182" y="29" type="curve" smooth="yes"/>
      <point x="235" y="43"/>
      <point x="257" y="57"/>
      <point x="263" y="110" type="curve" smooth="yes"/>
      <point x="263" y="110"/>
      <point x="298" y="401"/>
      <point x="320" y="583" type="curve" smooth="yes"/>
      <point x="322" y="597"/>
      <point x="319" y="600"/>
      <point x="278" y="600" type="curve" smooth="yes"/>
      <point x="150" y="600"/>
      <point x="116" y="554"/>
      <point x="78" y="480" type="curve" smooth="yes"/>
      <point x="69" y="463"/>
      <point x="65" y="462"/>
      <point x="53" y="467" type="curve"/>
      <point x="41" y="470"/>
      <point x="40" y="474"/>
      <point x="45" y="485" type="curve" smooth="yes"/>
      <point x="55" y="511"/>
      <point x="74" y="593"/>
      <point x="79" y="634" type="curve" smooth="yes"/>
      <point x="80" y="642"/>
      <point x="87" y="644"/>
      <point x="108" y="643" type="curve" smooth="yes"/>
      <point x="199" y="636"/>
      <point x="245" y="636"/>
      <point x="330" y="636" type="curve" smooth="yes"/>
      <point x="422" y="636"/>
      <point x="575" y="638"/>
      <point x="628" y="646" type="curve" smooth="yes"/>
      <point x="652" y="649"/>
      <point x="655" y="645"/>
    </contour>
  </outline>
</glyph>
<glyph name="U" format="1">
  <advance width="776"/>
  <unicode hex="0055"/>
  <outline>
    <contour>
      <point x="767" y="626" type="curve" smooth="yes"/>
      <point x="766" y="617"/>
      <point x="762" y="615"/>
      <point x="744" y="611" type="curve" smooth="yes"/>
      <point x="690" y="598"/>
      <point x="682" y="589"/>
      <point x="677" y="548" type="curve" smooth="yes"/>
      <point x="670" y="495"/>
      <point x="651" y="328"/>
      <point x="645" y="280" type="curve" smooth="yes"/>
      <point x="620" y="91"/>
      <point x="521" y="-14"/>
      <point x="339" y="-14" type="curve" smooth="yes"/>
      <point x="163" y="-14"/>
      <point x="80" y="64"/>
      <point x="104" y="257" type="curve" smooth="yes"/>
      <point x="121" y="396"/>
      <point x="140" y="550"/>
      <point x="140" y="550" type="curve" smooth="yes"/>
      <point x="144" y="586"/>
      <point x="123" y="600"/>
      <point x="95" y="606" type="curve" smooth="yes"/>
      <point x="72" y="610"/>
      <point x="72" y="613"/>
      <point x="73" y="624" type="curve" smooth="yes"/>
      <point x="75" y="642"/>
      <point x="77" y="643"/>
      <point x="103" y="642" type="curve" smooth="yes"/>
      <point x="149" y="639"/>
      <point x="245" y="637"/>
      <point x="294" y="642" type="curve" smooth="yes"/>
      <point x="314" y="644"/>
      <point x="315" y="642"/>
      <point x="312" y="624" type="curve" smooth="yes"/>
      <point x="311" y="617"/>
      <point x="307" y="613"/>
      <point x="290" y="609" type="curve" smooth="yes"/>
      <point x="237" y="597"/>
      <point x="229" y="595"/>
      <point x="224" y="556" type="curve" smooth="yes"/>
      <point x="224" y="556"/>
      <point x="208" y="424"/>
      <point x="188" y="263" type="curve" smooth="yes"/>
      <point x="169" y="110"/>
      <point x="214" y="33"/>
      <point x="361" y="33" type="curve" smooth="yes"/>
      <point x="484" y="33"/>
      <point x="563" y="108"/>
      <point x="585" y="280" type="curve" smooth="yes"/>
      <point x="601" y="405"/>
      <point x="617" y="541"/>
      <point x="617" y="541" type="curve" smooth="yes"/>
      <point x="623" y="588"/>
      <point x="601" y="600"/>
      <point x="563" y="608" type="curve" smooth="yes"/>
      <point x="541" y="612"/>
      <point x="539" y="616"/>
      <point x="540" y="626" type="curve" smooth="yes"/>
      <point x="543" y="643"/>
      <point x="543" y="645"/>
      <point x="570" y="644" type="curve" smooth="yes"/>
      <point x="616" y="642"/>
      <point x="701" y="639"/>
      <point x="749" y="644" type="curve" smooth="yes"/>
      <point x="766" y="646"/>
      <point x="769" y="644"/>
    </contour>
  </outline>
</glyph>
<glyph name="V" format="1">
  <advance width="771"/>
  <unicode hex="0056"/>
  <outline>
    <contour>
      <point x="755" y="630" type="curve" smooth="yes"/>
      <point x="754" y="616"/>
      <point x="751" y="613"/>
      <point x="722" y="604" type="curve" smooth="yes"/>
      <point x="704" y="599"/>
      <point x="689" y="585"/>
      <point x="659" y="537" type="curve" smooth="yes"/>
      <point x="568" y="392"/>
      <point x="454" y="185"/>
      <point x="364" y="11" type="curve"/>
      <point x="359" y="-2"/>
      <point x="346" y="-12"/>
      <point x="328" y="-17" type="curve"/>
      <point x="320" y="-21"/>
      <point x="312" y="-11"/>
      <point x="309" y="11" type="curve" smooth="yes"/>
      <point x="298" y="92"/>
      <point x="209" y="378"/>
      <point x="137" y="554" type="curve" smooth="yes"/>
      <point x="124" y="585"/>
      <point x="106" y="602"/>
      <point x="78" y="609" type="curve" smooth="yes"/>
      <point x="63" y="612"/>
      <point x="57" y="613"/>
      <point x="58" y="623" type="curve" smooth="yes"/>
      <point x="61" y="640"/>
      <point x="65" y="645"/>
      <point x="79" y="643" type="curve" smooth="yes"/>
      <point x="117" y="639"/>
      <point x="193" y="638"/>
      <point x="278" y="652" type="curve" smooth="yes"/>
      <point x="304" y="656"/>
      <point x="308" y="654"/>
      <point x="305" y="637" type="curve" smooth="yes"/>
      <point x="304" y="629"/>
      <point x="304" y="626"/>
      <point x="279" y="617" type="curve" smooth="yes"/>
      <point x="230" y="599"/>
      <point x="222" y="585"/>
      <point x="232" y="559" type="curve" smooth="yes"/>
      <point x="282" y="422"/>
      <point x="316" y="285"/>
      <point x="360" y="136" type="curve" smooth="yes"/>
      <point x="364" y="121"/>
      <point x="370" y="121"/>
      <point x="378" y="136" type="curve" smooth="yes"/>
      <point x="442" y="255"/>
      <point x="548" y="449"/>
      <point x="597" y="538" type="curve" smooth="yes"/>
      <point x="615" y="571"/>
      <point x="602" y="593"/>
      <point x="554" y="611" type="curve" smooth="yes"/>
      <point x="535" y="618"/>
      <point x="534" y="622"/>
      <point x="536" y="634" type="curve"/>
      <point x="540" y="648"/>
      <point x="545" y="650"/>
      <point x="570" y="647" type="curve" smooth="yes"/>
      <point x="653" y="636"/>
      <point x="699" y="640"/>
      <point x="736" y="645" type="curve" smooth="yes"/>
      <point x="752" y="647"/>
      <point x="757" y="646"/>
    </contour>
  </outline>
</glyph>
<glyph name="W" format="1">
  <advance width="1064"/>
  <unicode hex="0057"/>
  <outline>
    <contour>
      <point x="1047" y="622" type="curve" smooth="yes"/>
      <point x="1045" y="608"/>
      <point x="1039" y="604"/>
      <point x="1013" y="596" type="curve" smooth="yes"/>
      <point x="996" y="591"/>
      <point x="977" y="580"/>
      <point x="951" y="529" type="curve" smooth="yes"/>
      <point x="871" y="373"/>
      <point x="781" y="195"/>
      <point x="693" y="11" type="curve" smooth="yes"/>
      <point x="687" y="-2"/>
      <point x="674" y="-12"/>
      <point x="656" y="-17" type="curve"/>
      <point x="648" y="-21"/>
      <point x="640" y="-11"/>
      <point x="638" y="11" type="curve" smooth="yes"/>
      <point x="634" y="70"/>
      <point x="584" y="268"/>
      <point x="535" y="435" type="curve"/>
      <point x="470" y="305"/>
      <point x="401" y="162"/>
      <point x="329" y="11" type="curve" smooth="yes"/>
      <point x="323" y="-2"/>
      <point x="310" y="-12"/>
      <point x="292" y="-17" type="curve"/>
      <point x="284" y="-21"/>
      <point x="276" y="-11"/>
      <point x="274" y="11" type="curve" smooth="yes"/>
      <point x="269" y="81"/>
      <point x="195" y="354"/>
      <point x="136" y="546" type="curve" smooth="yes"/>
      <point x="127" y="577"/>
      <point x="106" y="595"/>
      <point x="77" y="602" type="curve" smooth="yes"/>
      <point x="62" y="606"/>
      <point x="55" y="606"/>
      <point x="56" y="616" type="curve" smooth="yes"/>
      <point x="59" y="633"/>
      <point x="64" y="636"/>
      <point x="78" y="635" type="curve" smooth="yes"/>
      <point x="116" y="631"/>
      <point x="174" y="632"/>
      <point x="259" y="645" type="curve" smooth="yes"/>
      <point x="285" y="649"/>
      <point x="287" y="647"/>
      <point x="287" y="631" type="curve" smooth="yes"/>
      <point x="287" y="623"/>
      <point x="282" y="619"/>
      <point x="260" y="608" type="curve" smooth="yes"/>
      <point x="229" y="593"/>
      <point x="221" y="578"/>
      <point x="228" y="552" type="curve" smooth="yes"/>
      <point x="264" y="406"/>
      <point x="289" y="298"/>
      <point x="326" y="146" type="curve" smooth="yes"/>
      <point x="329" y="135"/>
      <point x="336" y="131"/>
      <point x="343" y="146" type="curve" smooth="yes"/>
      <point x="384" y="238"/>
      <point x="461" y="394"/>
      <point x="513" y="504" type="curve"/>
      <point x="509" y="520"/>
      <point x="505" y="531"/>
      <point x="500" y="546" type="curve" smooth="yes"/>
      <point x="490" y="576"/>
      <point x="474" y="589"/>
      <point x="449" y="603" type="curve"/>
      <point x="433" y="610"/>
      <point x="429" y="613"/>
      <point x="431" y="623" type="curve"/>
      <point x="436" y="639"/>
      <point x="439" y="645"/>
      <point x="454" y="642" type="curve" smooth="yes"/>
      <point x="491" y="636"/>
      <point x="552" y="630"/>
      <point x="638" y="639" type="curve" smooth="yes"/>
      <point x="662" y="642"/>
      <point x="665" y="640"/>
      <point x="663" y="623" type="curve" smooth="yes"/>
      <point x="662" y="615"/>
      <point x="661" y="611"/>
      <point x="637" y="603" type="curve" smooth="yes"/>
      <point x="586" y="587"/>
      <point x="583" y="578"/>
      <point x="589" y="552" type="curve" smooth="yes"/>
      <point x="625" y="404"/>
      <point x="652" y="299"/>
      <point x="689" y="146" type="curve" smooth="yes"/>
      <point x="692" y="134"/>
      <point x="699" y="132"/>
      <point x="706" y="146" type="curve" smooth="yes"/>
      <point x="764" y="266"/>
      <point x="842" y="428"/>
      <point x="889" y="530" type="curve" smooth="yes"/>
      <point x="905" y="564"/>
      <point x="895" y="586"/>
      <point x="847" y="604" type="curve" smooth="yes"/>
      <point x="829" y="610"/>
      <point x="827" y="613"/>
      <point x="829" y="626" type="curve" smooth="yes"/>
      <point x="832" y="640"/>
      <point x="834" y="643"/>
      <point x="862" y="639" type="curve" smooth="yes"/>
      <point x="946" y="629"/>
      <point x="991" y="633"/>
      <point x="1027" y="637" type="curve" smooth="yes"/>
      <point x="1044" y="639"/>
      <point x="1049" y="638"/>
    </contour>
  </outline>
</glyph>
<glyph name="X" format="1">
  <advance width="740"/>
  <unicode hex="0058"/>
  <outline>
    <contour>
      <point x="707" y="630" type="curve"/>
      <point x="704" y="616"/>
      <point x="696" y="611"/>
      <point x="672" y="602" type="curve" smooth="yes"/>
      <point x="642" y="590"/>
      <point x="604" y="561"/>
      <point x="582" y="537" type="curve" smooth="yes"/>
      <point x="532" y="480"/>
      <point x="465" y="406"/>
      <point x="404" y="339" type="curve"/>
      <point x="443" y="264"/>
      <point x="491" y="176"/>
      <point x="552" y="92" type="curve" smooth="yes"/>
      <point x="570" y="67"/>
      <point x="604" y="40"/>
      <point x="630" y="31" type="curve"/>
      <point x="646" y="27"/>
      <point x="649" y="26"/>
      <point x="648" y="16" type="curve" smooth="yes"/>
      <point x="645" y="-1"/>
      <point x="641" y="-4"/>
      <point x="627" y="-2" type="curve" smooth="yes"/>
      <point x="591" y="4"/>
      <point x="518" y="8"/>
      <point x="436" y="-1" type="curve" smooth="yes"/>
      <point x="414" y="-4"/>
      <point x="409" y="-1"/>
      <point x="412" y="15" type="curve"/>
      <point x="412" y="21"/>
      <point x="417" y="27"/>
      <point x="437" y="35" type="curve"/>
      <point x="464" y="43"/>
      <point x="471" y="66"/>
      <point x="459" y="86" type="curve" smooth="yes"/>
      <point x="428" y="139"/>
      <point x="387" y="207"/>
      <point x="348" y="277" type="curve"/>
      <point x="282" y="205"/>
      <point x="225" y="139"/>
      <point x="204" y="108" type="curve" smooth="yes"/>
      <point x="182" y="75"/>
      <point x="179" y="48"/>
      <point x="212" y="35" type="curve"/>
      <point x="222" y="30"/>
      <point x="231" y="24"/>
      <point x="228" y="12" type="curve"/>
      <point x="226" y="-2"/>
      <point x="221" y="-4"/>
      <point x="197" y="-1" type="curve" smooth="yes"/>
      <point x="117" y="10"/>
      <point x="71" y="5"/>
      <point x="34" y="1" type="curve" smooth="yes"/>
      <point x="19" y="-1"/>
      <point x="14" y="0"/>
      <point x="17" y="16" type="curve"/>
      <point x="18" y="30"/>
      <point x="23" y="35"/>
      <point x="48" y="42" type="curve"/>
      <point x="63" y="48"/>
      <point x="105" y="69"/>
      <point x="140" y="109" type="curve" smooth="yes"/>
      <point x="174" y="147"/>
      <point x="252" y="231"/>
      <point x="327" y="313" type="curve"/>
      <point x="285" y="391"/>
      <point x="239" y="480"/>
      <point x="191" y="549" type="curve" smooth="yes"/>
      <point x="173" y="576"/>
      <point x="139" y="596"/>
      <point x="112" y="604" type="curve"/>
      <point x="95" y="607"/>
      <point x="90" y="608"/>
      <point x="91" y="618" type="curve" smooth="yes"/>
      <point x="92" y="635"/>
      <point x="99" y="638"/>
      <point x="113" y="637" type="curve" smooth="yes"/>
      <point x="148" y="633"/>
      <point x="223" y="634"/>
      <point x="304" y="647" type="curve" smooth="yes"/>
      <point x="328" y="651"/>
      <point x="332" y="649"/>
      <point x="330" y="632" type="curve" smooth="yes"/>
      <point x="329" y="626"/>
      <point x="325" y="619"/>
      <point x="304" y="611" type="curve" smooth="yes"/>
      <point x="269" y="597"/>
      <point x="273" y="577"/>
      <point x="286" y="554" type="curve" smooth="yes"/>
      <point x="319" y="495"/>
      <point x="352" y="437"/>
      <point x="383" y="375" type="curve"/>
      <point x="443" y="441"/>
      <point x="498" y="505"/>
      <point x="518" y="538" type="curve" smooth="yes"/>
      <point x="535" y="567"/>
      <point x="544" y="598"/>
      <point x="510" y="611" type="curve"/>
      <point x="500" y="616"/>
      <point x="492" y="622"/>
      <point x="494" y="634" type="curve" smooth="yes"/>
      <point x="497" y="648"/>
      <point x="503" y="650"/>
      <point x="524" y="647" type="curve" smooth="yes"/>
      <point x="604" y="636"/>
      <point x="653" y="640"/>
      <point x="687" y="645" type="curve" smooth="yes"/>
      <point x="703" y="647"/>
      <point x="708" y="646"/>
    </contour>
  </outline>
</glyph>
<glyph name="Y" format="1">
  <advance width="730"/>
  <unicode hex="0059"/>
  <outline>
    <contour>
      <point x="727" y="630" type="curve" smooth="yes"/>
      <point x="726" y="616"/>
      <point x="719" y="612"/>
      <point x="694" y="604" type="curve" smooth="yes"/>
      <point x="676" y="599"/>
      <point x="648" y="580"/>
      <point x="611" y="537" type="curve" smooth="yes"/>
      <point x="519" y="429"/>
      <point x="464" y="361"/>
      <point x="399" y="269" type="curve"/>
      <point x="392" y="224"/>
      <point x="383" y="146"/>
      <point x="377" y="96" type="curve" smooth="yes"/>
      <point x="371" y="53"/>
      <point x="377" y="43"/>
      <point x="428" y="30" type="curve" smooth="yes"/>
      <point x="450" y="25"/>
      <point x="454" y="19"/>
      <point x="451" y="6" type="curve"/>
      <point x="446" y="-8"/>
      <point x="443" y="-7"/>
      <point x="419" y="-5" type="curve" smooth="yes"/>
      <point x="347" y="2"/>
      <point x="274" y="-1"/>
      <point x="239" y="-4" type="curve"/>
      <point x="212" y="-9"/>
      <point x="210" y="-4"/>
      <point x="209" y="8" type="curve" smooth="yes"/>
      <point x="208" y="19"/>
      <point x="213" y="25"/>
      <point x="227" y="29" type="curve" smooth="yes"/>
      <point x="281" y="43"/>
      <point x="292" y="57"/>
      <point x="298" y="110" type="curve" smooth="yes"/>
      <point x="304" y="159"/>
      <point x="315" y="243"/>
      <point x="315" y="243" type="curve"/>
      <point x="283" y="327"/>
      <point x="239" y="410"/>
      <point x="140" y="554" type="curve" smooth="yes"/>
      <point x="122" y="581"/>
      <point x="99" y="603"/>
      <point x="69" y="609" type="curve" smooth="yes"/>
      <point x="52" y="613"/>
      <point x="48" y="613"/>
      <point x="49" y="623" type="curve" smooth="yes"/>
      <point x="51" y="640"/>
      <point x="54" y="645"/>
      <point x="72" y="643" type="curve" smooth="yes"/>
      <point x="109" y="638"/>
      <point x="191" y="638"/>
      <point x="277" y="652" type="curve" smooth="yes"/>
      <point x="302" y="656"/>
      <point x="305" y="654"/>
      <point x="303" y="637" type="curve"/>
      <point x="303" y="632"/>
      <point x="298" y="625"/>
      <point x="277" y="617" type="curve" smooth="yes"/>
      <point x="227" y="598"/>
      <point x="227" y="581"/>
      <point x="240" y="559" type="curve" smooth="yes"/>
      <point x="288" y="478"/>
      <point x="322" y="416"/>
      <point x="369" y="321" type="curve" smooth="yes"/>
      <point x="375" y="309"/>
      <point x="377" y="309"/>
      <point x="386" y="321" type="curve" smooth="yes"/>
      <point x="436" y="388"/>
      <point x="496" y="464"/>
      <point x="552" y="538" type="curve" smooth="yes"/>
      <point x="575" y="569"/>
      <point x="579" y="593"/>
      <point x="531" y="611" type="curve" smooth="yes"/>
      <point x="511" y="618"/>
      <point x="511" y="622"/>
      <point x="513" y="634" type="curve"/>
      <point x="517" y="648"/>
      <point x="522" y="650"/>
      <point x="546" y="647" type="curve" smooth="yes"/>
      <point x="629" y="636"/>
      <point x="670" y="640"/>
      <point x="708" y="645" type="curve" smooth="yes"/>
      <point x="724" y="647"/>
      <point x="729" y="646"/>
    </contour>
  </outline>
</glyph>
<glyph name="Z" format="1">
  <advance width="649"/>
  <unicode hex="005A"/>
  <outline>
    <contour>
      <point x="618" y="637" type="curve" smooth="yes"/>
      <point x="620" y="627"/>
      <point x="617" y="624"/>
      <point x="605" y="611" type="curve" smooth="yes"/>
      <point x="423" y="401"/>
      <point x="282" y="229"/>
      <point x="166" y="81" type="curve" smooth="yes"/>
      <point x="150" y="60"/>
      <point x="152" y="50"/>
      <point x="179" y="48" type="curve" smooth="yes"/>
      <point x="225" y="44"/>
      <point x="270" y="43"/>
      <point x="339" y="43" type="curve" smooth="yes"/>
      <point x="477" y="43"/>
      <point x="500" y="69"/>
      <point x="536" y="154" type="curve" smooth="yes"/>
      <point x="542" y="168"/>
      <point x="546" y="172"/>
      <point x="560" y="168" type="curve" smooth="yes"/>
      <point x="572" y="165"/>
      <point x="569" y="160"/>
      <point x="568" y="151" type="curve" smooth="yes"/>
      <point x="565" y="113"/>
      <point x="548" y="32"/>
      <point x="537" y="1" type="curve" smooth="yes"/>
      <point x="534" y="-6"/>
      <point x="530" y="-10"/>
      <point x="507" y="-8" type="curve" smooth="yes"/>
      <point x="455" y="-3"/>
      <point x="372" y="1"/>
      <point x="284" y="1" type="curve" smooth="yes"/>
      <point x="193" y="1"/>
      <point x="116" y="2"/>
      <point x="44" y="-4" type="curve" smooth="yes"/>
      <point x="19" y="-6"/>
      <point x="15" y="-3"/>
      <point x="12" y="3" type="curve"/>
      <point x="10" y="14"/>
      <point x="11" y="16"/>
      <point x="25" y="33" type="curve" smooth="yes"/>
      <point x="168" y="197"/>
      <point x="340" y="405"/>
      <point x="473" y="577" type="curve" smooth="yes"/>
      <point x="486" y="594"/>
      <point x="486" y="597"/>
      <point x="441" y="597" type="curve" smooth="yes"/>
      <point x="401" y="597"/>
      <point x="369" y="597"/>
      <point x="328" y="597" type="curve" smooth="yes"/>
      <point x="201" y="597"/>
      <point x="169" y="562"/>
      <point x="129" y="482" type="curve"/>
      <point x="121" y="469"/>
      <point x="115" y="464"/>
      <point x="104" y="469" type="curve"/>
      <point x="92" y="472"/>
      <point x="91" y="478"/>
      <point x="94" y="487" type="curve" smooth="yes"/>
      <point x="106" y="518"/>
      <point x="125" y="597"/>
      <point x="129" y="636" type="curve" smooth="yes"/>
      <point x="130" y="644"/>
      <point x="136" y="647"/>
      <point x="159" y="645" type="curve" smooth="yes"/>
      <point x="251" y="639"/>
      <point x="301" y="638"/>
      <point x="391" y="638" type="curve" smooth="yes"/>
      <point x="466" y="638"/>
      <point x="524" y="638"/>
      <point x="591" y="643" type="curve" smooth="yes"/>
      <point x="609" y="644"/>
      <point x="616" y="647"/>
    </contour>
  </outline>
</glyph>
<glyph name="bracketleft" format="1">
  <advance width="410"/>
  <unicode hex="005B"/>
  <outline>
    <contour>
      <point x="429" y="720" type="curve" smooth="yes"/>
      <point x="428" y="704"/>
      <point x="422" y="703"/>
      <point x="412" y="702" type="curve" smooth="yes"/>
      <point x="335" y="695"/>
      <point x="287" y="688"/>
      <point x="245" y="681" type="curve" smooth="yes"/>
      <point x="217" y="676"/>
      <point x="208" y="664"/>
      <point x="204" y="638" type="curve" smooth="yes"/>
      <point x="192" y="565"/>
      <point x="176" y="423"/>
      <point x="159" y="285" type="curve" smooth="yes"/>
      <point x="142" y="147"/>
      <point x="125" y="4"/>
      <point x="118" y="-69" type="curve" smooth="yes"/>
      <point x="115" y="-95"/>
      <point x="121" y="-107"/>
      <point x="147" y="-112" type="curve" smooth="yes"/>
      <point x="188" y="-119"/>
      <point x="235" y="-126"/>
      <point x="310" y="-133" type="curve" smooth="yes"/>
      <point x="320" y="-134"/>
      <point x="325" y="-135"/>
      <point x="322" y="-151" type="curve" smooth="yes"/>
      <point x="319" y="-165"/>
      <point x="314" y="-166"/>
      <point x="297" y="-164" type="curve" smooth="yes"/>
      <point x="252" y="-159"/>
      <point x="92" y="-155"/>
      <point x="62" y="-156" type="curve" smooth="yes"/>
      <point x="31" y="-157"/>
      <point x="25" y="-152"/>
      <point x="30" y="-127" type="curve" smooth="yes"/>
      <point x="48" y="-33"/>
      <point x="69" y="126"/>
      <point x="88" y="284" type="curve" smooth="yes"/>
      <point x="106" y="434"/>
      <point x="125" y="602"/>
      <point x="131" y="696" type="curve" smooth="yes"/>
      <point x="132" y="721"/>
      <point x="139" y="726"/>
      <point x="170" y="725" type="curve" smooth="yes"/>
      <point x="200" y="724"/>
      <point x="361" y="728"/>
      <point x="407" y="733" type="curve" smooth="yes"/>
      <point x="424" y="735"/>
      <point x="429" y="734"/>
    </contour>
  </outline>
</glyph>
<glyph name="backslash" format="1">
  <advance width="428"/>
  <unicode hex="005C"/>
  <outline>
    <contour>
      <point x="357" y="-146" type="curve" smooth="yes"/>
      <point x="360" y="-156"/>
      <point x="354" y="-160"/>
      <point x="339" y="-167" type="curve" smooth="yes"/>
      <point x="323" y="-174"/>
      <point x="315" y="-175"/>
      <point x="312" y="-165" type="curve" smooth="yes"/>
      <point x="242" y="80"/>
      <point x="130" y="466"/>
      <point x="61" y="705" type="curve" smooth="yes"/>
      <point x="58" y="715"/>
      <point x="65" y="720"/>
      <point x="81" y="727" type="curve" smooth="yes"/>
      <point x="97" y="733"/>
      <point x="103" y="734"/>
      <point x="106" y="725" type="curve" smooth="yes"/>
      <point x="195" y="417"/>
      <point x="288" y="94"/>
    </contour>
  </outline>
</glyph>
<glyph name="bracketright" format="1">
  <advance width="410"/>
  <unicode hex="005D"/>
  <outline>
    <contour>
      <point x="365" y="696" type="curve" smooth="yes"/>
      <point x="347" y="602"/>
      <point x="324" y="434"/>
      <point x="306" y="284" type="curve" smooth="yes"/>
      <point x="287" y="126"/>
      <point x="270" y="-33"/>
      <point x="264" y="-127" type="curve" smooth="yes"/>
      <point x="263" y="-152"/>
      <point x="255" y="-157"/>
      <point x="224" y="-156" type="curve" smooth="yes"/>
      <point x="194" y="-155"/>
      <point x="34" y="-159"/>
      <point x="-13" y="-164" type="curve" smooth="yes"/>
      <point x="-30" y="-166"/>
      <point x="-35" y="-165"/>
      <point x="-34" y="-151" type="curve" smooth="yes"/>
      <point x="-33" y="-135"/>
      <point x="-28" y="-134"/>
      <point x="-18" y="-133" type="curve" smooth="yes"/>
      <point x="59" y="-126"/>
      <point x="108" y="-119"/>
      <point x="149" y="-112" type="curve" smooth="yes"/>
      <point x="177" y="-107"/>
      <point x="186" y="-95"/>
      <point x="190" y="-69" type="curve" smooth="yes"/>
      <point x="202" y="4"/>
      <point x="218" y="147"/>
      <point x="235" y="285" type="curve" smooth="yes"/>
      <point x="252" y="423"/>
      <point x="269" y="565"/>
      <point x="276" y="638" type="curve" smooth="yes"/>
      <point x="279" y="664"/>
      <point x="273" y="676"/>
      <point x="247" y="681" type="curve" smooth="yes"/>
      <point x="207" y="688"/>
      <point x="159" y="695"/>
      <point x="84" y="702" type="curve" smooth="yes"/>
      <point x="74" y="703"/>
      <point x="70" y="704"/>
      <point x="73" y="720" type="curve" smooth="yes"/>
      <point x="75" y="734"/>
      <point x="80" y="735"/>
      <point x="97" y="733" type="curve" smooth="yes"/>
      <point x="143" y="728"/>
      <point x="302" y="724"/>
      <point x="332" y="725" type="curve" smooth="yes"/>
      <point x="363" y="726"/>
      <point x="370" y="721"/>
    </contour>
  </outline>
</glyph>
<glyph name="asciicircum" format="1">
  <advance width="558"/>
  <unicode hex="005E"/>
  <outline>
    <contour>
      <point x="467" y="403" type="curve" smooth="yes"/>
      <point x="471" y="398"/>
      <point x="470" y="394"/>
      <point x="464" y="391" type="curve" smooth="yes"/>
      <point x="447" y="382"/>
      <point x="442" y="381"/>
      <point x="434" y="388" type="curve" smooth="yes"/>
      <point x="371" y="441"/>
      <point x="327" y="482"/>
      <point x="279" y="535" type="curve"/>
      <point x="232" y="482"/>
      <point x="174" y="431"/>
      <point x="122" y="387" type="curve" smooth="yes"/>
      <point x="114" y="381"/>
      <point x="111" y="380"/>
      <point x="95" y="391" type="curve" smooth="yes"/>
      <point x="88" y="396"/>
      <point x="88" y="399"/>
      <point x="92" y="404" type="curve" smooth="yes"/>
      <point x="171" y="504"/>
      <point x="227" y="592"/>
      <point x="252" y="638" type="curve" smooth="yes"/>
      <point x="258" y="649"/>
      <point x="265" y="651"/>
      <point x="279" y="651" type="curve" smooth="yes"/>
      <point x="296" y="651"/>
      <point x="301" y="648"/>
      <point x="306" y="639" type="curve" smooth="yes"/>
      <point x="330" y="590"/>
      <point x="391" y="503"/>
    </contour>
  </outline>
</glyph>
<glyph name="underscore" format="1">
  <advance width="402"/>
  <unicode hex="005F"/>
  <outline>
    <contour>
      <point x="362" y="-144" type="line"/>
      <point x="-48" y="-144" type="line"/>
      <point x="-48" y="-85" type="line"/>
      <point x="362" y="-85" type="line"/>
    </contour>
  </outline>
</glyph>
<glyph name="grave" format="1">
  <advance width="478"/>
  <unicode hex="0060"/>
  <outline>
    <contour>
      <point x="314" y="462" type="curve" smooth="yes"/>
      <point x="317" y="457"/>
      <point x="315" y="455"/>
      <point x="307" y="451" type="curve" smooth="yes"/>
      <point x="293" y="443"/>
      <point x="289" y="444"/>
      <point x="284" y="449" type="curve" smooth="yes"/>
      <point x="240" y="493"/>
      <point x="216" y="523"/>
      <point x="178" y="582" type="curve" smooth="yes"/>
      <point x="173" y="590"/>
      <point x="170" y="599"/>
      <point x="170" y="606" type="curve" smooth="yes"/>
      <point x="170" y="617"/>
      <point x="207" y="638"/>
      <point x="234" y="638" type="curve" smooth="yes"/>
      <point x="240" y="638"/>
      <point x="247" y="634"/>
      <point x="253" y="625" type="curve" smooth="yes"/>
      <point x="268" y="605"/>
      <point x="273" y="531"/>
    </contour>
  </outline>
</glyph>
<glyph name="a" format="1">
  <advance width="446"/>
  <unicode hex="0061"/>
  <outline>
    <contour>
      <point x="414" y="75" type="curve" smooth="yes"/>
      <point x="380" y="29"/>
      <point x="343" y="-4"/>
      <point x="307" y="-4" type="curve" smooth="yes"/>
      <point x="272" y="-4"/>
      <point x="263" y="11"/>
      <point x="263" y="42" type="curve" smooth="yes"/>
      <point x="263" y="62"/>
      <point x="267" y="97"/>
      <point x="274" y="134" type="curve" smooth="yes"/>
      <point x="275" y="140"/>
      <point x="269" y="141"/>
      <point x="265" y="135" type="curve" smooth="yes"/>
      <point x="220" y="58"/>
      <point x="163" y="-9"/>
      <point x="96" y="-9" type="curve" smooth="yes"/>
      <point x="35" y="-9"/>
      <point x="11" y="30"/>
      <point x="11" y="86" type="curve" smooth="yes"/>
      <point x="11" y="253"/>
      <point x="168" y="384"/>
      <point x="268" y="384" type="curve" smooth="yes"/>
      <point x="287" y="384"/>
      <point x="305" y="380"/>
      <point x="322" y="374" type="curve" smooth="yes"/>
      <point x="328" y="372"/>
      <point x="333" y="376"/>
      <point x="339" y="383" type="curve" smooth="yes"/>
      <point x="355" y="401"/>
      <point x="364" y="405"/>
      <point x="378" y="397" type="curve" smooth="yes"/>
      <point x="387" y="391"/>
      <point x="386" y="387"/>
      <point x="376" y="357" type="curve" smooth="yes"/>
      <point x="343" y="263"/>
      <point x="330" y="167"/>
      <point x="330" y="96" type="curve" smooth="yes"/>
      <point x="330" y="54"/>
      <point x="335" y="50"/>
      <point x="345" y="50" type="curve" smooth="yes"/>
      <point x="355" y="50"/>
      <point x="373" y="65"/>
      <point x="397" y="94" type="curve"/>
      <point x="403" y="99"/>
      <point x="418" y="81"/>
    </contour>
    <contour>
      <point x="282" y="283" type="curve" smooth="yes"/>
      <point x="282" y="321"/>
      <point x="267" y="336"/>
      <point x="228" y="336" type="curve" smooth="yes"/>
      <point x="170" y="336"/>
      <point x="83" y="235"/>
      <point x="83" y="124" type="curve" smooth="yes"/>
      <point x="83" y="84"/>
      <point x="98" y="55"/>
      <point x="134" y="55" type="curve" smooth="yes"/>
      <point x="170" y="55"/>
      <point x="203" y="91"/>
      <point x="236" y="148" type="curve" smooth="yes"/>
      <point x="267" y="202"/>
      <point x="282" y="251"/>
    </contour>
  </outline>
</glyph>
<glyph name="b" format="1">
  <advance width="442"/>
  <unicode hex="0062"/>
  <outline>
    <contour>
      <point x="388" y="262" type="curve" smooth="yes"/>
      <point x="388" y="86"/>
      <point x="235" y="-11"/>
      <point x="161" y="-11" type="curve" smooth="yes"/>
      <point x="131" y="-11"/>
      <point x="104" y="-6"/>
      <point x="83" y="0" type="curve" smooth="yes"/>
      <point x="22" y="18"/>
      <point x="13" y="30"/>
      <point x="24" y="69" type="curve" smooth="yes"/>
      <point x="42" y="134"/>
      <point x="65" y="258"/>
      <point x="85" y="400" type="curve" smooth="yes"/>
      <point x="98" y="490"/>
      <point x="111" y="575"/>
      <point x="115" y="604" type="curve" smooth="yes"/>
      <point x="118" y="629"/>
      <point x="115" y="637"/>
      <point x="105" y="637" type="curve" smooth="yes"/>
      <point x="93" y="637"/>
      <point x="69" y="632"/>
      <point x="39" y="624" type="curve" smooth="yes"/>
      <point x="31" y="622"/>
      <point x="21" y="646"/>
      <point x="27" y="649" type="curve" smooth="yes"/>
      <point x="69" y="670"/>
      <point x="123" y="697"/>
      <point x="156" y="697" type="curve" smooth="yes"/>
      <point x="189" y="697"/>
      <point x="199" y="679"/>
      <point x="196" y="656" type="curve" smooth="yes"/>
      <point x="193" y="637"/>
      <point x="157" y="421"/>
      <point x="120" y="233" type="curve" smooth="yes"/>
      <point x="119" y="228"/>
      <point x="126" y="227"/>
      <point x="130" y="232" type="curve"/>
      <point x="170" y="310"/>
      <point x="230" y="388"/>
      <point x="290" y="388" type="curve" smooth="yes"/>
      <point x="353" y="388"/>
      <point x="388" y="341"/>
    </contour>
    <contour>
      <point x="310" y="246" type="curve" smooth="yes"/>
      <point x="310" y="301"/>
      <point x="287" y="324"/>
      <point x="256" y="324" type="curve" smooth="yes"/>
      <point x="234" y="324"/>
      <point x="212" y="307"/>
      <point x="169" y="241" type="curve" smooth="yes"/>
      <point x="136" y="190"/>
      <point x="104" y="126"/>
      <point x="104" y="87" type="curve" smooth="yes"/>
      <point x="104" y="50"/>
      <point x="141" y="40"/>
      <point x="181" y="40" type="curve" smooth="yes"/>
      <point x="239" y="40"/>
      <point x="310" y="91"/>
    </contour>
  </outline>
</glyph>
<glyph name="c" format="1">
  <advance width="368"/>
  <unicode hex="0063"/>
  <outline>
    <contour>
      <point x="331" y="337" type="curve" smooth="yes"/>
      <point x="331" y="329"/>
      <point x="324" y="316"/>
      <point x="309" y="298" type="curve" smooth="yes"/>
      <point x="292" y="279"/>
      <point x="283" y="275"/>
      <point x="276" y="275" type="curve" smooth="yes"/>
      <point x="265" y="275"/>
      <point x="261" y="280"/>
      <point x="247" y="302" type="curve" smooth="yes"/>
      <point x="228" y="332"/>
      <point x="221" y="338"/>
      <point x="201" y="338" type="curve" smooth="yes"/>
      <point x="142" y="338"/>
      <point x="92" y="278"/>
      <point x="92" y="168" type="curve" smooth="yes"/>
      <point x="92" y="85"/>
      <point x="130" y="42"/>
      <point x="175" y="42" type="curve" smooth="yes"/>
      <point x="207" y="42"/>
      <point x="231" y="53"/>
      <point x="257" y="75" type="curve" smooth="yes"/>
      <point x="268" y="84"/>
      <point x="274" y="89"/>
      <point x="282" y="82" type="curve" smooth="yes"/>
      <point x="296" y="70"/>
      <point x="296" y="63"/>
      <point x="286" y="53" type="curve" smooth="yes"/>
      <point x="244" y="12"/>
      <point x="201" y="-11"/>
      <point x="148" y="-11" type="curve" smooth="yes"/>
      <point x="66" y="-11"/>
      <point x="18" y="36"/>
      <point x="18" y="132" type="curve" smooth="yes"/>
      <point x="18" y="292"/>
      <point x="127" y="384"/>
      <point x="221" y="384" type="curve" smooth="yes"/>
      <point x="313" y="384"/>
      <point x="331" y="357"/>
    </contour>
  </outline>
</glyph>
<glyph name="d" format="1">
  <advance width="456"/>
  <unicode hex="0064"/>
  <outline>
    <contour>
      <point x="414" y="71" type="curve"/>
      <point x="380" y="26"/>
      <point x="343" y="-8"/>
      <point x="307" y="-8" type="curve" smooth="yes"/>
      <point x="272" y="-8"/>
      <point x="263" y="8"/>
      <point x="263" y="39" type="curve" smooth="yes"/>
      <point x="263" y="58"/>
      <point x="266" y="87"/>
      <point x="270" y="109" type="curve" smooth="yes"/>
      <point x="271" y="117"/>
      <point x="266" y="119"/>
      <point x="261" y="110" type="curve" smooth="yes"/>
      <point x="233" y="62"/>
      <point x="172" y="-12"/>
      <point x="113" y="-12" type="curve" smooth="yes"/>
      <point x="52" y="-12"/>
      <point x="15" y="33"/>
      <point x="15" y="113" type="curve" smooth="yes"/>
      <point x="15" y="193"/>
      <point x="44" y="259"/>
      <point x="85" y="306" type="curve" smooth="yes"/>
      <point x="138" y="367"/>
      <point x="183" y="387"/>
      <point x="225" y="387" type="curve" smooth="yes"/>
      <point x="255" y="387"/>
      <point x="280" y="382"/>
      <point x="301" y="376" type="curve" smooth="yes"/>
      <point x="304" y="375"/>
      <point x="305" y="387"/>
      <point x="307" y="400" type="curve" smooth="yes"/>
      <point x="307" y="400"/>
      <point x="334" y="578"/>
      <point x="338" y="604" type="curve" smooth="yes"/>
      <point x="342" y="629"/>
      <point x="338" y="637"/>
      <point x="329" y="637" type="curve" smooth="yes"/>
      <point x="317" y="637"/>
      <point x="283" y="631"/>
      <point x="250" y="623" type="curve" smooth="yes"/>
      <point x="242" y="621"/>
      <point x="234" y="640"/>
      <point x="240" y="644" type="curve"/>
      <point x="282" y="664"/>
      <point x="347" y="697"/>
      <point x="379" y="697" type="curve" smooth="yes"/>
      <point x="405" y="697"/>
      <point x="417" y="679"/>
      <point x="414" y="656" type="curve" smooth="yes"/>
      <point x="411" y="637"/>
      <point x="366" y="366"/>
      <point x="342" y="212" type="curve" smooth="yes"/>
      <point x="335" y="165"/>
      <point x="330" y="134"/>
      <point x="330" y="93" type="curve" smooth="yes"/>
      <point x="330" y="51"/>
      <point x="335" y="46"/>
      <point x="345" y="46" type="curve" smooth="yes"/>
      <point x="355" y="46"/>
      <point x="373" y="62"/>
      <point x="397" y="91" type="curve"/>
      <point x="403" y="96"/>
      <point x="418" y="78"/>
    </contour>
    <contour>
      <point x="282" y="285" type="curve" smooth="yes"/>
      <point x="282" y="323"/>
      <point x="243" y="336"/>
      <point x="203" y="336" type="curve" smooth="yes"/>
      <point x="145" y="336"/>
      <point x="92" y="262"/>
      <point x="92" y="131" type="curve" smooth="yes"/>
      <point x="92" y="77"/>
      <point x="112" y="52"/>
      <point x="146" y="52" type="curve" smooth="yes"/>
      <point x="211" y="52"/>
      <point x="282" y="206"/>
    </contour>
  </outline>
</glyph>
<glyph name="e" format="1">
  <advance width="381"/>
  <unicode hex="0065"/>
  <outline>
    <contour>
      <point x="333" y="314" type="curve" smooth="yes"/>
      <point x="333" y="243"/>
      <point x="264" y="202"/>
      <point x="94" y="155" type="curve"/>
      <point x="97" y="76"/>
      <point x="135" y="44"/>
      <point x="175" y="44" type="curve" smooth="yes"/>
      <point x="206" y="44"/>
      <point x="232" y="54"/>
      <point x="263" y="75" type="curve" smooth="yes"/>
      <point x="277" y="85"/>
      <point x="281" y="86"/>
      <point x="289" y="82" type="curve"/>
      <point x="301" y="74"/>
      <point x="304" y="60"/>
      <point x="292" y="51" type="curve" smooth="yes"/>
      <point x="244" y="13"/>
      <point x="199" y="-6"/>
      <point x="149" y="-6" type="curve" smooth="yes"/>
      <point x="70" y="-6"/>
      <point x="20" y="33"/>
      <point x="20" y="141" type="curve" smooth="yes"/>
      <point x="20" y="293"/>
      <point x="121" y="389"/>
      <point x="229" y="389" type="curve" smooth="yes"/>
      <point x="299" y="389"/>
      <point x="333" y="358"/>
    </contour>
    <contour>
      <point x="255" y="296" type="curve" smooth="yes"/>
      <point x="255" y="327"/>
      <point x="234" y="349"/>
      <point x="203" y="349" type="curve" smooth="yes"/>
      <point x="153" y="349"/>
      <point x="101" y="289"/>
      <point x="95" y="186" type="curve"/>
      <point x="219" y="226"/>
      <point x="255" y="251"/>
    </contour>
  </outline>
</glyph>
<glyph name="f" format="1">
  <advance width="328"/>
  <unicode hex="0066"/>
  <outline>
    <contour>
      <point x="421" y="672" type="curve" smooth="yes"/>
      <point x="420" y="646"/>
      <point x="403" y="605"/>
      <point x="391" y="605" type="curve" smooth="yes"/>
      <point x="382" y="605"/>
      <point x="374" y="609"/>
      <point x="352" y="618" type="curve" smooth="yes"/>
      <point x="338" y="623"/>
      <point x="322" y="627"/>
      <point x="301" y="627" type="curve" smooth="yes"/>
      <point x="204" y="627"/>
      <point x="185" y="527"/>
      <point x="169" y="383" type="curve" smooth="yes"/>
      <point x="168" y="374" type="line"/>
      <point x="287" y="375" type="line" smooth="yes"/>
      <point x="299" y="375"/>
      <point x="300" y="372"/>
      <point x="296" y="350" type="curve"/>
      <point x="292" y="337"/>
      <point x="286" y="328"/>
      <point x="248" y="330" type="curve" smooth="yes"/>
      <point x="163" y="335" type="line"/>
      <point x="130" y="31" type="line" smooth="yes"/>
      <point x="112" y="-137"/>
      <point x="33" y="-242"/>
      <point x="-58" y="-242" type="curve" smooth="yes"/>
      <point x="-98" y="-242"/>
      <point x="-114" y="-231"/>
      <point x="-113" y="-212" type="curve" smooth="yes"/>
      <point x="-112" y="-179"/>
      <point x="-99" y="-161"/>
      <point x="-81" y="-161" type="curve" smooth="yes"/>
      <point x="-71" y="-161"/>
      <point x="-64" y="-167"/>
      <point x="-54" y="-172" type="curve"/>
      <point x="-47" y="-177"/>
      <point x="-38" y="-181"/>
      <point x="-26" y="-181" type="curve" smooth="yes"/>
      <point x="15" y="-181"/>
      <point x="44" y="-133"/>
      <point x="57" y="-12" type="curve" smooth="yes"/>
      <point x="92" y="315" type="line" smooth="yes"/>
      <point x="94" y="329"/>
      <point x="88" y="338"/>
      <point x="73" y="339" type="curve" smooth="yes"/>
      <point x="41" y="341" type="line" smooth="yes"/>
      <point x="30" y="342"/>
      <point x="30" y="345"/>
      <point x="33" y="354" type="curve" smooth="yes"/>
      <point x="38" y="368"/>
      <point x="56" y="373"/>
      <point x="88" y="373" type="curve" smooth="yes"/>
      <point x="98" y="373" type="line"/>
      <point x="113" y="509"/>
      <point x="181" y="694"/>
      <point x="344" y="694" type="curve" smooth="yes"/>
      <point x="411" y="694"/>
      <point x="422" y="689"/>
    </contour>
  </outline>
</glyph>
<glyph name="g" format="1">
  <advance width="441"/>
  <unicode hex="0067"/>
  <outline>
    <contour>
      <point x="403" y="327" type="curve" smooth="yes"/>
      <point x="397" y="301"/>
      <point x="392" y="300"/>
      <point x="351" y="305" type="curve" smooth="yes"/>
      <point x="337" y="307"/>
      <point x="333" y="307"/>
      <point x="332" y="264" type="curve" smooth="yes"/>
      <point x="329" y="177"/>
      <point x="283" y="133"/>
      <point x="208" y="110" type="curve" smooth="yes"/>
      <point x="155" y="94"/>
      <point x="139" y="85"/>
      <point x="139" y="68" type="curve" smooth="yes"/>
      <point x="139" y="57"/>
      <point x="147" y="50"/>
      <point x="222" y="22" type="curve" smooth="yes"/>
      <point x="310" y="-10"/>
      <point x="356" y="-35"/>
      <point x="356" y="-87" type="curve" smooth="yes"/>
      <point x="356" y="-186"/>
      <point x="252" y="-241"/>
      <point x="136" y="-241" type="curve" smooth="yes"/>
      <point x="34" y="-241"/>
      <point x="-43" y="-206"/>
      <point x="-43" y="-137" type="curve" smooth="yes"/>
      <point x="-43" y="-86"/>
      <point x="0" y="-41"/>
      <point x="83" y="0" type="curve"/>
      <point x="64" y="15"/>
      <point x="56" y="27"/>
      <point x="56" y="45" type="curve" smooth="yes"/>
      <point x="56" y="69"/>
      <point x="77" y="85"/>
      <point x="125" y="109" type="curve"/>
      <point x="76" y="129"/>
      <point x="36" y="163"/>
      <point x="36" y="226" type="curve" smooth="yes"/>
      <point x="36" y="324"/>
      <point x="113" y="390"/>
      <point x="196" y="390" type="curve" smooth="yes"/>
      <point x="231" y="390"/>
      <point x="256" y="382"/>
      <point x="285" y="367" type="curve"/>
      <point x="307" y="353"/>
      <point x="323" y="352"/>
      <point x="348" y="353" type="curve" smooth="yes"/>
      <point x="386" y="354" type="line" smooth="yes"/>
      <point x="404" y="354"/>
      <point x="409" y="351"/>
    </contour>
    <contour>
      <point x="265" y="269" type="curve" smooth="yes"/>
      <point x="265" y="312"/>
      <point x="247" y="354"/>
      <point x="189" y="354" type="curve" smooth="yes"/>
      <point x="144" y="354"/>
      <point x="110" y="307"/>
      <point x="110" y="235" type="curve" smooth="yes"/>
      <point x="110" y="173"/>
      <point x="139" y="145"/>
      <point x="180" y="145" type="curve" smooth="yes"/>
      <point x="229" y="145"/>
      <point x="265" y="183"/>
    </contour>
    <contour>
      <point x="299" y="-119" type="curve" smooth="yes"/>
      <point x="299" y="-94"/>
      <point x="268" y="-75"/>
      <point x="184" y="-43" type="curve" smooth="yes"/>
      <point x="160" y="-34"/>
      <point x="140" y="-26"/>
      <point x="120" y="-18" type="curve"/>
      <point x="55" y="-55"/>
      <point x="39" y="-96"/>
      <point x="39" y="-130" type="curve" smooth="yes"/>
      <point x="39" y="-179"/>
      <point x="88" y="-202"/>
      <point x="154" y="-202" type="curve" smooth="yes"/>
      <point x="238" y="-202"/>
      <point x="299" y="-164"/>
    </contour>
  </outline>
</glyph>
<glyph name="h" format="1">
  <advance width="461"/>
  <unicode hex="0068"/>
  <outline>
    <contour>
      <point x="416" y="73" type="curve"/>
      <point x="382" y="28"/>
      <point x="343" y="-5"/>
      <point x="309" y="-5" type="curve" smooth="yes"/>
      <point x="278" y="-5"/>
      <point x="260" y="5"/>
      <point x="260" y="35" type="curve" smooth="yes"/>
      <point x="260" y="52"/>
      <point x="273" y="107"/>
      <point x="286" y="164" type="curve" smooth="yes"/>
      <point x="296" y="208"/>
      <point x="308" y="252"/>
      <point x="308" y="276" type="curve" smooth="yes"/>
      <point x="308" y="312"/>
      <point x="290" y="326"/>
      <point x="259" y="326" type="curve" smooth="yes"/>
      <point x="210" y="326"/>
      <point x="141" y="228"/>
      <point x="119" y="94" type="curve" smooth="yes"/>
      <point x="107" y="22" type="line" smooth="yes"/>
      <point x="105" y="9"/>
      <point x="87" y="0"/>
      <point x="61" y="-2" type="curve" smooth="yes"/>
      <point x="42" y="-3"/>
      <point x="33" y="2"/>
      <point x="35" y="14" type="curve" smooth="yes"/>
      <point x="62" y="207"/>
      <point x="94" y="462"/>
      <point x="108" y="604" type="curve" smooth="yes"/>
      <point x="111" y="629"/>
      <point x="108" y="637"/>
      <point x="98" y="637" type="curve" smooth="yes"/>
      <point x="84" y="637"/>
      <point x="62" y="633"/>
      <point x="31" y="624" type="curve" smooth="yes"/>
      <point x="22" y="622"/>
      <point x="14" y="646"/>
      <point x="21" y="649" type="curve" smooth="yes"/>
      <point x="64" y="670"/>
      <point x="117" y="697"/>
      <point x="150" y="697" type="curve" smooth="yes"/>
      <point x="183" y="697"/>
      <point x="195" y="679"/>
      <point x="191" y="656" type="curve" smooth="yes"/>
      <point x="175" y="557"/>
      <point x="145" y="373"/>
      <point x="126" y="269" type="curve" smooth="yes"/>
      <point x="125" y="264"/>
      <point x="133" y="261"/>
      <point x="136" y="268" type="curve"/>
      <point x="166" y="316"/>
      <point x="231" y="390"/>
      <point x="295" y="390" type="curve" smooth="yes"/>
      <point x="343" y="390"/>
      <point x="382" y="362"/>
      <point x="382" y="303" type="curve" smooth="yes"/>
      <point x="382" y="272"/>
      <point x="365" y="215"/>
      <point x="353" y="164" type="curve" smooth="yes"/>
      <point x="341" y="114"/>
      <point x="331" y="72"/>
      <point x="331" y="63" type="curve" smooth="yes"/>
      <point x="331" y="52"/>
      <point x="341" y="49"/>
      <point x="347" y="49" type="curve" smooth="yes"/>
      <point x="356" y="49"/>
      <point x="374" y="64"/>
      <point x="400" y="93" type="curve"/>
      <point x="406" y="98"/>
      <point x="423" y="80"/>
    </contour>
  </outline>
</glyph>
<glyph name="i" format="1">
  <advance width="273"/>
  <unicode hex="0069"/>
  <outline>
    <contour>
      <point x="222" y="565" type="curve" smooth="yes"/>
      <point x="222" y="535"/>
      <point x="191" y="504"/>
      <point x="162" y="504" type="curve" smooth="yes"/>
      <point x="131" y="504"/>
      <point x="109" y="524"/>
      <point x="109" y="553" type="curve" smooth="yes"/>
      <point x="109" y="582"/>
      <point x="141" y="612"/>
      <point x="169" y="612" type="curve" smooth="yes"/>
      <point x="204" y="612"/>
      <point x="222" y="595"/>
    </contour>
    <contour>
      <point x="204" y="73" type="curve" smooth="yes"/>
      <point x="168" y="28"/>
      <point x="130" y="-5"/>
      <point x="94" y="-5" type="curve" smooth="yes"/>
      <point x="64" y="-5"/>
      <point x="46" y="5"/>
      <point x="46" y="33" type="curve" smooth="yes"/>
      <point x="46" y="50"/>
      <point x="61" y="108"/>
      <point x="76" y="164" type="curve" smooth="yes"/>
      <point x="102" y="264"/>
      <point x="113" y="309"/>
      <point x="113" y="318" type="curve" smooth="yes"/>
      <point x="113" y="328"/>
      <point x="103" y="332"/>
      <point x="95" y="332" type="curve" smooth="yes"/>
      <point x="87" y="332"/>
      <point x="68" y="317"/>
      <point x="44" y="287" type="curve" smooth="yes"/>
      <point x="38" y="280"/>
      <point x="21" y="300"/>
      <point x="26" y="307" type="curve" smooth="yes"/>
      <point x="63" y="352"/>
      <point x="101" y="386"/>
      <point x="136" y="386" type="curve" smooth="yes"/>
      <point x="167" y="386"/>
      <point x="184" y="375"/>
      <point x="184" y="346" type="curve" smooth="yes"/>
      <point x="184" y="328"/>
      <point x="170" y="272"/>
      <point x="155" y="216" type="curve" smooth="yes"/>
      <point x="125" y="106"/>
      <point x="118" y="72"/>
      <point x="118" y="63" type="curve" smooth="yes"/>
      <point x="118" y="52"/>
      <point x="128" y="49"/>
      <point x="135" y="49" type="curve" smooth="yes"/>
      <point x="144" y="49"/>
      <point x="160" y="62"/>
      <point x="187" y="93" type="curve" smooth="yes"/>
      <point x="192" y="99"/>
      <point x="210" y="80"/>
    </contour>
  </outline>
</glyph>
<glyph name="j" format="1">
  <advance width="256"/>
  <unicode hex="006A"/>
  <outline>
    <contour>
      <point x="210" y="565" type="curve" smooth="yes"/>
      <point x="210" y="535"/>
      <point x="183" y="504"/>
      <point x="154" y="504" type="curve" smooth="yes"/>
      <point x="123" y="504"/>
      <point x="99" y="524"/>
      <point x="99" y="553" type="curve" smooth="yes"/>
      <point x="99" y="582"/>
      <point x="127" y="612"/>
      <point x="155" y="612" type="curve" smooth="yes"/>
      <point x="191" y="612"/>
      <point x="210" y="595"/>
    </contour>
    <contour>
      <point x="177" y="339" type="curve" smooth="yes"/>
      <point x="177" y="320"/>
      <point x="173" y="296"/>
      <point x="170" y="269" type="curve" smooth="yes"/>
      <point x="134" y="-25" type="line" smooth="yes"/>
      <point x="116" y="-170"/>
      <point x="66" y="-205"/>
      <point x="-21" y="-253" type="curve" smooth="yes"/>
      <point x="-33" y="-259"/>
      <point x="-34" y="-257"/>
      <point x="-37" y="-251" type="curve" smooth="yes"/>
      <point x="-44" y="-239"/>
      <point x="-42" y="-237"/>
      <point x="-32" y="-228" type="curve" smooth="yes"/>
      <point x="27" y="-175"/>
      <point x="50" y="-146"/>
      <point x="61" y="-56" type="curve" smooth="yes"/>
      <point x="97" y="234" type="line" smooth="yes"/>
      <point x="100" y="259"/>
      <point x="103" y="292"/>
      <point x="103" y="307" type="curve" smooth="yes"/>
      <point x="103" y="325"/>
      <point x="100" y="332"/>
      <point x="90" y="332" type="curve" smooth="yes"/>
      <point x="81" y="332"/>
      <point x="63" y="316"/>
      <point x="39" y="287" type="curve" smooth="yes"/>
      <point x="34" y="281"/>
      <point x="16" y="300"/>
      <point x="20" y="307" type="curve"/>
      <point x="55" y="352"/>
      <point x="91" y="386"/>
      <point x="131" y="386" type="curve" smooth="yes"/>
      <point x="166" y="386"/>
      <point x="177" y="370"/>
    </contour>
  </outline>
</glyph>
<glyph name="k" format="1">
  <advance width="459"/>
  <unicode hex="006B"/>
  <outline>
    <contour>
      <point x="417" y="73" type="curve" smooth="yes"/>
      <point x="384" y="28"/>
      <point x="345" y="-5"/>
      <point x="310" y="-5" type="curve" smooth="yes"/>
      <point x="265" y="-5"/>
      <point x="244" y="22"/>
      <point x="196" y="149" type="curve"/>
      <point x="191" y="159"/>
      <point x="198" y="172"/>
      <point x="206" y="176" type="curve" smooth="yes"/>
      <point x="288" y="215"/>
      <point x="313" y="251"/>
      <point x="314" y="284" type="curve" smooth="yes"/>
      <point x="314" y="314"/>
      <point x="297" y="330"/>
      <point x="267" y="330" type="curve" smooth="yes"/>
      <point x="209" y="330"/>
      <point x="144" y="240"/>
      <point x="120" y="94" type="curve" smooth="yes"/>
      <point x="108" y="22" type="line" smooth="yes"/>
      <point x="106" y="9"/>
      <point x="88" y="0"/>
      <point x="62" y="-2" type="curve" smooth="yes"/>
      <point x="43" y="-3"/>
      <point x="33" y="2"/>
      <point x="35" y="14" type="curve" smooth="yes"/>
      <point x="62" y="207"/>
      <point x="95" y="462"/>
      <point x="109" y="604" type="curve" smooth="yes"/>
      <point x="112" y="629"/>
      <point x="109" y="637"/>
      <point x="99" y="637" type="curve" smooth="yes"/>
      <point x="85" y="637"/>
      <point x="63" y="633"/>
      <point x="32" y="624" type="curve" smooth="yes"/>
      <point x="23" y="622"/>
      <point x="14" y="646"/>
      <point x="21" y="649" type="curve" smooth="yes"/>
      <point x="65" y="670"/>
      <point x="118" y="697"/>
      <point x="151" y="697" type="curve" smooth="yes"/>
      <point x="184" y="697"/>
      <point x="196" y="679"/>
      <point x="192" y="656" type="curve" smooth="yes"/>
      <point x="176" y="557"/>
      <point x="146" y="373"/>
      <point x="127" y="269" type="curve" smooth="yes"/>
      <point x="126" y="264"/>
      <point x="134" y="264"/>
      <point x="137" y="268" type="curve"/>
      <point x="177" y="333"/>
      <point x="232" y="390"/>
      <point x="294" y="390" type="curve" smooth="yes"/>
      <point x="349" y="390"/>
      <point x="384" y="359"/>
      <point x="383" y="309" type="curve" smooth="yes"/>
      <point x="382" y="243"/>
      <point x="340" y="202"/>
      <point x="274" y="168" type="curve" smooth="yes"/>
      <point x="267" y="164"/>
      <point x="265" y="157"/>
      <point x="269" y="147" type="curve" smooth="yes"/>
      <point x="306" y="67"/>
      <point x="320" y="51"/>
      <point x="338" y="51" type="curve" smooth="yes"/>
      <point x="351" y="51"/>
      <point x="371" y="62"/>
      <point x="402" y="93" type="curve" smooth="yes"/>
      <point x="407" y="98"/>
      <point x="423" y="80"/>
    </contour>
  </outline>
</glyph>
<glyph name="l" format="1">
  <advance width="253"/>
  <unicode hex="006C"/>
  <outline>
    <contour>
      <point x="214" y="656" type="curve" smooth="yes"/>
      <point x="183" y="474"/>
      <point x="147" y="274"/>
      <point x="126" y="164" type="curve" smooth="yes"/>
      <point x="116" y="113"/>
      <point x="107" y="72"/>
      <point x="107" y="62" type="curve" smooth="yes"/>
      <point x="107" y="51"/>
      <point x="117" y="49"/>
      <point x="125" y="49" type="curve" smooth="yes"/>
      <point x="133" y="49"/>
      <point x="153" y="64"/>
      <point x="177" y="93" type="curve"/>
      <point x="185" y="98"/>
      <point x="199" y="80"/>
      <point x="194" y="73" type="curve" smooth="yes"/>
      <point x="156" y="28"/>
      <point x="117" y="-5"/>
      <point x="82" y="-5" type="curve" smooth="yes"/>
      <point x="51" y="-5"/>
      <point x="34" y="4"/>
      <point x="34" y="31" type="curve" smooth="yes"/>
      <point x="34" y="48"/>
      <point x="44" y="107"/>
      <point x="55" y="164" type="curve" smooth="yes"/>
      <point x="75" y="268"/>
      <point x="109" y="462"/>
      <point x="132" y="604" type="curve" smooth="yes"/>
      <point x="136" y="629"/>
      <point x="134" y="637"/>
      <point x="124" y="637" type="curve" smooth="yes"/>
      <point x="111" y="637"/>
      <point x="88" y="631"/>
      <point x="56" y="623" type="curve" smooth="yes"/>
      <point x="48" y="621"/>
      <point x="40" y="645"/>
      <point x="48" y="649" type="curve" smooth="yes"/>
      <point x="92" y="669"/>
      <point x="147" y="697"/>
      <point x="179" y="697" type="curve" smooth="yes"/>
      <point x="206" y="697"/>
      <point x="218" y="679"/>
    </contour>
  </outline>
</glyph>
<glyph name="m" format="1">
  <advance width="689"/>
  <unicode hex="006D"/>
  <outline>
    <contour>
      <point x="647" y="73" type="curve"/>
      <point x="614" y="28"/>
      <point x="576" y="-5"/>
      <point x="541" y="-5" type="curve" smooth="yes"/>
      <point x="511" y="-5"/>
      <point x="492" y="5"/>
      <point x="492" y="35" type="curve" smooth="yes"/>
      <point x="492" y="63"/>
      <point x="536" y="241"/>
      <point x="536" y="276" type="curve" smooth="yes"/>
      <point x="536" y="311"/>
      <point x="520" y="326"/>
      <point x="488" y="326" type="curve" smooth="yes"/>
      <point x="438" y="326"/>
      <point x="383" y="238"/>
      <point x="357" y="102" type="curve" smooth="yes"/>
      <point x="341" y="18" type="line"/>
      <point x="337" y="5"/>
      <point x="325" y="-1"/>
      <point x="297" y="-3" type="curve" smooth="yes"/>
      <point x="274" y="-5"/>
      <point x="269" y="3"/>
      <point x="272" y="16" type="curve" smooth="yes"/>
      <point x="304" y="166"/>
      <point x="317" y="245"/>
      <point x="317" y="273" type="curve" smooth="yes"/>
      <point x="317" y="307"/>
      <point x="303" y="326"/>
      <point x="271" y="326" type="curve" smooth="yes"/>
      <point x="223" y="326"/>
      <point x="156" y="228"/>
      <point x="130" y="94" type="curve" smooth="yes"/>
      <point x="116" y="22" type="line" smooth="yes"/>
      <point x="113" y="9"/>
      <point x="100" y="0"/>
      <point x="74" y="-2" type="curve" smooth="yes"/>
      <point x="54" y="-3"/>
      <point x="47" y="2"/>
      <point x="49" y="14" type="curve" smooth="yes"/>
      <point x="81" y="207"/>
      <point x="86" y="244"/>
      <point x="86" y="285" type="curve" smooth="yes"/>
      <point x="86" y="327"/>
      <point x="80" y="332"/>
      <point x="71" y="332" type="curve" smooth="yes"/>
      <point x="61" y="332"/>
      <point x="42" y="316"/>
      <point x="19" y="287" type="curve"/>
      <point x="12" y="282"/>
      <point x="-3" y="300"/>
      <point x="1" y="307" type="curve"/>
      <point x="35" y="352"/>
      <point x="73" y="386"/>
      <point x="108" y="386" type="curve" smooth="yes"/>
      <point x="143" y="386"/>
      <point x="153" y="370"/>
      <point x="153" y="339" type="curve" smooth="yes"/>
      <point x="153" y="320"/>
      <point x="149" y="291"/>
      <point x="145" y="269" type="curve" smooth="yes"/>
      <point x="144" y="264"/>
      <point x="152" y="261"/>
      <point x="155" y="268" type="curve"/>
      <point x="184" y="316"/>
      <point x="242" y="390"/>
      <point x="307" y="390" type="curve" smooth="yes"/>
      <point x="358" y="390"/>
      <point x="386" y="363"/>
      <point x="387" y="291" type="curve"/>
      <point x="423" y="345"/>
      <point x="468" y="390"/>
      <point x="526" y="390" type="curve" smooth="yes"/>
      <point x="574" y="390"/>
      <point x="608" y="362"/>
      <point x="608" y="303" type="curve" smooth="yes"/>
      <point x="608" y="272"/>
      <point x="594" y="215"/>
      <point x="582" y="164" type="curve" smooth="yes"/>
      <point x="570" y="114"/>
      <point x="563" y="73"/>
      <point x="563" y="63" type="curve" smooth="yes"/>
      <point x="563" y="52"/>
      <point x="573" y="49"/>
      <point x="579" y="49" type="curve" smooth="yes"/>
      <point x="588" y="49"/>
      <point x="606" y="64"/>
      <point x="630" y="93" type="curve"/>
      <point x="636" y="98"/>
      <point x="654" y="80"/>
    </contour>
  </outline>
</glyph>
<glyph name="n" format="1">
  <advance width="469"/>
  <unicode hex="006E"/>
  <outline>
    <contour>
      <point x="426" y="73" type="curve" smooth="yes"/>
      <point x="393" y="28"/>
      <point x="355" y="-5"/>
      <point x="320" y="-5" type="curve" smooth="yes"/>
      <point x="290" y="-5"/>
      <point x="270" y="5"/>
      <point x="270" y="35" type="curve" smooth="yes"/>
      <point x="270" y="52"/>
      <point x="282" y="107"/>
      <point x="294" y="164" type="curve" smooth="yes"/>
      <point x="304" y="208"/>
      <point x="315" y="252"/>
      <point x="315" y="276" type="curve" smooth="yes"/>
      <point x="315" y="311"/>
      <point x="301" y="326"/>
      <point x="269" y="326" type="curve" smooth="yes"/>
      <point x="224" y="326"/>
      <point x="154" y="228"/>
      <point x="128" y="94" type="curve" smooth="yes"/>
      <point x="114" y="22" type="line" smooth="yes"/>
      <point x="111" y="9"/>
      <point x="98" y="0"/>
      <point x="72" y="-2" type="curve" smooth="yes"/>
      <point x="52" y="-3"/>
      <point x="45" y="2"/>
      <point x="47" y="14" type="curve" smooth="yes"/>
      <point x="79" y="207"/>
      <point x="84" y="244"/>
      <point x="84" y="285" type="curve" smooth="yes"/>
      <point x="84" y="327"/>
      <point x="78" y="332"/>
      <point x="69" y="332" type="curve" smooth="yes"/>
      <point x="59" y="332"/>
      <point x="40" y="316"/>
      <point x="17" y="287" type="curve"/>
      <point x="10" y="282"/>
      <point x="-5" y="300"/>
      <point x="-1" y="307" type="curve"/>
      <point x="33" y="352"/>
      <point x="71" y="386"/>
      <point x="106" y="386" type="curve" smooth="yes"/>
      <point x="141" y="386"/>
      <point x="151" y="370"/>
      <point x="151" y="339" type="curve" smooth="yes"/>
      <point x="151" y="320"/>
      <point x="147" y="291"/>
      <point x="143" y="269" type="curve" smooth="yes"/>
      <point x="142" y="264"/>
      <point x="150" y="261"/>
      <point x="153" y="268" type="curve"/>
      <point x="182" y="316"/>
      <point x="240" y="390"/>
      <point x="305" y="390" type="curve" smooth="yes"/>
      <point x="353" y="390"/>
      <point x="388" y="362"/>
      <point x="388" y="303" type="curve" smooth="yes"/>
      <point x="388" y="272"/>
      <point x="373" y="215"/>
      <point x="361" y="164" type="curve" smooth="yes"/>
      <point x="350" y="114"/>
      <point x="342" y="73"/>
      <point x="342" y="63" type="curve" smooth="yes"/>
      <point x="342" y="52"/>
      <point x="351" y="49"/>
      <point x="359" y="49" type="curve" smooth="yes"/>
      <point x="367" y="49"/>
      <point x="385" y="64"/>
      <point x="410" y="93" type="curve" smooth="yes"/>
      <point x="415" y="98"/>
      <point x="432" y="80"/>
    </contour>
  </outline>
</glyph>
<glyph name="o" format="1">
  <advance width="413"/>
  <unicode hex="006F"/>
  <outline>
    <contour>
      <point x="361" y="235" type="curve" smooth="yes"/>
      <point x="361" y="93"/>
      <point x="265" y="-6"/>
      <point x="162" y="-6" type="curve" smooth="yes"/>
      <point x="74" y="-6"/>
      <point x="21" y="46"/>
      <point x="21" y="154" type="curve" smooth="yes"/>
      <point x="21" y="298"/>
      <point x="123" y="389"/>
      <point x="222" y="389" type="curve" smooth="yes"/>
      <point x="314" y="389"/>
      <point x="361" y="330"/>
    </contour>
    <contour>
      <point x="282" y="208" type="curve" smooth="yes"/>
      <point x="282" y="292"/>
      <point x="254" y="345"/>
      <point x="203" y="345" type="curve" smooth="yes"/>
      <point x="142" y="345"/>
      <point x="100" y="280"/>
      <point x="100" y="173" type="curve" smooth="yes"/>
      <point x="100" y="89"/>
      <point x="128" y="37"/>
      <point x="183" y="37" type="curve" smooth="yes"/>
      <point x="244" y="37"/>
      <point x="282" y="104"/>
    </contour>
  </outline>
</glyph>
<glyph name="p" format="1">
  <advance width="444"/>
  <unicode hex="0070"/>
  <outline>
    <contour>
      <point x="396" y="265" type="curve" smooth="yes"/>
      <point x="396" y="185"/>
      <point x="369" y="119"/>
      <point x="328" y="72" type="curve" smooth="yes"/>
      <point x="275" y="11"/>
      <point x="230" y="-9"/>
      <point x="187" y="-9" type="curve" smooth="yes"/>
      <point x="160" y="-9"/>
      <point x="133" y="-6"/>
      <point x="111" y="-3" type="curve"/>
      <point x="103" y="-55"/>
      <point x="95" y="-102"/>
      <point x="85" y="-162" type="curve" smooth="yes"/>
      <point x="80" y="-191"/>
      <point x="87" y="-197"/>
      <point x="137" y="-205" type="curve" smooth="yes"/>
      <point x="164" y="-209"/>
      <point x="167" y="-212"/>
      <point x="164" y="-226" type="curve" smooth="yes"/>
      <point x="160" y="-241"/>
      <point x="157" y="-242"/>
      <point x="146" y="-242" type="curve" smooth="yes"/>
      <point x="119" y="-242"/>
      <point x="55" y="-245"/>
      <point x="26" y="-249" type="curve" smooth="yes"/>
      <point x="6" y="-251"/>
      <point x="-2" y="-245"/>
      <point x="2" y="-232" type="curve" smooth="yes"/>
      <point x="6" y="-219"/>
      <point x="13" y="-199"/>
      <point x="17" y="-175" type="curve" smooth="yes"/>
      <point x="52" y="44"/>
      <point x="70" y="161"/>
      <point x="82" y="243" type="curve"/>
      <point x="61" y="231"/>
      <point x="56" y="227"/>
      <point x="24" y="208" type="curve" smooth="yes"/>
      <point x="16" y="203"/>
      <point x="10" y="204"/>
      <point x="6" y="214" type="curve" smooth="yes"/>
      <point x="3" y="223"/>
      <point x="5" y="232"/>
      <point x="12" y="237" type="curve" smooth="yes"/>
      <point x="32" y="251"/>
      <point x="63" y="272"/>
      <point x="90" y="291" type="curve"/>
      <point x="95" y="315"/>
      <point x="102" y="350"/>
      <point x="112" y="381" type="curve" smooth="yes"/>
      <point x="125" y="424"/>
      <point x="136" y="447"/>
      <point x="152" y="455" type="curve" smooth="yes"/>
      <point x="177" y="467"/>
      <point x="186" y="468"/>
      <point x="181" y="434" type="curve" smooth="yes"/>
      <point x="177" y="404"/>
      <point x="172" y="373"/>
      <point x="167" y="340" type="curve"/>
      <point x="223" y="373"/>
      <point x="264" y="390"/>
      <point x="300" y="390" type="curve" smooth="yes"/>
      <point x="360" y="390"/>
      <point x="396" y="345"/>
    </contour>
    <contour>
      <point x="318" y="245" type="curve" smooth="yes"/>
      <point x="318" y="300"/>
      <point x="298" y="326"/>
      <point x="266" y="326" type="curve" smooth="yes"/>
      <point x="244" y="326"/>
      <point x="219" y="320"/>
      <point x="159" y="288" type="curve"/>
      <point x="151" y="235"/>
      <point x="136" y="147"/>
      <point x="124" y="68" type="curve"/>
      <point x="153" y="55"/>
      <point x="186" y="44"/>
      <point x="222" y="44" type="curve" smooth="yes"/>
      <point x="263" y="44"/>
      <point x="318" y="109"/>
    </contour>
  </outline>
</glyph>
<glyph name="q" format="1">
  <advance width="422"/>
  <unicode hex="0071"/>
  <outline>
    <contour>
      <point x="382" y="402" type="curve"/>
      <point x="390" y="396"/>
      <point x="390" y="395"/>
      <point x="375" y="352" type="curve" smooth="yes"/>
      <point x="365" y="324"/>
      <point x="349" y="227"/>
      <point x="337" y="148" type="curve" smooth="yes"/>
      <point x="290" y="-162" type="line" smooth="yes"/>
      <point x="286" y="-188"/>
      <point x="292" y="-197"/>
      <point x="342" y="-205" type="curve" smooth="yes"/>
      <point x="370" y="-209"/>
      <point x="371" y="-213"/>
      <point x="369" y="-226" type="curve" smooth="yes"/>
      <point x="366" y="-240"/>
      <point x="362" y="-242"/>
      <point x="351" y="-242" type="curve" smooth="yes"/>
      <point x="283" y="-242"/>
      <point x="233" y="-240"/>
      <point x="169" y="-249" type="curve" smooth="yes"/>
      <point x="154" y="-251"/>
      <point x="152" y="-249"/>
      <point x="148" y="-242" type="curve"/>
      <point x="144" y="-232"/>
      <point x="147" y="-228"/>
      <point x="161" y="-222" type="curve"/>
      <point x="200" y="-210"/>
      <point x="215" y="-199"/>
      <point x="222" y="-158" type="curve" smooth="yes"/>
      <point x="228" y="-127"/>
      <point x="239" y="-66"/>
      <point x="270" y="112" type="curve" smooth="yes"/>
      <point x="271" y="118"/>
      <point x="264" y="118"/>
      <point x="261" y="113" type="curve" smooth="yes"/>
      <point x="231" y="65"/>
      <point x="172" y="-9"/>
      <point x="113" y="-9" type="curve" smooth="yes"/>
      <point x="52" y="-9"/>
      <point x="15" y="37"/>
      <point x="15" y="117" type="curve" smooth="yes"/>
      <point x="15" y="197"/>
      <point x="44" y="262"/>
      <point x="85" y="309" type="curve" smooth="yes"/>
      <point x="138" y="370"/>
      <point x="183" y="390"/>
      <point x="225" y="390" type="curve" smooth="yes"/>
      <point x="255" y="390"/>
      <point x="282" y="386"/>
      <point x="301" y="379" type="curve" smooth="yes"/>
      <point x="326" y="370"/>
      <point x="332" y="370"/>
      <point x="338" y="378" type="curve"/>
      <point x="366" y="408"/>
      <point x="368" y="410"/>
    </contour>
    <contour>
      <point x="282" y="288" type="curve" smooth="yes"/>
      <point x="282" y="326"/>
      <point x="243" y="339"/>
      <point x="203" y="339" type="curve" smooth="yes"/>
      <point x="145" y="339"/>
      <point x="92" y="266"/>
      <point x="92" y="134" type="curve" smooth="yes"/>
      <point x="92" y="80"/>
      <point x="112" y="55"/>
      <point x="146" y="55" type="curve" smooth="yes"/>
      <point x="211" y="55"/>
      <point x="282" y="210"/>
    </contour>
  </outline>
</glyph>
<glyph name="r" format="1">
  <advance width="376"/>
  <unicode hex="0072"/>
  <outline>
    <contour>
      <point x="344" y="346" type="curve" smooth="yes"/>
      <point x="328" y="293"/>
      <point x="321" y="286"/>
      <point x="307" y="286" type="curve" smooth="yes"/>
      <point x="292" y="286"/>
      <point x="261" y="308"/>
      <point x="239" y="308" type="curve" smooth="yes"/>
      <point x="210" y="308"/>
      <point x="149" y="220"/>
      <point x="123" y="94" type="curve" smooth="yes"/>
      <point x="108" y="22" type="line" smooth="yes"/>
      <point x="105" y="9"/>
      <point x="91" y="0"/>
      <point x="65" y="-2" type="curve" smooth="yes"/>
      <point x="46" y="-3"/>
      <point x="38" y="2"/>
      <point x="40" y="14" type="curve" smooth="yes"/>
      <point x="80" y="207"/>
      <point x="88" y="258"/>
      <point x="88" y="299" type="curve" smooth="yes"/>
      <point x="88" y="324"/>
      <point x="83" y="332"/>
      <point x="74" y="332" type="curve" smooth="yes"/>
      <point x="64" y="332"/>
      <point x="45" y="316"/>
      <point x="20" y="287" type="curve"/>
      <point x="13" y="282"/>
      <point x="-1" y="300"/>
      <point x="4" y="307" type="curve" smooth="yes"/>
      <point x="38" y="352"/>
      <point x="78" y="386"/>
      <point x="114" y="386" type="curve" smooth="yes"/>
      <point x="148" y="386"/>
      <point x="156" y="373"/>
      <point x="156" y="341" type="curve" smooth="yes"/>
      <point x="156" y="322"/>
      <point x="150" y="291"/>
      <point x="146" y="269" type="curve" smooth="yes"/>
      <point x="145" y="264"/>
      <point x="152" y="261"/>
      <point x="156" y="268" type="curve" smooth="yes"/>
      <point x="186" y="316"/>
      <point x="248" y="390"/>
      <point x="312" y="390" type="curve" smooth="yes"/>
      <point x="348" y="390"/>
      <point x="355" y="381"/>
    </contour>
  </outline>
</glyph>
<glyph name="s" format="1">
  <advance width="357"/>
  <unicode hex="0073"/>
  <outline>
    <contour>
      <point x="315" y="346" type="curve" smooth="yes"/>
      <point x="307" y="299"/>
      <point x="305" y="288"/>
      <point x="290" y="288" type="curve" smooth="yes"/>
      <point x="272" y="288"/>
      <point x="267" y="295"/>
      <point x="257" y="311" type="curve" smooth="yes"/>
      <point x="240" y="337"/>
      <point x="216" y="352"/>
      <point x="184" y="352" type="curve" smooth="yes"/>
      <point x="146" y="352"/>
      <point x="126" y="329"/>
      <point x="126" y="307" type="curve" smooth="yes"/>
      <point x="126" y="282"/>
      <point x="134" y="271"/>
      <point x="181" y="238" type="curve" smooth="yes"/>
      <point x="263" y="181"/>
      <point x="287" y="160"/>
      <point x="287" y="114" type="curve" smooth="yes"/>
      <point x="287" y="42"/>
      <point x="224" y="-8"/>
      <point x="130" y="-8" type="curve" smooth="yes"/>
      <point x="36" y="-8"/>
      <point x="14" y="16"/>
      <point x="14" y="48" type="curve" smooth="yes"/>
      <point x="14" y="94"/>
      <point x="19" y="105"/>
      <point x="35" y="105" type="curve" smooth="yes"/>
      <point x="52" y="105"/>
      <point x="61" y="99"/>
      <point x="73" y="78" type="curve" smooth="yes"/>
      <point x="93" y="43"/>
      <point x="121" y="30"/>
      <point x="153" y="30" type="curve" smooth="yes"/>
      <point x="189" y="30"/>
      <point x="215" y="46"/>
      <point x="215" y="79" type="curve" smooth="yes"/>
      <point x="215" y="110"/>
      <point x="203" y="125"/>
      <point x="154" y="158" type="curve" smooth="yes"/>
      <point x="80" y="208"/>
      <point x="59" y="232"/>
      <point x="59" y="272" type="curve" smooth="yes"/>
      <point x="59" y="339"/>
      <point x="121" y="390"/>
      <point x="203" y="390" type="curve" smooth="yes"/>
      <point x="295" y="390"/>
      <point x="319" y="373"/>
    </contour>
  </outline>
</glyph>
<glyph name="t" format="1">
  <advance width="307"/>
  <unicode hex="0074"/>
  <outline>
    <contour>
      <point x="266" y="350" type="curve" smooth="yes"/>
      <point x="264" y="337"/>
      <point x="257" y="327"/>
      <point x="221" y="330" type="curve" smooth="yes"/>
      <point x="157" y="335" type="line"/>
      <point x="149" y="286"/>
      <point x="140" y="240"/>
      <point x="135" y="216" type="curve" smooth="yes"/>
      <point x="113" y="106"/>
      <point x="112" y="80"/>
      <point x="112" y="69" type="curve" smooth="yes"/>
      <point x="112" y="51"/>
      <point x="118" y="44"/>
      <point x="135" y="44" type="curve" smooth="yes"/>
      <point x="154" y="44"/>
      <point x="179" y="53"/>
      <point x="223" y="94" type="curve"/>
      <point x="226" y="98"/>
      <point x="243" y="79"/>
      <point x="239" y="72" type="curve"/>
      <point x="187" y="16"/>
      <point x="140" y="-5"/>
      <point x="100" y="-5" type="curve" smooth="yes"/>
      <point x="54" y="-5"/>
      <point x="38" y="15"/>
      <point x="38" y="50" type="curve" smooth="yes"/>
      <point x="38" y="67"/>
      <point x="45" y="108"/>
      <point x="55" y="164" type="curve" smooth="yes"/>
      <point x="64" y="217"/>
      <point x="85" y="323"/>
      <point x="85" y="323" type="curve" smooth="yes"/>
      <point x="87" y="333"/>
      <point x="83" y="339"/>
      <point x="69" y="340" type="curve" smooth="yes"/>
      <point x="42" y="341" type="line" smooth="yes"/>
      <point x="33" y="341"/>
      <point x="32" y="345"/>
      <point x="34" y="354" type="curve" smooth="yes"/>
      <point x="36" y="368"/>
      <point x="54" y="373"/>
      <point x="88" y="373" type="curve" smooth="yes"/>
      <point x="92" y="373" type="line"/>
      <point x="99" y="403"/>
      <point x="102" y="424"/>
      <point x="102" y="429" type="curve"/>
      <point x="106" y="457"/>
      <point x="130" y="488"/>
      <point x="149" y="495" type="curve" smooth="yes"/>
      <point x="172" y="504"/>
      <point x="187" y="501"/>
      <point x="185" y="490" type="curve" smooth="yes"/>
      <point x="183" y="475"/>
      <point x="174" y="427"/>
      <point x="163" y="374" type="curve"/>
      <point x="255" y="375" type="line" smooth="yes"/>
      <point x="267" y="375"/>
      <point x="269" y="372"/>
    </contour>
  </outline>
</glyph>
<glyph name="u" format="1">
  <advance width="475"/>
  <unicode hex="0075"/>
  <outline>
    <contour>
      <point x="436" y="76" type="curve" smooth="yes"/>
      <point x="402" y="30"/>
      <point x="364" y="-3"/>
      <point x="330" y="-3" type="curve" smooth="yes"/>
      <point x="294" y="-3"/>
      <point x="285" y="12"/>
      <point x="285" y="43" type="curve" smooth="yes"/>
      <point x="285" y="63"/>
      <point x="289" y="92"/>
      <point x="292" y="113" type="curve" smooth="yes"/>
      <point x="293" y="119"/>
      <point x="286" y="121"/>
      <point x="282" y="114" type="curve" smooth="yes"/>
      <point x="253" y="66"/>
      <point x="195" y="-8"/>
      <point x="130" y="-8" type="curve" smooth="yes"/>
      <point x="83" y="-8"/>
      <point x="48" y="21"/>
      <point x="48" y="79" type="curve" smooth="yes"/>
      <point x="48" y="110"/>
      <point x="62" y="167"/>
      <point x="74" y="218" type="curve" smooth="yes"/>
      <point x="86" y="268"/>
      <point x="93" y="307"/>
      <point x="93" y="318" type="curve" smooth="yes"/>
      <point x="93" y="328"/>
      <point x="84" y="332"/>
      <point x="77" y="332" type="curve" smooth="yes"/>
      <point x="69" y="332"/>
      <point x="50" y="316"/>
      <point x="26" y="287" type="curve"/>
      <point x="20" y="282"/>
      <point x="3" y="300"/>
      <point x="9" y="307" type="curve" smooth="yes"/>
      <point x="43" y="352"/>
      <point x="80" y="386"/>
      <point x="116" y="386" type="curve" smooth="yes"/>
      <point x="146" y="386"/>
      <point x="165" y="375"/>
      <point x="165" y="346" type="curve" smooth="yes"/>
      <point x="165" y="328"/>
      <point x="153" y="275"/>
      <point x="141" y="218" type="curve" smooth="yes"/>
      <point x="131" y="174"/>
      <point x="120" y="131"/>
      <point x="120" y="106" type="curve" smooth="yes"/>
      <point x="120" y="71"/>
      <point x="135" y="56"/>
      <point x="167" y="56" type="curve" smooth="yes"/>
      <point x="211" y="56"/>
      <point x="284" y="153"/>
      <point x="308" y="288" type="curve" smooth="yes"/>
      <point x="322" y="366" type="line" smooth="yes"/>
      <point x="324" y="379"/>
      <point x="340" y="388"/>
      <point x="364" y="390" type="curve" smooth="yes"/>
      <point x="389" y="392"/>
      <point x="393" y="391"/>
      <point x="390" y="374" type="curve" smooth="yes"/>
      <point x="355" y="181"/>
      <point x="351" y="138"/>
      <point x="351" y="97" type="curve" smooth="yes"/>
      <point x="351" y="55"/>
      <point x="358" y="51"/>
      <point x="367" y="51" type="curve" smooth="yes"/>
      <point x="376" y="51"/>
      <point x="395" y="66"/>
      <point x="420" y="95" type="curve" smooth="yes"/>
      <point x="425" y="100"/>
      <point x="441" y="82"/>
    </contour>
  </outline>
</glyph>
<glyph name="v" format="1">
  <advance width="477"/>
  <unicode hex="0076"/>
  <outline>
    <contour>
      <point x="423" y="325" type="curve" smooth="yes"/>
      <point x="423" y="164"/>
      <point x="322" y="-5"/>
      <point x="191" y="-5" type="curve" smooth="yes"/>
      <point x="122" y="-5"/>
      <point x="76" y="32"/>
      <point x="76" y="98" type="curve" smooth="yes"/>
      <point x="76" y="157"/>
      <point x="106" y="218"/>
      <point x="173" y="316" type="curve" smooth="yes"/>
      <point x="176" y="321"/>
      <point x="174" y="323"/>
      <point x="171" y="323" type="curve" smooth="yes"/>
      <point x="76" y="320"/>
      <point x="62" y="314"/>
      <point x="62" y="303" type="curve" smooth="yes"/>
      <point x="62" y="295"/>
      <point x="65" y="272"/>
      <point x="65" y="268" type="curve" smooth="yes"/>
      <point x="65" y="264"/>
      <point x="48" y="261"/>
      <point x="44" y="269" type="curve"/>
      <point x="36" y="281"/>
      <point x="14" y="323"/>
      <point x="14" y="346" type="curve" smooth="yes"/>
      <point x="14" y="359"/>
      <point x="27" y="373"/>
      <point x="55" y="376" type="curve" smooth="yes"/>
      <point x="116" y="382"/>
      <point x="169" y="384"/>
      <point x="215" y="384" type="curve" smooth="yes"/>
      <point x="237" y="384"/>
      <point x="245" y="380"/>
      <point x="231" y="355" type="curve" smooth="yes"/>
      <point x="166" y="240"/>
      <point x="153" y="183"/>
      <point x="153" y="135" type="curve" smooth="yes"/>
      <point x="153" y="84"/>
      <point x="179" y="56"/>
      <point x="227" y="56" type="curve" smooth="yes"/>
      <point x="307" y="56"/>
      <point x="378" y="180"/>
      <point x="378" y="279" type="curve" smooth="yes"/>
      <point x="378" y="299"/>
      <point x="308" y="298"/>
      <point x="308" y="340" type="curve" smooth="yes"/>
      <point x="308" y="366"/>
      <point x="324" y="388"/>
      <point x="365" y="388" type="curve" smooth="yes"/>
      <point x="400" y="388"/>
      <point x="423" y="364"/>
    </contour>
  </outline>
</glyph>
<glyph name="w" format="1">
  <advance width="703"/>
  <unicode hex="0077"/>
  <outline>
    <contour>
      <point x="649" y="328" type="curve" smooth="yes"/>
      <point x="649" y="138"/>
      <point x="542" y="-5"/>
      <point x="433" y="-5" type="curve" smooth="yes"/>
      <point x="363" y="-5"/>
      <point x="322" y="54"/>
      <point x="339" y="147" type="curve"/>
      <point x="298" y="42"/>
      <point x="243" y="-5"/>
      <point x="172" y="-5" type="curve" smooth="yes"/>
      <point x="101" y="-5"/>
      <point x="65" y="31"/>
      <point x="65" y="91" type="curve" smooth="yes"/>
      <point x="65" y="151"/>
      <point x="102" y="218"/>
      <point x="173" y="316" type="curve" smooth="yes"/>
      <point x="177" y="321"/>
      <point x="175" y="323"/>
      <point x="172" y="323" type="curve" smooth="yes"/>
      <point x="77" y="320"/>
      <point x="63" y="314"/>
      <point x="62" y="303" type="curve" smooth="yes"/>
      <point x="61" y="295"/>
      <point x="62" y="272"/>
      <point x="62" y="268" type="curve" smooth="yes"/>
      <point x="62" y="264"/>
      <point x="46" y="261"/>
      <point x="41" y="269" type="curve"/>
      <point x="35" y="281"/>
      <point x="17" y="323"/>
      <point x="17" y="346" type="curve" smooth="yes"/>
      <point x="17" y="359"/>
      <point x="31" y="373"/>
      <point x="59" y="376" type="curve" smooth="yes"/>
      <point x="120" y="382"/>
      <point x="173" y="384"/>
      <point x="220" y="384" type="curve" smooth="yes"/>
      <point x="241" y="384"/>
      <point x="249" y="380"/>
      <point x="234" y="355" type="curve" smooth="yes"/>
      <point x="162" y="240"/>
      <point x="144" y="178"/>
      <point x="144" y="125" type="curve" smooth="yes"/>
      <point x="144" y="87"/>
      <point x="159" y="56"/>
      <point x="203" y="56" type="curve" smooth="yes"/>
      <point x="262" y="56"/>
      <point x="310" y="126"/>
      <point x="334" y="238" type="curve" smooth="yes"/>
      <point x="360" y="360" type="line" smooth="yes"/>
      <point x="364" y="380"/>
      <point x="375" y="386"/>
      <point x="399" y="386" type="curve" smooth="yes"/>
      <point x="434" y="386"/>
      <point x="437" y="383"/>
      <point x="431" y="356" type="curve" smooth="yes"/>
      <point x="412" y="265" type="line" smooth="yes"/>
      <point x="402" y="218"/>
      <point x="396" y="170"/>
      <point x="396" y="136" type="curve" smooth="yes"/>
      <point x="396" y="81"/>
      <point x="417" y="56"/>
      <point x="464" y="56" type="curve" smooth="yes"/>
      <point x="537" y="56"/>
      <point x="603" y="167"/>
      <point x="603" y="279" type="curve" smooth="yes"/>
      <point x="603" y="299"/>
      <point x="536" y="297"/>
      <point x="536" y="339" type="curve" smooth="yes"/>
      <point x="536" y="365"/>
      <point x="554" y="388"/>
      <point x="595" y="388" type="curve" smooth="yes"/>
      <point x="630" y="388"/>
      <point x="649" y="367"/>
    </contour>
  </outline>
</glyph>
